<?xml version="1.0" encoding="UTF-8" standalone="no"?>
<!DOCTYPE svg  PUBLIC '-//W3C//DTD SVG 1.1//EN'  'http://www.w3.org/Graphics/SVG/1.1/DTD/svg11.dtd'>
<svg xmlns="http://www.w3.org/2000/svg" version="1.1">
<defs>
<font id="GothamRounded-Book" horiz-adv-x="500">
<font-face bbox="-48 -243 1159 1040" underline-position="-150" descent="-200" font-family="GothamRounded" panose-1="0 0 0 0 0 0 0 0 0 0" underline-thickness="50" ascent="800" x-height="517" font-weight="325" units-per-em="1000" cap-height="705" unicode-range="U+0020-2212"/>
<missing-glyph d="M250 240l-179 -390h358zM450 676l-172 -376l172 -376v752zM50 -76l172 376l-172 376v-752zM71 750l179 -390l179 390h-358zM0 -200v1000h500v-1000h-500z"/>
<glyph d="M482 34v415h-42q-14 0 -23.5 10t-9.5 24q0 13 9.5 23t23.5 10h42v45q0 88 45 133q40 40 111 40q36 0 61 -6q28 -6 28 -33q0 -14 -9.5 -23.5t-23.5 -9.5h-4q-32 5 -42 5q-90 0 -90 -110v-42h134q14 0 24 -9.5t10 -23.5t-10 -23.5t-24 -9.5h-133v-415q0 -16 -11 -27.5 t-27 -11.5t-27.5 11.5t-11.5 27.5zM115 34v415h-42q-14 0 -23.5 10t-9.5 24q0 13 10 23t23 10h42v45q0 88 45 133q40 40 111 40q35 0 61 -6q28 -6 28 -33q0 -14 -9.5 -23.5t-23.5 -9.5h-4q-32 5 -42 5q-90 0 -90 -110v-42h134q14 0 24 -9.5t10 -23.5t-10 -23.5t-24 -9.5 h-133v-415q0 -16 -11 -27.5t-27 -11.5t-27.5 11.5t-11.5 27.5z" glyph-name="f_f" unicode="ff" horiz-adv-x="735"/>
<glyph d="M115 34v415h-42q-14 0 -23.5 10t-9.5 24q0 13 10 23t23 10h42v45q0 88 45 133q40 40 111 40q35 0 61 -6q28 -6 28 -33q0 -14 -9.5 -23.5t-23.5 -9.5h-4q-32 5 -42 5q-90 0 -90 -110v-42h134q14 0 24 -9.5t10 -23.5t-10 -23.5t-24 -9.5h-133v-415q0 -16 -11 -27.5 t-27 -11.5t-27.5 11.5t-11.5 27.5zM460 34v449q0 16 11 27.5t27 11.5t27.5 -11t11.5 -28v-449q0 -17 -11 -28t-27 -11q-17 0 -28 11.5t-11 27.5zM453 666v13q0 18 13 29.5t32 11.5q20 0 33 -11.5t13 -29.5v-13q0 -18 -13 -29.5t-33 -11.5q-19 0 -32 11.5t-13 29.5z" glyph-name="fi" unicode="fi" horiz-adv-x="631"/>
<glyph d="M115 34v415h-42q-14 0 -23.5 10t-9.5 24q0 13 10 23t23 10h42v45q0 88 45 133q40 40 111 40q35 0 61 -6q28 -6 28 -33q0 -14 -9.5 -23.5t-23.5 -9.5h-4q-32 5 -42 5q-90 0 -90 -110v-42h134q14 0 24 -9.5t10 -23.5t-10 -23.5t-24 -9.5h-133v-415q0 -16 -11 -27.5 t-27 -11.5t-27.5 11.5t-11.5 27.5zM460 34v662q0 16 11 27.5t27 11.5t27.5 -11.5t11.5 -27.5v-662q0 -17 -11 -28t-27 -11q-17 0 -28 11.5t-11 27.5z" glyph-name="fl" unicode="fl" horiz-adv-x="631"/>
<glyph d="M482 34v415h-42q-14 0 -23.5 10t-9.5 24q0 13 9.5 23t23.5 10h42v45q0 88 45 133q40 40 111 40q36 0 61 -6q28 -6 28 -33q0 -14 -9.5 -23.5t-23.5 -9.5h-4q-32 5 -42 5q-90 0 -90 -110v-42h134q14 0 24 -9.5t10 -23.5t-10 -23.5t-24 -9.5h-133v-415q0 -16 -11 -27.5 t-27 -11.5t-27.5 11.5t-11.5 27.5zM115 34v415h-42q-14 0 -23.5 10t-9.5 24q0 13 10 23t23 10h42v45q0 88 45 133q40 40 111 40q35 0 61 -6q28 -6 28 -33q0 -14 -9.5 -23.5t-23.5 -9.5h-4q-32 5 -42 5q-90 0 -90 -110v-42h134q14 0 24 -9.5t10 -23.5t-10 -23.5t-24 -9.5 h-133v-415q0 -16 -11 -27.5t-27 -11.5t-27.5 11.5t-11.5 27.5zM827 34v449q0 16 11 27.5t27 11.5q17 0 28 -11t11 -28v-449q0 -17 -11 -28t-27 -11t-27.5 11.5t-11.5 27.5zM820 666v13q0 18 13 29.5t32 11.5q20 0 33 -11.5t13 -29.5v-13q0 -18 -13 -29.5t-33 -11.5 q-19 0 -32 11.5t-13 29.5z" glyph-name="f_f_i" unicode="ffi" horiz-adv-x="998"/>
<glyph d="M827 34v662q0 16 11 27.5t27 11.5t27.5 -11.5t11.5 -27.5v-662q0 -17 -11 -28t-27 -11t-27.5 11.5t-11.5 27.5zM482 34v415h-42q-14 0 -23.5 10t-9.5 24q0 13 9.5 23t23.5 10h42v45q0 88 45 133q40 40 111 40q36 0 61 -6q28 -6 28 -33q0 -14 -9.5 -23.5t-23.5 -9.5h-4 q-32 5 -42 5q-90 0 -90 -110v-42h134q14 0 24 -9.5t10 -23.5t-10 -23.5t-24 -9.5h-133v-415q0 -16 -11 -27.5t-27 -11.5t-27.5 11.5t-11.5 27.5zM115 34v415h-42q-14 0 -23.5 10t-9.5 24q0 13 10 23t23 10h42v45q0 88 45 133q40 40 111 40q35 0 61 -6q28 -6 28 -33 q0 -14 -9.5 -23.5t-23.5 -9.5h-4q-32 5 -42 5q-90 0 -90 -110v-42h134q14 0 24 -9.5t10 -23.5t-10 -23.5t-24 -9.5h-133v-415q0 -16 -11 -27.5t-27 -11.5t-27.5 11.5t-11.5 27.5z" glyph-name="f_f_l" unicode="ffl" horiz-adv-x="997"/>
<glyph glyph-name=".notdef" d="M250 240l-179 -390h358zM450 676l-172 -376l172 -376v752zM50 -76l172 376l-172 376v-752zM71 750l179 -390l179 390h-358zM0 -200v1000h500v-1000h-500z"/>
<glyph glyph-name=".null" horiz-adv-x="0"/>
<glyph glyph-name="nonmarkingreturn" horiz-adv-x="333"/>
<glyph glyph-name="space" unicode=" " horiz-adv-x="300"/>
<glyph d="M88 63q0 20 13.5 33.5t34.5 13.5q20 0 33.5 -13.5t13.5 -33.5v-20q0 -20 -13.5 -34t-33.5 -14q-21 0 -34.5 14t-13.5 34v20zM112 217l-23 454q-1 13 7.5 22.5t21.5 9.5h35q13 0 21.5 -9t7.5 -23l-23 -454q-1 -10 -7.5 -16.5t-15.5 -6.5q-22 0 -24 23z" glyph-name="exclam" unicode="!" horiz-adv-x="271"/>
<glyph d="M67 450l25 215q5 38 40 38h26q23 0 23 -24q0 -1 -5 -23l-63 -209q-8 -23 -24 -23q-25 0 -22 26zM262 450l25 215q5 38 40 38h26q23 0 23 -24q0 -1 -5 -23l-63 -209q-8 -23 -24 -23q-25 0 -22 26z" glyph-name="quotedbl" unicode='&quot;' horiz-adv-x="440"/>
<glyph d="M238 246h187l37 212h-187zM131 37l24 140h-80q-14 0 -24 10t-10 24t10 24.5t24 10.5h92l37 212h-90q-14 0 -24.5 10t-10.5 24t10.5 24.5t24.5 10.5h102l25 147q2 14 12 22.5t23 8.5q15 0 24.5 -10.5t9.5 -25.5v-6l-24 -136h188l25 147q2 14 12 22.5t23 8.5 q15 0 24.5 -10.5t9.5 -25.5v-6l-23 -136h79q14 0 24.5 -10t10.5 -24t-10.5 -24.5t-24.5 -10.5h-91l-37 -212h89q14 0 24.5 -10t10.5 -24t-10.5 -24.5t-24.5 -10.5h-101l-26 -151q-1 -13 -11 -22t-24 -9q-15 0 -24.5 10.5t-9.5 25.5v6l25 140h-188l-26 -151q-2 -13 -11.5 -22 t-23.5 -9q-15 0 -24.5 10.5t-9.5 25.5v6z" glyph-name="numbersign" unicode="#" horiz-adv-x="700"/>
<glyph d="M159 520q0 -46 29 -74t107 -49v236q-62 -3 -99 -34.5t-37 -78.5zM492 184q0 46 -30 74.5t-109 48.5v-241q64 4 101.5 36t37.5 82zM292 731q0 13 9.5 22.5t22.5 9.5t22.5 -9.5t9.5 -22.5v-33q90 -10 169 -64q20 -15 20 -33q0 -16 -11 -26t-27 -10q-13 0 -22 7 q-66 48 -132 58v-247q114 -25 165 -71.5t51 -122.5q0 -80 -59 -131.5t-154 -57.5v-71q0 -13 -9.5 -22.5t-22.5 -9.5t-22.5 9.5t-9.5 22.5v73q-116 10 -217 89q-17 12 -17 32q0 15 11 25.5t26 10.5q13 0 23 -8q84 -71 177 -82v251q-112 27 -162.5 72t-50.5 123q0 77 59 128.5 t151 56.5v31z" glyph-name="dollar" unicode="$" horiz-adv-x="636"/>
<glyph d="M624 48q40 0 65.5 35t25.5 86v2q0 52 -27 87.5t-66 35.5q-40 0 -65.5 -35t-25.5 -86v-2q0 -52 27 -87.5t66 -35.5zM212 406q40 0 65.5 35t25.5 86v2q0 52 -27 87.5t-66 35.5q-40 0 -65.5 -35t-25.5 -86v-2q0 -52 27 -87.5t66 -35.5zM622 -8q-69 0 -113 52t-44 125v2 q0 73 45 126t114 53t113 -52t44 -125v-2q0 -74 -44.5 -126.5t-114.5 -52.5zM149 23q0 10 6 19l476 649q11 14 25 14q12 0 20.5 -8.5t8.5 -19.5q0 -10 -6 -19l-476 -649q-11 -14 -25 -14q-12 0 -20.5 8.5t-8.5 19.5zM210 350q-69 0 -113.5 52t-44.5 125v2q0 73 45 126t115 53 q69 0 113 -52t44 -125v-2q0 -73 -45 -126t-114 -53z" glyph-name="percent" unicode="%" horiz-adv-x="834"/>
<glyph d="M271 57q94 0 176 92l-188 192q-67 -25 -100.5 -64.5t-33.5 -85.5v-2q0 -57 41 -94.5t105 -37.5zM290 415q135 46 135 133v2q0 42 -28 69.5t-71 27.5q-47 0 -76.5 -29t-29.5 -72v-2q0 -31 15 -58.5t55 -70.5zM618 -9q-16 0 -32 14l-91 95q-102 -110 -230 -110 q-95 0 -157.5 54.5t-62.5 141.5v2q0 136 169 202q-70 82 -70 154v2q0 70 51.5 118t133.5 48q73 0 121.5 -46t48.5 -112v-2q0 -124 -165 -182l160 -163q41 61 73 133q11 21 32 21q15 0 25.5 -10.5t10.5 -25.5q0 -8 -5 -18q-42 -88 -87 -149l97 -99q15 -17 15 -31 q0 -16 -10.5 -26.5t-26.5 -10.5z" glyph-name="ampersand" unicode="&amp;" horiz-adv-x="696"/>
<glyph d="M67 450l25 215q5 38 40 38h26q23 0 23 -24q0 -5 -4 -23l-64 -209q-8 -23 -24 -23q-25 0 -22 26z" glyph-name="quotesingle" unicode="&apos;" horiz-adv-x="245"/>
<glyph d="M349 -137q-14 0 -18 4q-263 155 -263 420t263 420q4 4 18 4q12 0 21 -9t9 -21q0 -17 -15 -27q-218 -143 -218 -367t218 -367q15 -10 15 -27q0 -12 -9 -21t-21 -9z" glyph-name="parenleft" unicode="(" horiz-adv-x="434"/>
<glyph d="M85 -137q-12 0 -21 9t-9 21q0 17 15 27q218 143 218 367t-218 367q-15 10 -15 27q0 12 9 21t21 9q14 0 18 -4q263 -155 263 -420t-263 -420q-4 -4 -18 -4z" glyph-name="parenright" unicode=")" horiz-adv-x="434"/>
<glyph d="M191 420l8 102l-84 -59q-11 -8 -20 -8q-10 0 -17.5 7.5t-7.5 18.5q0 17 18 23l97 45l-97 45q-18 9 -18 24q0 10 7.5 17.5t17.5 8.5q9 0 20 -8l84 -59l-8 101q-1 12 6 20.5t18 8.5t18.5 -8.5t5.5 -19.5l-8 -102l84 59q11 8 20 8q10 0 17.5 -7.5t7.5 -18.5q0 -16 -18 -24 l-97 -45l97 -45q18 -6 18 -23q0 -10 -7.5 -18t-17.5 -8q-9 0 -20 8l-84 59l8 -102q2 -11 -5.5 -19.5t-18.5 -8.5t-18.5 8.5t-5.5 19.5z" glyph-name="asterisk" unicode="*" horiz-adv-x="430"/>
<glyph d="M275 143v173h-175q-15 0 -26 10.5t-11 25.5t11 25.5t26 10.5h175v173q0 16 11 26.5t27 10.5q15 0 26 -10.5t11 -26.5v-173h176q15 0 25.5 -10.5t10.5 -25.5t-10.5 -25.5t-25.5 -10.5h-176v-173q0 -16 -11 -26.5t-26 -10.5q-16 0 -27 10.5t-11 26.5z" glyph-name="plus" unicode="+" horiz-adv-x="625"/>
<glyph d="M45 -100q0 13 13 18q56 24 56 76v6q-39 9 -39 48v16q0 20 13 33t33 13q22 0 35.5 -15t13.5 -40v-19q0 -84 -36 -120q-15 -15 -35.5 -25.5t-32.5 -10.5q-21 0 -21 20z" glyph-name="comma" unicode="," horiz-adv-x="245"/>
<glyph d="M100 260q-16 0 -28 12t-12 29q0 16 12 28t28 12h208q16 0 28 -12t12 -28q0 -17 -12 -29t-28 -12h-208z" glyph-name="hyphen" unicode="-" horiz-adv-x="408"/>
<glyph d="M75 63q0 20 13.5 33.5t34.5 13.5q20 0 33.5 -13.5t13.5 -33.5v-20q0 -20 -13.5 -34t-33.5 -14q-21 0 -34.5 14t-13.5 34v20z" glyph-name="period" unicode="." horiz-adv-x="245"/>
<glyph d="M-4 -102q0 10 5 17l435 868q10 20 30 20q13 0 22 -9t9 -22q0 -9 -4 -17l-436 -868q-10 -20 -29 -20q-13 0 -22.5 9t-9.5 22z" glyph-name="slash" unicode="/" horiz-adv-x="508"/>
<glyph d="M359 60q95 0 153.5 84.5t58.5 203.5v2q0 119 -59.5 204.5t-154.5 85.5t-154 -84t-59 -204v-2q0 -119 60 -204.5t155 -85.5zM357 -12q-132 0 -213.5 104.5t-81.5 255.5v2q0 151 82.5 256.5t214.5 105.5t213 -104.5t81 -255.5v-2q0 -151 -82 -256.5t-214 -105.5z" glyph-name="zero" unicode="0" horiz-adv-x="715"/>
<glyph d="M179 35v591l-98 -32q-9 -3 -17 -3q-14 0 -24 10t-10 24q0 24 28 34l115 40q29 9 43 9h2q17 0 28 -11.5t11 -27.5v-634q0 -17 -11.5 -28.5t-27.5 -11.5t-27.5 12t-11.5 28z" glyph-name="one" unicode="1" horiz-adv-x="358"/>
<glyph d="M44 37q0 21 19 37l239 211q82 73 114 120.5t32 99.5q0 60 -41 97t-100 37q-53 0 -94 -25t-80 -77q-11 -14 -29 -14q-15 0 -25.5 10.5t-10.5 25.5q0 12 8 22q47 65 101 97t136 32q94 0 155.5 -56t61.5 -142v-2q0 -73 -39 -129.5t-138 -142.5l-187 -166h339q15 0 26 -10.5 t11 -25.5t-11 -25.5t-26 -10.5h-421q-17 0 -28.5 10.5t-11.5 26.5z" glyph-name="two" unicode="2" horiz-adv-x="599"/>
<glyph d="M311 -12q-150 0 -244 106q-13 13 -13 28q0 16 11.5 27.5t27.5 11.5q17 0 29 -12q78 -89 190 -89q65 0 109 38t44 98v2q0 64 -54 99.5t-142 35.5h-25q-14 0 -24.5 10t-10.5 24q0 15 16 31l204 231h-310q-15 0 -26 10t-11 25t11 25.5t26 10.5h382q17 0 27.5 -9.5 t10.5 -24.5q0 -18 -19 -39l-206 -229q100 -8 165.5 -57.5t65.5 -139.5v-2q0 -92 -67.5 -151.5t-166.5 -59.5z" glyph-name="three" unicode="3" horiz-adv-x="613"/>
<glyph d="M138 232h294v361zM432 33v133h-348q-17 0 -28.5 11t-11.5 27q0 18 15 38l364 444q19 24 44 24q18 0 30 -12t12 -29v-437h79q14 0 24 -10t10 -24q0 -13 -10 -22.5t-24 -9.5h-79v-133q0 -16 -11.5 -27t-27.5 -11t-27 11t-11 27z" glyph-name="four" unicode="4" horiz-adv-x="671"/>
<glyph d="M304 -12q-126 0 -228 91q-16 13 -16 33q0 14 11 25.5t27 11.5q15 0 27 -10q87 -79 180 -79q74 0 121 43.5t47 111.5v2q0 66 -48.5 106.5t-125.5 40.5q-49 0 -95 -17t-47 -17q-17 0 -40 15q-19 13 -17 43l16 274q1 17 11.5 27.5t26.5 10.5h336q15 0 25.5 -10.5t10.5 -26.5 q0 -15 -10.5 -25.5t-25.5 -10.5h-302l-15 -224q71 31 138 31q105 0 173.5 -58t68.5 -156v-2q0 -101 -70 -165.5t-179 -64.5z" glyph-name="five" unicode="5" horiz-adv-x="612"/>
<glyph d="M334 58q76 0 122.5 46t46.5 114v2q0 65 -48 107.5t-123 42.5q-76 0 -125.5 -46t-49.5 -107v-2q0 -67 50 -112t127 -45zM333 -12q-113 0 -184 71q-45 45 -66.5 107t-21.5 164v2q0 164 78.5 272t212.5 108q99 0 182 -62q19 -13 19 -33q0 -16 -11 -27t-27 -11q-12 0 -22 7 q-71 54 -145 54q-94 0 -150 -86t-55 -223q73 107 199 107q101 0 171.5 -59.5t70.5 -155.5v-2q0 -101 -72 -167t-179 -66z" glyph-name="six" unicode="6" horiz-adv-x="647"/>
<glyph d="M157 32q0 10 6 24l290 572h-353q-15 0 -26 10.5t-11 25.5t11 25.5t26 10.5h410q17 0 27.5 -9.5t10.5 -25.5q0 -15 -11 -35l-302 -607q-13 -28 -38 -28q-16 0 -28 10.5t-12 26.5z" glyph-name="seven" unicode="7" horiz-adv-x="596"/>
<glyph d="M315 59q84 0 133.5 38t49.5 93v2q0 58 -53 95.5t-130 37.5t-130 -37.5t-53 -95.5v-2q0 -55 50 -93t133 -38zM315 390q68 0 114 36t46 92v2q0 52 -46 86.5t-114 34.5q-69 0 -114.5 -34.5t-45.5 -86.5v-2q0 -56 46 -92t114 -36zM315 -10q-113 0 -188 55.5t-75 142.5v2 q0 60 39 104t105 68q-120 55 -120 161v2q0 79 70.5 132t168.5 53t168.5 -53t70.5 -132v-2q0 -106 -120 -161q66 -25 105 -68t39 -103v-2q0 -88 -75 -143.5t-188 -55.5z" glyph-name="eight" unicode="8" horiz-adv-x="630"/>
<glyph d="M316 323q77 0 125.5 47.5t48.5 110.5v2q0 68 -50 113.5t-128 45.5q-76 0 -122 -48t-46 -116v-2q0 -67 48 -110t124 -43zM295 -12q-102 0 -195 70q-18 13 -18 32q0 16 11 27t27 11q12 0 25 -8q73 -60 152 -60q93 0 150.5 83.5t57.5 214.5v9q-70 -112 -198 -112 q-108 0 -176 61t-68 156v2q0 101 71 169.5t181 68.5q112 0 184 -72q87 -87 87 -271v-2q0 -167 -81 -273t-210 -106z" glyph-name="nine" unicode="9" horiz-adv-x="647"/>
<glyph d="M80 63q0 20 13.5 33.5t34.5 13.5q20 0 33.5 -13.5t13.5 -33.5v-20q0 -20 -13.5 -34t-33.5 -14q-21 0 -34.5 14t-13.5 34v20zM80 475q0 20 13.5 33.5t34.5 13.5q20 0 33.5 -13.5t13.5 -33.5v-21q0 -20 -13.5 -33.5t-33.5 -13.5q-21 0 -34.5 13.5t-13.5 33.5v21z" glyph-name="colon" unicode=":" horiz-adv-x="255"/>
<glyph d="M50 -100q0 13 13 18q56 24 56 76v6q-39 9 -39 48v16q0 20 13 33t33 13q22 0 35.5 -15t13.5 -40v-19q0 -84 -36 -120q-15 -15 -35.5 -25.5t-32.5 -10.5q-21 0 -21 20zM80 475q0 20 13.5 33.5t34.5 13.5q20 0 33.5 -13.5t13.5 -33.5v-21q0 -20 -13.5 -33.5t-33.5 -13.5 q-21 0 -34.5 13.5t-13.5 33.5v21z" glyph-name="semicolon" unicode=";" horiz-adv-x="255"/>
<glyph d="M504 101q-6 0 -19 5l-395 201q-29 15 -29 43v4q0 28 29 43l395 201q10 5 21 5h2q13 0 21.5 -10t8.5 -24q0 -23 -23 -34l-367 -182l367 -184q23 -11 23 -34q0 -14 -9.5 -24t-24.5 -10z" glyph-name="less" unicode="&lt;" horiz-adv-x="625"/>
<glyph d="M113 432q-15 0 -26 10.5t-11 26.5q0 15 11 26t26 11h399q16 0 27 -11t11 -26q0 -16 -11 -26.5t-27 -10.5h-399zM113 198q-15 0 -26 10.5t-11 26.5q0 15 11 26t26 11h399q16 0 27 -11t11 -26q0 -16 -11 -26.5t-27 -10.5h-399z" glyph-name="equal" unicode="=" horiz-adv-x="625"/>
<glyph d="M121 603q5 0 20 -5l394 -201q30 -15 30 -43v-4q0 -28 -30 -43l-394 -201q-12 -5 -21 -5h-2q-13 0 -22 10t-9 24q0 22 23 34l367 182l-367 184q-23 12 -23 34q0 14 10 24t24 10z" glyph-name="greater" unicode="&gt;" horiz-adv-x="625"/>
<glyph d="M197 63q0 20 14 33.5t34 13.5t34 -13.5t14 -33.5v-20q0 -20 -14 -34t-34 -14t-34 14t-14 34v20zM248 193h-4q-10 0 -17.5 7.5t-8.5 19.5l-11 112q-1 14 7 23.5t22 11.5q81 6 127 41.5t46 97.5v2q0 55 -40 92.5t-106 37.5q-93 0 -165 -78q-13 -11 -27 -11q-15 0 -25.5 10 t-10.5 25t12 27q90 98 218 98q100 0 162 -56t62 -142v-2q0 -89 -58 -139.5t-150 -63.5l-7 -86q-3 -27 -26 -27z" glyph-name="question" unicode="?" horiz-adv-x="537"/>
<glyph d="M450 133q64 0 114 54.5t50 125.5q0 55 -34.5 91t-87.5 36q-65 0 -114.5 -53t-49.5 -129q0 -58 34 -91.5t88 -33.5zM499 -162q-190 0 -318 127.5t-128 308.5q0 180 127.5 309t310.5 129q181 0 308.5 -118.5t127.5 -277.5q0 -119 -55.5 -182t-131.5 -63q-53 0 -89 22.5 t-51 61.5q-71 -84 -165 -84q-75 0 -127 50.5t-52 131.5q0 103 71.5 176t159.5 73q99 0 146 -83l8 43q6 34 35 34q14 0 24 -10t10 -25q0 -1 -0.5 -3.5t-0.5 -3.5l-36 -202q-7 -39 -7 -61q0 -38 22.5 -59.5t62.5 -21.5q58 0 99 53t41 153q0 142 -116.5 252t-283.5 110 q-171 0 -286.5 -118t-115.5 -286q0 -169 116 -285.5t294 -116.5q130 0 241 64q4 2 10 2t10.5 -5t4.5 -11t-8 -14q-120 -70 -258 -70z" glyph-name="at" unicode="@" horiz-adv-x="980"/>
<glyph d="M229 257h322l-161 358zM51 31q0 11 5 21l284 621q16 35 50 35h4q35 0 49 -35l284 -620q5 -12 5 -20q0 -16 -11 -27t-27 -11q-26 0 -39 29l-73 161h-384l-73 -163q-11 -27 -38 -27q-15 0 -25.5 10.5t-10.5 25.5z" glyph-name="A" unicode="A" horiz-adv-x="784"/>
<glyph d="M177 71h235q80 0 126 33.5t46 91.5v2q0 58 -47.5 89t-138.5 31h-221v-247zM177 388h207q73 0 117 32.5t44 92.5v2q0 53 -40.5 83.5t-114.5 30.5h-213v-241zM99 40v620q0 16 11.5 28t27.5 12h259q119 0 183 -62q45 -47 45 -112v-2q0 -114 -111 -162q150 -45 150 -169v-2 q0 -89 -69 -140t-185 -51h-272q-16 0 -27.5 12t-11.5 28z" glyph-name="B" unicode="B" horiz-adv-x="722"/>
<glyph d="M419 -12q-150 0 -250.5 104t-100.5 256v2q0 151 101 256.5t253 105.5q79 0 137.5 -23t112.5 -68q16 -14 16 -32q0 -16 -12 -27.5t-28 -11.5q-12 0 -26 9q-90 80 -201 80q-116 0 -193.5 -83t-77.5 -204v-2q0 -122 78 -205.5t193 -83.5t208 85q11 11 25 11q15 0 26.5 -11.5 t11.5 -26.5q0 -17 -13 -28q-113 -103 -260 -103z" glyph-name="C" unicode="C" horiz-adv-x="738"/>
<glyph d="M178 73h164q130 0 210 78t80 197v2q0 119 -80 198t-210 79h-164v-554zM99 40v620q0 16 11.5 28t27.5 12h204q163 0 267.5 -99.5t104.5 -248.5v-2q0 -150 -104.5 -250t-267.5 -100h-204q-16 0 -27.5 12t-11.5 28z" glyph-name="D" unicode="D" horiz-adv-x="782"/>
<glyph d="M138 0q-16 0 -27.5 12t-11.5 28v620q0 16 11.5 28t27.5 12h435q15 0 25.5 -10.5t10.5 -25.5t-10.5 -25.5t-25.5 -10.5h-395v-239h350q15 0 25.5 -11t10.5 -25q0 -15 -10.5 -25.5t-25.5 -10.5h-350v-245h400q15 0 25.5 -10.5t10.5 -25.5t-10.5 -25.5t-25.5 -10.5h-440z " glyph-name="E" unicode="E" horiz-adv-x="670"/>
<glyph d="M99 35v625q0 16 11.5 28t27.5 12h433q15 0 25.5 -10.5t10.5 -25.5t-10.5 -26t-25.5 -11h-393v-250h348q15 0 25.5 -10.5t10.5 -25.5t-10.5 -25.5t-25.5 -10.5h-348v-270q0 -17 -12 -28.5t-28 -11.5t-27.5 12t-11.5 28z" glyph-name="F" unicode="F" horiz-adv-x="656"/>
<glyph d="M424 -12q-161 0 -258.5 103t-97.5 257v2q0 148 99 255t252 107q137 0 239 -75q16 -12 16 -32q0 -16 -11.5 -28t-27.5 -12q-12 0 -25 10q-84 64 -194 64q-114 0 -190 -84t-76 -203v-2q0 -127 75.5 -209t201.5 -82q116 0 202 70v174h-188q-14 0 -24.5 10.5t-10.5 24.5 q0 15 10.5 25.5t24.5 10.5h225q16 0 27.5 -12t11.5 -28v-213q0 -30 -27 -48q-116 -85 -254 -85z" glyph-name="G" unicode="G" horiz-adv-x="784"/>
<glyph d="M99 35v630q0 16 11.5 28t27.5 12t28 -11.5t12 -28.5v-276h404v276q0 17 12 28.5t28 11.5t27.5 -12t11.5 -28v-630q0 -16 -11.5 -28t-27.5 -12t-28 11.5t-12 28.5v280h-404v-280q0 -17 -12 -28.5t-28 -11.5t-27.5 12t-11.5 28z" glyph-name="H" unicode="H" horiz-adv-x="760"/>
<glyph d="M106 35v630q0 16 11.5 28t27.5 12q17 0 28.5 -11.5t11.5 -28.5v-630q0 -17 -11.5 -28.5t-28.5 -11.5q-16 0 -27.5 12t-11.5 28z" glyph-name="I" unicode="I" horiz-adv-x="291"/>
<glyph d="M247 -10q-124 0 -198 100q-11 11 -11 27t11.5 27.5t27.5 11.5t28 -14q30 -41 63.5 -60t80.5 -19q61 0 99 43.5t38 124.5v434q0 17 12 28.5t28 11.5t27.5 -11.5t11.5 -28.5v-433q0 -120 -64 -184q-60 -58 -154 -58z" glyph-name="J" unicode="J" horiz-adv-x="553"/>
<glyph d="M99 35v630q0 16 11.5 28t27.5 12t28 -11.5t12 -28.5v-383l399 409q16 14 31 14t26.5 -12t11.5 -27t-13 -28l-248 -246l266 -328q11 -14 11 -29q0 -16 -12 -28t-28 -12q-19 0 -32 18l-261 325l-151 -151v-152q0 -17 -12 -28.5t-28 -11.5t-27.5 12t-11.5 28z" glyph-name="K" unicode="K" horiz-adv-x="714"/>
<glyph d="M99 40v625q0 16 11.5 28t27.5 12t28 -11.5t12 -28.5v-592h363q15 0 25.5 -11t10.5 -26t-10.5 -25.5t-25.5 -10.5h-403q-16 0 -27.5 12t-11.5 28z" glyph-name="L" unicode="L" horiz-adv-x="619"/>
<glyph d="M99 34v630q0 16 11.5 27.5t27.5 11.5h9q23 0 37 -21l250 -376l250 376q13 21 37 21h9q16 0 27.5 -11.5t11.5 -27.5v-629q0 -16 -11.5 -28t-27.5 -12t-28 12t-12 28v522l-224 -329q-14 -20 -33 -20q-20 0 -34 20l-223 328v-522q0 -16 -11 -27.5t-28 -11.5q-16 0 -27 11.5 t-11 27.5z" glyph-name="M" unicode="M" horiz-adv-x="868"/>
<glyph d="M99 34v630q0 16 11.5 27.5t27.5 11.5h11q22 0 40 -23l425 -542v528q0 16 11.5 27.5t27.5 11.5t27 -11.5t11 -27.5v-632q0 -16 -10 -26.5t-26 -10.5h-4q-20 0 -41 24l-434 555v-542q0 -16 -11.5 -27.5t-27.5 -11.5t-27 11.5t-11 27.5z" glyph-name="N" unicode="N" horiz-adv-x="790"/>
<glyph d="M426 61q119 0 196.5 83t77.5 204v2q0 121 -78.5 205t-197.5 84t-196.5 -83t-77.5 -204v-2q0 -121 78.5 -205t197.5 -84zM424 -12q-156 0 -256 105.5t-100 254.5v2q0 149 101 255.5t257 106.5t256 -105.5t100 -254.5v-2q0 -149 -101 -255.5t-257 -106.5z" glyph-name="O" unicode="O" horiz-adv-x="850"/>
<glyph d="M178 319h173q87 0 139.5 42.5t52.5 111.5v2q0 73 -50.5 112.5t-137.5 39.5h-177v-308zM99 35v625q0 16 11.5 28t27.5 12h223q119 0 190.5 -59.5t71.5 -162.5v-2q0 -109 -78.5 -169t-196.5 -60h-170v-212q0 -17 -12 -28.5t-28 -11.5t-27.5 12t-11.5 28z" glyph-name="P" unicode="P" horiz-adv-x="668"/>
<glyph d="M482 204q-17 14 -17 32q0 16 11.5 28t27.5 12q15 0 30 -13l107 -98q59 78 59 183v2q0 121 -78.5 205t-197.5 84t-196.5 -83t-77.5 -204v-2q0 -121 78.5 -205t197.5 -84q93 0 162 52zM424 -12q-156 0 -256 105.5t-100 254.5v2q0 149 101 255.5t257 106.5t256 -105.5 t100 -254.5v-2q0 -133 -83 -235l66 -55q16 -14 16 -33q0 -16 -11.5 -27.5t-27.5 -11.5q-15 0 -30 13l-68 61q-95 -74 -220 -74z" glyph-name="Q" unicode="Q" horiz-adv-x="850"/>
<glyph d="M178 343h215q80 0 130 39t50 105v2q0 65 -47.5 101.5t-131.5 36.5h-216v-284zM99 35v625q0 16 11.5 28t27.5 12h262q129 0 199 -70q54 -54 54 -138v-2q0 -83 -50.5 -135t-136.5 -68l174 -224q13 -15 13 -29q0 -16 -12.5 -27.5t-27.5 -11.5q-21 0 -37 21l-197 256h-201 v-237q0 -17 -12 -28.5t-28 -11.5t-27.5 12t-11.5 28z" glyph-name="R" unicode="R" horiz-adv-x="723"/>
<glyph d="M339 -10q-147 0 -265 94q-15 10 -15 30q0 16 11 27.5t27 11.5q15 0 24 -9q98 -83 221 -83q70 0 113 33.5t43 85.5v2q0 51 -38 81t-144 52q-124 27 -179.5 72.5t-55.5 129.5v2q0 83 65 137t165 54q127 0 223 -69q17 -13 17 -32q0 -16 -11 -27t-27 -11q-13 0 -23 7 q-84 61 -181 61q-67 0 -108 -32.5t-41 -80.5v-2q0 -52 39.5 -82t150.5 -54q119 -26 173.5 -72.5t54.5 -125.5v-2q0 -89 -67 -143.5t-172 -54.5z" glyph-name="S" unicode="S" horiz-adv-x="640"/>
<glyph d="M284 35v592h-203q-15 0 -26 10.5t-11 25.5t11 26t26 11h486q15 0 26 -11t11 -26t-11 -25.5t-26 -10.5h-203v-592q0 -17 -12 -28.5t-28 -11.5t-28 11.5t-12 28.5z" glyph-name="T" unicode="T" horiz-adv-x="648"/>
<glyph d="M379 -11q-133 0 -212 79.5t-79 224.5v372q0 16 11.5 28t27.5 12q17 0 28.5 -11.5t11.5 -28.5v-367q0 -112 57 -174t157 -62q99 0 155 59t56 172v372q0 17 12 28.5t28 11.5t27.5 -12t11.5 -28v-366q0 -150 -79 -230t-213 -80z" glyph-name="U" unicode="U" horiz-adv-x="759"/>
<glyph d="M370 -8q-33 0 -46 33l-270 623q-4 8 -4 18q0 15 12 27t28 12q29 0 41 -30l242 -580l243 582q14 28 39 28q16 0 27.5 -11.5t11.5 -26.5q0 -9 -3 -16l-271 -626q-15 -33 -46 -33h-4z" glyph-name="V" unicode="V" horiz-adv-x="744"/>
<glyph d="M281 25l-224 622q-4 12 -4 18q0 16 12.5 28t28.5 12q30 0 41 -33l193 -556l183 558q10 31 39 31h5q29 0 39 -31l183 -558l194 558q10 31 38 31q16 0 28 -12t12 -27q0 -4 -5 -19l-224 -622q-12 -34 -41 -34h-6q-29 0 -41 34l-182 538l-181 -538q-12 -34 -41 -34h-6 q-30 0 -41 34z" glyph-name="W" unicode="W" horiz-adv-x="1101"/>
<glyph d="M66 32q0 15 11 28l234 297l-222 280q-13 17 -13 30q0 15 11.5 26.5t27.5 11.5q18 0 35 -20l211 -274l208 271q19 23 38 23q15 0 25.5 -10.5t10.5 -26.5q0 -15 -11 -28l-223 -282l231 -295q13 -15 13 -29q0 -16 -11.5 -27.5t-27.5 -11.5q-18 0 -35 20l-221 287l-218 -284 q-19 -23 -39 -23q-14 0 -24.5 11t-10.5 26z" glyph-name="X" unicode="X" horiz-adv-x="719"/>
<glyph d="M314 35v240l-260 364q-9 14 -9 27q0 16 12 27.5t29 11.5q21 0 38 -24l231 -333l233 333q17 24 37 24q16 0 27.5 -11.5t11.5 -27.5q0 -11 -11 -29l-259 -360v-242q0 -17 -12 -28.5t-28 -11.5t-28 11.5t-12 28.5z" glyph-name="Y" unicode="Y" horiz-adv-x="708"/>
<glyph d="M104 0q-15 0 -26 10t-11 24v2q0 18 14 35l439 558h-406q-15 0 -25.5 10.5t-10.5 24.5q0 15 10.5 25.5t25.5 10.5h477q14 0 25 -10.5t11 -23.5v-2q0 -18 -14 -35l-439 -558h422q15 0 25.5 -10.5t10.5 -24.5q0 -15 -10.5 -25.5t-25.5 -10.5h-492z" glyph-name="Z" unicode="Z" horiz-adv-x="693"/>
<glyph d="M94 -91v752q0 16 11.5 27.5t27.5 11.5h222q12 0 21 -9t9 -21t-9 -21t-21 -9h-188v-710h188q12 0 21 -9t9 -21t-9 -21t-21 -9h-222q-16 0 -27.5 11.5t-11.5 27.5z" glyph-name="bracketleft" unicode="[" horiz-adv-x="439"/>
<glyph d="M512 -102q0 -13 -9.5 -22t-22.5 -9q-19 0 -29 20l-436 868q-4 8 -4 17q0 13 9 22t22 9q20 0 30 -20l436 -868q4 -8 4 -17z" glyph-name="backslash" unicode="\" horiz-adv-x="508"/>
<glyph d="M346 661v-752q0 -16 -11.5 -27.5t-27.5 -11.5h-222q-13 0 -22 9t-9 21t9 21t22 9h188v710h-188q-13 0 -22 9t-9 21t9 21t22 9h222q16 0 27.5 -11.5t11.5 -27.5z" glyph-name="bracketright" unicode="]" horiz-adv-x="439"/>
<glyph d="M249 647l-101 -133q-20 -25 -50 -25q-8 0 -13.5 4.5t-5.5 9.5q0 9 7 19l119 159q20 25 41 25h8q21 0 41 -25l118 -159q8 -9 8 -19q0 -14 -20 -14q-31 0 -51 25z" glyph-name="asciicircum" unicode="^"/>
<glyph d="M-2 -160q-13 0 -22.5 9.5t-9.5 22.5t9.5 22t22.5 9h604q13 0 22.5 -9t9.5 -22t-9.5 -22.5t-22.5 -9.5h-604z" glyph-name="underscore" unicode="_" horiz-adv-x="600"/>
<glyph d="M289 591q-28 0 -47 19l-75 71q-14 14 -14 23q0 10 18 20t36 10q21 0 36 -23l60 -91q5 -7 5 -15q0 -14 -19 -14z" glyph-name="grave" unicode="`"/>
<glyph d="M255 50q72 0 122.5 39.5t50.5 100.5v50q-76 22 -152 22q-72 0 -111.5 -29t-39.5 -78v-2q0 -47 37.5 -75t92.5 -28zM240 -11q-78 0 -135.5 43t-57.5 118v2q0 80 60 123.5t161 43.5q81 0 159 -22v18q0 69 -40 105t-114 36q-69 0 -134 -29q-7 -3 -14 -3q-14 0 -24 10t-10 23 q0 24 21 32q81 35 169 35q110 0 167 -57q53 -53 53 -151v-283q0 -16 -10.5 -27t-26.5 -11t-26.5 10.5t-10.5 25.5v47q-68 -89 -187 -89z" glyph-name="a" unicode="a" horiz-adv-x="579"/>
<glyph d="M347 58q78 0 130 54t52 145v2q0 89 -53 144.5t-129 55.5q-75 0 -131 -56.5t-56 -142.5v-2q0 -87 56 -143.5t131 -56.5zM86 34v662q0 16 11 27.5t27 11.5t27.5 -11.5t11.5 -27.5v-283q78 115 198 115q99 0 173 -73t74 -195v-2q0 -121 -74 -195t-173 -74q-122 0 -198 110 v-65q0 -16 -11 -27.5t-27 -11.5t-27.5 11.5t-11.5 27.5z" glyph-name="b" unicode="b" horiz-adv-x="664"/>
<glyph d="M319 -12q-112 0 -188.5 79t-76.5 189v2q0 111 76.5 190.5t188.5 79.5q108 0 190 -75q12 -10 12 -27q0 -16 -11 -26.5t-26 -10.5q-14 0 -25 9q-67 62 -141 62q-78 0 -131.5 -58t-53.5 -142v-2q0 -84 54.5 -142.5t135.5 -58.5q77 0 144 63q10 10 22 10q14 0 24.5 -10.5 t10.5 -24.5t-10 -24q-83 -83 -195 -83z" glyph-name="c" unicode="c" horiz-adv-x="571"/>
<glyph d="M317 459q-78 0 -130 -54t-52 -145v-2q0 -89 53.5 -144.5t128.5 -55.5t131 56.5t56 143.5v2q0 86 -56 142.5t-131 56.5zM578 696v-662q0 -16 -11 -27.5t-27 -11.5t-27.5 11.5t-11.5 27.5v70q-78 -115 -198 -115q-99 0 -173 73t-74 195v2q0 121 74 195t173 74 q122 0 198 -110v278q0 17 11 28t27 11q17 0 28 -11.5t11 -27.5z" glyph-name="d" unicode="d" horiz-adv-x="664"/>
<glyph d="M507 66q-81 -78 -195 -78q-109 0 -183.5 75.5t-74.5 193.5v2q0 113 71 191t177 78q110 0 175 -77t65 -185q0 -15 -10.5 -25.5t-25.5 -10.5h-374q8 -82 59.5 -128.5t122.5 -46.5q84 0 149 60q11 9 22 9q14 0 24 -9.5t10 -23.5q0 -15 -12 -25zM132 287h333q-6 76 -49 126 t-116 50q-67 0 -113.5 -50t-54.5 -126z" glyph-name="e" unicode="e" horiz-adv-x="592"/>
<glyph d="M115 34v415h-42q-14 0 -23.5 10t-9.5 24q0 13 10 23t23 10h42v45q0 88 45 133q40 40 111 40q35 0 61 -6q28 -6 28 -33q0 -14 -9.5 -23.5t-23.5 -9.5h-4q-32 5 -42 5q-90 0 -90 -110v-42h134q14 0 24 -9.5t10 -23.5t-10 -23.5t-24 -9.5h-133v-415q0 -16 -11 -27.5 t-27 -11.5t-27.5 11.5t-11.5 27.5z" glyph-name="f" unicode="f" horiz-adv-x="367"/>
<glyph d="M314 108q76 0 133 49.5t57 125.5v2q0 77 -56.5 126t-133.5 49q-75 0 -127 -48t-52 -126v-2q0 -76 52.5 -126t126.5 -50zM315 -162q-117 0 -216 61q-20 10 -20 32q0 13 11 23.5t24 10.5q9 0 17 -5q84 -56 183 -56q87 0 137.5 47.5t50.5 136.5v61q-82 -109 -203 -109 q-98 0 -170.5 67.5t-72.5 174.5v2q0 109 73 176.5t170 67.5q124 0 202 -104v59q0 16 11 27.5t27 11.5t27.5 -11.5t11.5 -27.5v-393q0 -117 -66 -183q-69 -69 -197 -69z" glyph-name="g" unicode="g" horiz-adv-x="664"/>
<glyph d="M86 34v662q0 16 11 27.5t27 11.5t27.5 -11.5t11.5 -27.5v-269q61 101 177 101q92 0 145 -56.5t53 -150.5v-287q0 -16 -11 -27.5t-27 -11.5t-27.5 11.5t-11.5 27.5v268q0 73 -37.5 114.5t-105.5 41.5q-67 0 -111 -45t-44 -117v-262q0 -17 -11 -28t-27 -11q-17 0 -28 11.5 t-11 27.5z" glyph-name="h" unicode="h" horiz-adv-x="616"/>
<glyph d="M93 34v449q0 16 11 27.5t27 11.5q17 0 28 -11t11 -28v-449q0 -17 -11 -28t-27 -11t-27.5 11.5t-11.5 27.5zM86 666v13q0 18 13 29.5t32 11.5q20 0 33 -11.5t13 -29.5v-13q0 -18 -13 -29.5t-33 -11.5q-19 0 -32 11.5t-13 29.5z" glyph-name="i" unicode="i" horiz-adv-x="263"/>
<glyph d="M47 -163q-13 0 -18 1q-39 2 -39 33q0 13 9.5 22.5t22.5 9.5q3 0 9 -0.5t8 -0.5q54 0 54 66v515q0 16 11 27.5t27 11.5q17 0 28 -11t11 -28v-513q0 -66 -32.5 -99.5t-90.5 -33.5zM86 666v13q0 18 13 29.5t32 11.5q20 0 33 -11.5t13 -29.5v-13q0 -18 -13 -29.5t-33 -11.5 q-19 0 -32 11.5t-13 29.5z" glyph-name="j" unicode="j" horiz-adv-x="263"/>
<glyph d="M86 34v662q0 16 11 27.5t27 11.5t27.5 -11.5t11.5 -27.5v-474l280 285q13 15 30 15q15 0 25 -10.5t10 -25.5t-15 -30l-169 -166l185 -233q10 -13 10 -26q0 -16 -10.5 -26t-26.5 -10q-19 0 -33 18l-179 226l-107 -106v-99q0 -17 -11 -28t-27 -11q-17 0 -28 11.5t-11 27.5z " glyph-name="k" unicode="k" horiz-adv-x="568"/>
<glyph d="M93 34v662q0 16 11 27.5t27 11.5t27.5 -11.5t11.5 -27.5v-662q0 -17 -11 -28t-27 -11t-27.5 11.5t-11.5 27.5z" glyph-name="l" unicode="l" horiz-adv-x="263"/>
<glyph d="M86 34v449q0 16 11 27.5t27 11.5t27.5 -11t11.5 -28v-53q65 98 167 98q116 0 166 -103q67 103 182 103q89 0 140.5 -56t51.5 -152v-286q0 -16 -11 -27.5t-27 -11.5t-27.5 11.5t-11.5 27.5v268q0 75 -35.5 115.5t-98.5 40.5q-61 0 -101.5 -43t-40.5 -117v-264 q0 -16 -11.5 -27.5t-27.5 -11.5t-27 11.5t-11 27.5v270q0 72 -35.5 113t-97.5 41t-103 -46t-41 -117v-261q0 -17 -11 -28t-27 -11q-17 0 -28 11.5t-11 27.5z" glyph-name="m" unicode="m" horiz-adv-x="951"/>
<glyph d="M86 34v449q0 16 11 27.5t27 11.5t27.5 -11t11.5 -28v-56q61 101 177 101q92 0 145 -56.5t53 -150.5v-287q0 -16 -11 -27.5t-27 -11.5t-27.5 11.5t-11.5 27.5v268q0 73 -37.5 114.5t-105.5 41.5q-67 0 -111 -45t-44 -117v-262q0 -17 -11 -28t-27 -11q-17 0 -28 11.5 t-11 27.5z" glyph-name="n" unicode="n" horiz-adv-x="616"/>
<glyph d="M324 57q83 0 136.5 58t53.5 141v2q0 84 -55.5 143t-136.5 59q-82 0 -135.5 -58.5t-53.5 -141.5v-2q0 -84 55 -142.5t136 -58.5zM322 -12q-115 0 -191.5 78.5t-76.5 189.5v2q0 111 77.5 190.5t192.5 79.5t192 -78.5t77 -189.5v-2q0 -111 -78 -190.5t-193 -79.5z" glyph-name="o" unicode="o" horiz-adv-x="646"/>
<glyph d="M347 58q78 0 130 54t52 145v2q0 89 -53 144.5t-129 55.5q-75 0 -131 -56.5t-56 -142.5v-2q0 -87 56 -143.5t131 -56.5zM86 -126v609q0 16 11 27.5t27 11.5t27.5 -11t11.5 -28v-70q78 115 198 115q99 0 173 -73t74 -195v-2q0 -121 -74 -195t-173 -74q-122 0 -198 110v-225 q0 -17 -11 -28t-27 -11q-17 0 -28 11.5t-11 27.5z" glyph-name="p" unicode="p" horiz-adv-x="664"/>
<glyph d="M317 459q-78 0 -130 -54t-52 -145v-2q0 -89 53.5 -144.5t128.5 -55.5t131 56.5t56 143.5v2q0 86 -56 142.5t-131 56.5zM578 483v-609q0 -16 -11 -27.5t-27 -11.5t-27.5 11.5t-11.5 27.5v230q-78 -115 -198 -115q-99 0 -173 73t-74 195v2q0 121 74 195t173 74 q122 0 198 -110v65q0 16 11 27.5t27 11.5t27.5 -11.5t11.5 -27.5z" glyph-name="q" unicode="q" horiz-adv-x="664"/>
<glyph d="M86 34v449q0 16 11 27.5t27 11.5t27.5 -11t11.5 -28v-97q28 63 78 100.5t100 37.5q17 0 27.5 -11t10.5 -28q0 -16 -9.5 -26.5t-24.5 -12.5q-80 -10 -131 -70t-51 -166v-176q0 -16 -11 -27.5t-27 -11.5q-17 0 -28 11.5t-11 27.5z" glyph-name="r" unicode="r" horiz-adv-x="405"/>
<glyph d="M257 -10q-108 0 -199 65q-14 10 -14 28q0 14 10 23.5t24 9.5q12 0 19 -6q81 -55 164 -55q47 0 77 22.5t30 59.5v2q0 35 -32.5 54t-96.5 37q-39 11 -62 20t-52 25.5t-43 41.5t-14 59v2q0 66 49.5 107t126.5 41q84 0 165 -44q19 -11 19 -32q0 -14 -10 -23.5t-24 -9.5 q-9 0 -17 4q-70 40 -135 40q-45 0 -72.5 -21t-27.5 -54v-2q0 -14 8 -26t18 -20t31.5 -17t34.5 -13t41 -13q29 -9 48.5 -16t44 -19.5t39 -27t24.5 -36.5t10 -49v-2q0 -72 -52 -113.5t-132 -41.5z" glyph-name="s" unicode="s" horiz-adv-x="498"/>
<glyph d="M259 -9q-67 0 -106.5 35.5t-39.5 110.5v312h-42q-13 0 -23.5 10.5t-10.5 23.5q0 14 10 24t24 10h42v122q0 16 11 27.5t27 11.5t27.5 -11.5t11.5 -27.5v-122h134q14 0 24.5 -10t10.5 -24t-10.5 -24t-24.5 -10h-134v-302q0 -86 87 -86q16 0 31 3l16 4q14 0 23.5 -10 t9.5 -23q0 -22 -22 -30q-34 -14 -76 -14z" glyph-name="t" unicode="t" horiz-adv-x="404"/>
<glyph d="M529 483v-449q0 -16 -11 -27.5t-27 -11.5t-27 11.5t-11 27.5v56q-63 -101 -177 -101q-92 0 -145 56.5t-53 150.5v287q0 17 11 28t27 11t27.5 -11.5t11.5 -27.5v-268q0 -73 37.5 -114.5t105.5 -41.5q67 0 111 45t44 117v262q0 17 11 28t27 11t27 -11.5t11 -27.5z" glyph-name="u" unicode="u" horiz-adv-x="616"/>
<glyph d="M337 25q-15 -33 -43 -33h-4q-29 0 -44 33l-194 438q-5 17 -5 21q0 15 11.5 26.5t27.5 11.5q28 0 39 -30l167 -404l170 406q9 28 36 28q16 0 27 -11t11 -27q0 -9 -4 -19z" glyph-name="v" unicode="v" horiz-adv-x="584"/>
<glyph d="M255 -8q-31 0 -43 35l-157 437q-5 15 -5 21q0 15 11 26t28 11q29 0 39 -32l130 -388l131 389q10 31 38 31h4q30 0 40 -31l130 -389l132 390q9 30 37 30q16 0 27 -10.5t11 -25.5q0 -6 -5 -21l-158 -438q-12 -35 -42 -35h-3q-31 0 -42 35l-129 377l-130 -377 q-11 -35 -42 -35h-2z" glyph-name="w" unicode="w" horiz-adv-x="858"/>
<glyph d="M60 30q0 15 10 25l169 208l-159 195q-12 14 -12 28q0 16 10.5 26t25.5 10q19 0 34 -18l149 -189l148 188q16 19 33 19q15 0 25 -10t10 -25q0 -13 -10 -25l-161 -197l168 -206q11 -14 11 -28q0 -16 -10.5 -26t-25.5 -10q-19 0 -34 18l-157 199l-156 -198q-16 -19 -33 -19 q-15 0 -25 10.5t-10 24.5z" glyph-name="x" unicode="x" horiz-adv-x="571"/>
<glyph d="M161 -163q-42 0 -85 15q-24 10 -24 33q0 14 10 23.5t23 9.5q7 0 19 -4q27 -9 56 -9q35 0 58.5 21.5t45.5 70.5l4 8l-216 458q-5 12 -5 21q0 16 11.5 27t27.5 11q27 0 39 -30l180 -406l160 407q11 29 37 29q16 0 27 -11t11 -27q0 -7 -4 -19l-202 -482 q-33 -79 -73.5 -112.5t-99.5 -33.5z" glyph-name="y" unicode="y" horiz-adv-x="587"/>
<glyph d="M93 0q-15 0 -26 9t-11 22v2q0 18 16 35l327 384h-302q-14 0 -23.5 9.5t-9.5 22.5q0 14 10 23.5t23 9.5h369q16 0 26.5 -9t10.5 -22v-2q0 -18 -16 -35l-327 -384h315q13 0 23 -9.5t10 -22.5t-10 -23t-23 -10h-382z" glyph-name="z" unicode="z" horiz-adv-x="556"/>
<glyph d="M398 -137q-116 24 -157.5 70t-41.5 128q0 7 0.5 37t0.5 39q0 60 -25 89.5t-89 30.5q-35 2 -35 30t35 30q64 1 89 30.5t25 89.5q0 9 -0.5 39t-0.5 37q0 82 41.5 128t157.5 70q2 1 7 1q12 0 19.5 -7t7.5 -19q0 -19 -18 -26q-91 -25 -116.5 -56.5t-25.5 -100.5 q0 -10 0.5 -37t0.5 -38q0 -60 -26.5 -92.5t-77.5 -48.5q53 -17 78.5 -49t25.5 -92q0 -11 -0.5 -38t-0.5 -37q0 -69 25.5 -100.5t116.5 -56.5q18 -7 18 -26q0 -12 -7.5 -19t-19.5 -7q-5 0 -7 1z" glyph-name="braceleft" unicode="{" horiz-adv-x="483"/>
<glyph d="M119 -100v870q0 14 9.5 23.5t23.5 9.5q13 0 22.5 -10t9.5 -23v-870q0 -13 -9.5 -23t-22.5 -10q-14 0 -23.5 9.5t-9.5 23.5z" glyph-name="bar" unicode="|" horiz-adv-x="303"/>
<glyph d="M85 711q116 -24 157.5 -70t41.5 -128q0 -7 -0.5 -37t-0.5 -39q0 -61 25 -90t89 -30q34 -2 34 -30t-34 -30q-64 -1 -89 -30t-25 -90q0 -9 0.5 -39t0.5 -37q0 -82 -41.5 -128t-157.5 -70q-3 -1 -8 -1q-11 0 -18.5 7t-7.5 19q0 19 18 26q90 25 116 56.5t26 100.5 q0 10 -0.5 37t-0.5 38q0 60 26.5 92.5t77.5 48.5q-53 17 -78.5 49t-25.5 92q0 11 0.5 38t0.5 37q0 69 -26 100.5t-116 56.5q-18 7 -18 26q0 12 7.5 19t18.5 7q5 0 8 -1z" glyph-name="braceright" unicode="}" horiz-adv-x="483"/>
<glyph d="M126 251q-8 -16 -24 -16q-10 0 -17.5 6.5t-7.5 16.5t3 16q15 44 35.5 63t52.5 19q23 0 70.5 -20.5t63.5 -20.5q28 0 45 36q10 16 24 16q11 0 18 -6.5t7 -16.5q0 -8 -2 -16q-28 -82 -88 -82q-24 0 -71 20.5t-63 20.5q-29 0 -46 -36z" glyph-name="asciitilde" unicode="~" horiz-adv-x="474"/>
<glyph glyph-name="uni00A0" unicode=" " horiz-adv-x="300"/>
<glyph d="M183 637q0 -20 -13.5 -33.5t-33.5 -13.5q-21 0 -34.5 13.5t-13.5 33.5v21q0 20 13.5 33.5t34.5 13.5q20 0 33.5 -13.5t13.5 -33.5v-21zM159 483l23 -454q1 -14 -7.5 -23t-21.5 -9h-35q-13 0 -21.5 9.5t-7.5 22.5l23 454q2 23 24 23q9 0 15.5 -6.5t7.5 -16.5z" glyph-name="exclamdown" unicode="¡" horiz-adv-x="271"/>
<glyph d="M136 355q0 -63 31 -113t83 -73l74 387h-3q-78 0 -131.5 -58t-53.5 -141v-2zM219 29l14 71q-78 28 -126.5 97t-48.5 156v2q0 111 77 190.5t188 79.5h13l11 60q6 26 32 26q13 0 22 -9.5t9 -22.5q0 -5 -1 -8l-11 -56q59 -16 116 -66q13 -13 13 -28q0 -16 -10.5 -26.5 t-25.5 -10.5t-25 10q-45 40 -85 53l-76 -392q7 -1 21 -1q79 0 145 63q10 10 24 10q13 0 23 -10t10 -24q0 -15 -11 -24q-82 -84 -195 -84q-18 0 -27 1l-14 -71q-6 -26 -31 -26q-13 0 -22.5 9.5t-9.5 22.5q0 5 1 8z" glyph-name="cent" unicode="¢" horiz-adv-x="581"/>
<glyph d="M63 25q0 19 20 25l68 17v228h-53q-14 0 -24.5 10t-10.5 24t10.5 24.5t24.5 10.5h53v108q0 115 63 178q60 60 158 60q120 0 197 -88q12 -14 12 -29q0 -16 -11 -27t-28 -11q-16 0 -29 13q-30 34 -62.5 51.5t-79.5 17.5q-59 0 -98 -37q-43 -45 -43 -128v-108h249 q14 0 24.5 -10.5t10.5 -24.5t-10.5 -24t-24.5 -10h-249v-225h324q14 0 25 -10.5t11 -24.5q0 -15 -10.5 -25t-25.5 -10h-465q-11 0 -18.5 7t-7.5 18z" glyph-name="sterling" unicode="£" horiz-adv-x="644"/>
<glyph d="M381 266v-88h179q12 0 21.5 -9t9.5 -22t-9.5 -22t-21.5 -9h-179v-82q0 -16 -11 -27.5t-27 -11.5t-27 11.5t-11 27.5v82h-179q-12 0 -21.5 9t-9.5 22t9.5 22t21.5 9h179v88h-179q-12 0 -21.5 9t-9.5 22t9.5 22t21.5 9h154l-219 311q-9 15 -9 28q0 15 11.5 26.5t27.5 11.5 q23 0 37 -24l216 -322l217 323q16 23 37 23q15 0 26 -10.5t11 -26.5q0 -11 -10 -29l-221 -311h156q12 0 21.5 -9t9.5 -22t-9.5 -22t-21.5 -9h-179z" glyph-name="yen" unicode="¥" horiz-adv-x="686"/>
<glyph d="M387 263q48 0 78.5 20.5t30.5 48.5v2q0 26 -31.5 47t-110.5 40q-65 16 -109 16q-48 0 -78.5 -20.5t-30.5 -48.5v-2q0 -26 31.5 -47t110.5 -40q64 -16 109 -16zM328 -10q-122 0 -212 78q-12 10 -12 27q0 15 10.5 25t24.5 10q13 0 25 -10q72 -64 166 -64q50 0 76.5 18.5 t26.5 47.5v2q0 28 -36.5 49.5t-126.5 42.5q-114 27 -161 59t-47 83v2q0 45 36 74.5t96 39.5q-74 38 -74 101v2q0 60 50 96.5t134 36.5q122 0 212 -78q12 -10 12 -27q0 -15 -10.5 -25t-24.5 -10q-13 0 -25 10q-72 64 -166 64q-50 0 -76.5 -18t-26.5 -48v-2q0 -28 35.5 -49 t127.5 -43q115 -27 161.5 -58.5t46.5 -83.5v-2q0 -44 -36 -74t-96 -40q74 -36 74 -101v-2q0 -60 -50 -96.5t-134 -36.5z" glyph-name="section" unicode="§" horiz-adv-x="632"/>
<glyph d="M161 695q20 0 33.5 -13t13.5 -32v-15q0 -19 -13.5 -32t-33.5 -13t-33.5 13t-13.5 32v15q0 19 13.5 32t33.5 13zM339 695q20 0 33.5 -13t13.5 -32v-15q0 -19 -13.5 -32t-33.5 -13t-33.5 13t-13.5 32v15q0 19 13.5 32t33.5 13z" glyph-name="dieresis" unicode="¨"/>
<glyph d="M419 163q-79 0 -132.5 56t-53.5 135v2q0 79 54 135t134 56q73 0 129 -47q12 -10 12 -23q0 -11 -8.5 -19t-19.5 -8q-7 0 -19 8q-46 39 -95 39q-56 0 -93.5 -41t-37.5 -99v-2q0 -58 38.5 -99.5t93.5 -41.5q53 0 100 41q8 6 17 6q11 0 18.5 -7.5t7.5 -17.5q0 -12 -9 -19 q-62 -54 -136 -54zM414 19q140 0 235 97t95 234v2q0 137 -94.5 233t-233.5 96q-140 0 -235 -97t-95 -234v-2q0 -137 94.5 -233t233.5 -96zM414 -12q-151 0 -256 105.5t-105 254.5v2q0 149 106 255.5t257 106.5t256 -105.5t105 -254.5v-2q0 -149 -106 -255.5t-257 -106.5z " glyph-name="copyright" unicode="©" horiz-adv-x="830"/>
<glyph d="M77 289q-9 0 -16 6.5t-7 16.5t7 17t16 7h222q9 0 16 -7t7 -17t-7 -16.5t-16 -6.5h-222zM177 450q36 0 61.5 19.5t25.5 50.5v24q-37 11 -76 11q-35 0 -55 -14.5t-20 -38.5v-2q0 -23 18.5 -36.5t45.5 -13.5zM168 408q-43 0 -75 24t-32 66v2q0 44 34 68.5t89 24.5 q40 0 80 -11v5q0 34 -20.5 52.5t-57.5 18.5q-29 0 -68 -15q-7 -3 -13 -3q-9 0 -15.5 6t-6.5 16q0 14 15 21q45 20 93 20q59 0 93 -32q29 -29 29 -84v-154q0 -10 -7.5 -17t-17.5 -7t-17 6.5t-7 16.5v20q-36 -44 -96 -44z" glyph-name="ordfeminine" unicode="ª" horiz-adv-x="390"/>
<glyph d="M227 42q-16 0 -28 16l-133 173q-12 15 -12 28q0 12 12 27l132 172q11 16 29 16q14 0 23.5 -9.5t9.5 -22.5q0 -11 -9 -24l-118 -158l119 -162q8 -11 8 -23q0 -13 -10 -23t-23 -10zM450 42q-17 0 -28 16l-134 173q-12 15 -12 28q0 12 12 27l133 172q11 16 29 16q14 0 23 -9 t9 -23q0 -11 -9 -24l-118 -158l119 -162q8 -11 8 -23q0 -14 -9.5 -23.5t-22.5 -9.5z" glyph-name="guillemotleft" unicode="«" horiz-adv-x="550"/>
<glyph d="M168 539h43q36 0 36 29t-36 29h-43v-58zM134 464v146q0 7 5 12t12 5h63q30 0 49 -14.5t19 -41.5q0 -40 -39 -55l34 -40q5 -6 5 -13t-4.5 -12t-11.5 -5q-9 0 -16 9l-46 56h-36v-47q0 -7 -5 -12.5t-12 -5.5q-17 0 -17 18zM202 379q65 0 109.5 46t44.5 110v1 q0 64 -44.5 109.5t-109.5 45.5t-109.5 -46t-44.5 -110v-1q0 -64 44.5 -109.5t109.5 -45.5zM202 360q-73 0 -123.5 51t-50.5 123v1q0 72 51 123.5t123 51.5q73 0 123.5 -51t50.5 -123v-1q0 -72 -51 -123.5t-123 -51.5z" glyph-name="registered" unicode="®" horiz-adv-x="403"/>
<glyph d="M382 615h-264q-13 0 -22.5 9.5t-9.5 22.5t9.5 22.5t22.5 9.5h264q13 0 22.5 -9.5t9.5 -22.5t-9.5 -22.5t-22.5 -9.5z" glyph-name="macron" unicode="¯"/>
<glyph d="M229 452q42 0 70.5 30t28.5 70v2q0 40 -28.5 70t-70.5 30t-70.5 -30t-28.5 -70v-2q0 -40 28.5 -70t70.5 -30zM229 400q-62 0 -109.5 46t-47.5 106v2q0 61 47.5 106.5t109.5 45.5t109.5 -45.5t47.5 -106.5v-2q0 -60 -47.5 -106t-109.5 -46z" glyph-name="degree" unicode="°" horiz-adv-x="458"/>
<glyph d="M107 0q-14 0 -24.5 10.5t-10.5 24.5t10.5 24t24.5 10h412q14 0 24 -10t10 -24t-10 -24.5t-24 -10.5h-412zM276 200v164h-169q-14 0 -24.5 10.5t-10.5 24.5t10.5 24.5t24.5 10.5h169v164q0 15 10.5 26t26.5 11q15 0 25.5 -11t10.5 -26v-164h169q14 0 24.5 -10.5 t10.5 -24.5t-10.5 -24.5t-24.5 -10.5h-169v-164q0 -15 -10.5 -26t-25.5 -11q-16 0 -26.5 11t-10.5 26z" glyph-name="plusminus" unicode="±" horiz-adv-x="625"/>
<glyph d="M211 591q-19 0 -19 14q0 8 5 15l60 91q15 23 36 23q18 0 36 -10t18 -20q0 -9 -14 -23l-75 -71q-19 -19 -47 -19z" glyph-name="acute" unicode="´"/>
<glyph d="M338 35v229h-11q-123 0 -201 57.5t-78 159.5v2q0 100 73 158.5t191 58.5h66q16 0 28 -12t12 -28v-625q0 -17 -11.5 -28.5t-27.5 -11.5q-17 0 -29 11.5t-12 28.5z" glyph-name="paragraph" unicode="¶" horiz-adv-x="510"/>
<glyph d="M75 311q0 20 14 33.5t34 13.5t33.5 -13.5t13.5 -33.5v-20q0 -20 -13.5 -33.5t-33.5 -13.5t-34 13.5t-14 33.5v20z" glyph-name="periodcentered" unicode="·" horiz-adv-x="245"/>
<glyph d="M301 10l-63 -136q-12 -23 -31 -23q-15 0 -31.5 10.5t-16.5 21.5q0 7 6 18l75 109h61z" glyph-name="cedilla" unicode="¸"/>
<glyph d="M196 455q40 0 66 29t26 70v2q0 42 -27 71.5t-67 29.5t-66 -29t-26 -70v-2q0 -42 27 -71.5t67 -29.5zM70 289q-10 0 -17 6.5t-7 16.5t7 17t17 7h250q10 0 17 -7t7 -17t-7 -16.5t-17 -6.5h-250zM194 407q-62 0 -104 43t-42 104v2q0 62 42.5 105.5t105.5 43.5q62 0 104 -43 t42 -104v-2q0 -62 -42.5 -105.5t-105.5 -43.5z" glyph-name="ordmasculine" unicode="º" horiz-adv-x="390"/>
<glyph d="M101 474q17 0 27 -15l134 -174q12 -15 12 -27t-12 -27l-132 -172q-14 -17 -30 -17q-13 0 -22.5 9.5t-9.5 23.5q0 12 9 23l118 159l-119 162q-9 14 -8 23q0 14 9.5 23t23.5 9zM323 474q16 0 28 -15l134 -174q11 -16 11 -27t-11 -27l-133 -172q-12 -17 -29 -17 q-13 0 -23 10t-10 23q0 12 9 23l119 159l-119 162q-9 11 -9 23q0 13 9.5 22.5t23.5 9.5z" glyph-name="guillemotright" unicode="»" horiz-adv-x="550"/>
<glyph d="M339 637q0 -20 -13.5 -33.5t-33.5 -13.5q-21 0 -34.5 13.5t-13.5 33.5v21q0 20 13.5 33.5t34.5 13.5q20 0 33.5 -13.5t13.5 -33.5v-21zM289 507h3q10 0 18 -7.5t9 -19.5l10 -112v-6q0 -26 -29 -29q-81 -6 -126.5 -41.5t-45.5 -97.5v-2q0 -55 40 -92.5t106 -37.5 q92 0 165 78q13 11 27 11t24.5 -10t10.5 -25q0 -16 -11 -27q-90 -98 -218 -98q-101 0 -162.5 55.5t-61.5 142.5v2q0 89 58 139.5t150 63.5l7 86q1 12 8 19.5t18 7.5z" glyph-name="questiondown" unicode="¿" horiz-adv-x="537"/>
<glyph d="M393 768q-28 0 -47 19l-75 71q-14 14 -14 23q0 10 18 20t36 10q21 0 36 -23l60 -91q5 -7 5 -15q0 -14 -19 -14zM229 257h322l-161 358zM51 31q0 11 5 21l284 621q16 35 50 35h4q35 0 49 -35l284 -620q5 -12 5 -20q0 -16 -11 -27t-27 -11q-26 0 -39 29l-73 161h-384 l-73 -163q-11 -27 -38 -27q-15 0 -25.5 10.5t-10.5 25.5z" glyph-name="Agrave" unicode="À" horiz-adv-x="784"/>
<glyph d="M389 768q-19 0 -19 14q0 8 5 15l60 91q15 23 36 23q18 0 36 -10t18 -20q0 -9 -14 -23l-75 -71q-19 -19 -47 -19zM229 257h322l-161 358zM51 31q0 11 5 21l284 621q16 35 50 35h4q35 0 49 -35l284 -620q5 -12 5 -20q0 -16 -11 -27t-27 -11q-26 0 -39 29l-73 161h-384 l-73 -163q-11 -27 -38 -27q-15 0 -25.5 10.5t-10.5 25.5z" glyph-name="Aacute" unicode="Á" horiz-adv-x="784"/>
<glyph d="M390 839l-59 -52q-20 -19 -48 -19q-18 0 -18 14q0 5 7 17l70 86q19 22 40 22h18q21 0 40 -22l70 -86q7 -12 7 -17q0 -14 -19 -14q-29 0 -49 19zM229 257h322l-161 358zM51 31q0 11 5 21l284 621q16 35 50 35h4q35 0 49 -35l284 -620q5 -12 5 -20q0 -16 -11 -27t-27 -11 q-26 0 -39 29l-73 161h-384l-73 -163q-11 -27 -38 -27q-15 0 -25.5 10.5t-10.5 25.5z" glyph-name="Acircumflex" unicode="Â" horiz-adv-x="784"/>
<glyph d="M284 777q-8 -17 -23 -17q-11 0 -18.5 7t-7.5 17q0 4 3 16q15 43 35.5 62t52.5 19q24 0 71 -20t63 -20q17 0 27 8t19 27q8 17 23 17q11 0 18.5 -7t7.5 -17q0 -1 -3 -16q-15 -43 -35.5 -62t-52.5 -19q-24 0 -71 20t-63 20q-17 0 -27 -8t-19 -27zM229 257h322l-161 358z M51 31q0 11 5 21l284 621q16 35 50 35h4q35 0 49 -35l284 -620q5 -12 5 -20q0 -16 -11 -27t-27 -11q-26 0 -39 29l-73 161h-384l-73 -163q-11 -27 -38 -27q-15 0 -25.5 10.5t-10.5 25.5z" glyph-name="Atilde" unicode="Ã" horiz-adv-x="784"/>
<glyph d="M302 872q20 0 33.5 -13t13.5 -32v-15q0 -19 -13.5 -32t-33.5 -13t-33.5 13t-13.5 32v15q0 19 13.5 32t33.5 13zM480 872q20 0 33.5 -13t13.5 -32v-15q0 -19 -13.5 -32t-33.5 -13t-33.5 13t-13.5 32v15q0 19 13.5 32t33.5 13zM229 257h322l-161 358zM51 31q0 11 5 21 l284 621q16 35 50 35h4q35 0 49 -35l284 -620q5 -12 5 -20q0 -16 -11 -27t-27 -11q-26 0 -39 29l-73 161h-384l-73 -163q-11 -27 -38 -27q-15 0 -25.5 10.5t-10.5 25.5z" glyph-name="Adieresis" unicode="Ä" horiz-adv-x="784"/>
<glyph d="M232 257h322l-160 358zM395 705q25 0 43.5 18t18.5 43v2q0 25 -18.5 43t-43.5 18t-43.5 -18t-18.5 -43v-2q0 -25 18.5 -43t43.5 -18zM444 680l288 -630q3 -9 3 -16q0 -15 -11.5 -27t-27.5 -12q-24 0 -38 29l-72 161h-385l-73 -163q-11 -27 -37 -27q-15 0 -26 11t-11 26 q0 5 4 17l288 631q-25 12 -40 35.5t-15 50.5v2q0 40 31 69.5t73 29.5t73 -29.5t31 -69.5v-2q0 -27 -15 -50.5t-40 -35.5z" glyph-name="Aring" unicode="Å" horiz-adv-x="790"/>
<glyph d="M247 257h244v373h-23zM34 29q0 6 7 22l372 623q16 26 44 26h491q15 0 25.5 -10.5t10.5 -25.5t-10.5 -25.5t-25.5 -10.5h-377v-239h332q15 0 25.5 -11t10.5 -25q0 -15 -10.5 -25.5t-25.5 -10.5h-332v-245h382q15 0 25.5 -10.5t10.5 -25.5t-10.5 -25.5t-25.5 -10.5h-422 q-17 0 -28.5 12t-11.5 28v145h-286l-101 -169q-10 -21 -34 -21q-14 0 -25 10t-11 24z" glyph-name="AE" unicode="Æ" horiz-adv-x="1045"/>
<glyph d="M679 91q-108 -98 -244 -103l-53 -114q-12 -23 -31 -23q-15 0 -31.5 10.5t-16.5 21.5q0 7 6 18l62 90q-133 17 -218 117.5t-85 239.5v2q0 151 101 256.5t253 105.5q79 0 137.5 -23t112.5 -68q16 -14 16 -32q0 -16 -12 -27.5t-28 -11.5q-12 0 -26 9q-90 80 -201 80 q-116 0 -193.5 -83t-77.5 -204v-2q0 -122 78 -205.5t193 -83.5t208 85q11 11 25 11q15 0 26.5 -11.5t11.5 -26.5q0 -17 -13 -28z" glyph-name="Ccedilla" unicode="Ç" horiz-adv-x="738"/>
<glyph d="M355 758q-28 0 -47 19l-75 71q-14 14 -14 23q0 10 18 20t36 10q21 0 36 -23l60 -91q5 -7 5 -15q0 -14 -19 -14zM138 0q-16 0 -27.5 12t-11.5 28v620q0 16 11.5 28t27.5 12h435q15 0 25.5 -10.5t10.5 -25.5t-10.5 -25.5t-25.5 -10.5h-395v-239h350q15 0 25.5 -11t10.5 -25 q0 -15 -10.5 -25.5t-25.5 -10.5h-350v-245h400q15 0 25.5 -10.5t10.5 -25.5t-10.5 -25.5t-25.5 -10.5h-440z" glyph-name="Egrave" unicode="È" horiz-adv-x="670"/>
<glyph d="M138 0q-16 0 -27.5 12t-11.5 28v620q0 16 11.5 28t27.5 12h435q15 0 25.5 -10.5t10.5 -25.5t-10.5 -25.5t-25.5 -10.5h-395v-239h350q15 0 25.5 -11t10.5 -25q0 -15 -10.5 -25.5t-25.5 -10.5h-350v-245h400q15 0 25.5 -10.5t10.5 -25.5t-10.5 -25.5t-25.5 -10.5h-440z M351 758q-19 0 -19 14q0 8 5 15l60 91q15 23 36 23q18 0 36 -10t18 -20q0 -9 -14 -23l-75 -71q-19 -19 -47 -19z" glyph-name="Eacute" unicode="É" horiz-adv-x="670"/>
<glyph d="M138 0q-16 0 -27.5 12t-11.5 28v620q0 16 11.5 28t27.5 12h435q15 0 25.5 -10.5t10.5 -25.5t-10.5 -25.5t-25.5 -10.5h-395v-239h350q15 0 25.5 -11t10.5 -25q0 -15 -10.5 -25.5t-25.5 -10.5h-350v-245h400q15 0 25.5 -10.5t10.5 -25.5t-10.5 -25.5t-25.5 -10.5h-440z M352 829l-59 -52q-20 -19 -48 -19q-18 0 -18 14q0 5 7 17l70 86q19 22 40 22h18q21 0 40 -22l70 -86q7 -12 7 -17q0 -14 -19 -14q-29 0 -49 19z" glyph-name="Ecircumflex" unicode="Ê" horiz-adv-x="670"/>
<glyph d="M138 0q-16 0 -27.5 12t-11.5 28v620q0 16 11.5 28t27.5 12h435q15 0 25.5 -10.5t10.5 -25.5t-10.5 -25.5t-25.5 -10.5h-395v-239h350q15 0 25.5 -11t10.5 -25q0 -15 -10.5 -25.5t-25.5 -10.5h-350v-245h400q15 0 25.5 -10.5t10.5 -25.5t-10.5 -25.5t-25.5 -10.5h-440z M264 862q20 0 33.5 -13t13.5 -32v-15q0 -19 -13.5 -32t-33.5 -13t-33.5 13t-13.5 32v15q0 19 13.5 32t33.5 13zM442 862q20 0 33.5 -13t13.5 -32v-15q0 -19 -13.5 -32t-33.5 -13t-33.5 13t-13.5 32v15q0 19 13.5 32t33.5 13z" glyph-name="Edieresis" unicode="Ë" horiz-adv-x="670"/>
<glyph d="M148 758q-28 0 -47 19l-75 71q-14 14 -14 23q0 10 18 20t36 10q21 0 36 -23l60 -91q5 -7 5 -15q0 -14 -19 -14zM106 35v630q0 16 11.5 28t27.5 12q17 0 28.5 -11.5t11.5 -28.5v-630q0 -17 -11.5 -28.5t-28.5 -11.5q-16 0 -27.5 12t-11.5 28z" glyph-name="Igrave" unicode="Ì" horiz-adv-x="291"/>
<glyph d="M144 758q-19 0 -19 14q0 8 5 15l60 91q15 23 36 23q18 0 36 -10t18 -20q0 -9 -14 -23l-75 -71q-19 -19 -47 -19zM106 35v630q0 16 11.5 28t27.5 12q17 0 28.5 -11.5t11.5 -28.5v-630q0 -17 -11.5 -28.5t-28.5 -11.5q-16 0 -27.5 12t-11.5 28z" glyph-name="Iacute" unicode="Í" horiz-adv-x="291"/>
<glyph d="M145 829l-59 -52q-20 -19 -48 -19q-18 0 -18 14q0 5 7 17l70 86q19 22 40 22h18q21 0 40 -22l70 -86q7 -12 7 -17q0 -14 -19 -14q-29 0 -49 19zM106 35v630q0 16 11.5 28t27.5 12q17 0 28.5 -11.5t11.5 -28.5v-630q0 -17 -11.5 -28.5t-28.5 -11.5q-16 0 -27.5 12 t-11.5 28z" glyph-name="Icircumflex" unicode="Î" horiz-adv-x="291"/>
<glyph d="M57 862q20 0 33.5 -13t13.5 -32v-15q0 -19 -13.5 -32t-33.5 -13t-33.5 13t-13.5 32v15q0 19 13.5 32t33.5 13zM235 862q20 0 33.5 -13t13.5 -32v-15q0 -19 -13.5 -32t-33.5 -13t-33.5 13t-13.5 32v15q0 19 13.5 32t33.5 13zM106 35v630q0 16 11.5 28t27.5 12 q17 0 28.5 -11.5t11.5 -28.5v-630q0 -17 -11.5 -28.5t-28.5 -11.5q-16 0 -27.5 12t-11.5 28z" glyph-name="Idieresis" unicode="Ï" horiz-adv-x="291"/>
<glyph d="M208 627v-239h179q14 0 25 -10.5t11 -25.5t-11 -25.5t-25 -10.5h-179v-243h164q130 0 210 78t80 197v2q0 119 -80 198t-210 79h-164zM85 388h44v272q0 16 11.5 28t27.5 12h204q163 0 267.5 -99.5t104.5 -248.5v-2q0 -150 -104.5 -250t-267.5 -100h-204q-16 0 -27.5 12 t-11.5 28v276h-44q-15 0 -25.5 10.5t-10.5 25.5t10.5 25.5t25.5 10.5z" glyph-name="Eth" unicode="Ð" horiz-adv-x="812"/>
<glyph d="M287 767q-9 -17 -23 -17q-11 0 -18.5 7t-7.5 17q0 4 3 16q15 43 35.5 62t52.5 19q24 0 71 -20t63 -20q17 0 27 8t19 27q9 17 23 17q11 0 18.5 -7t7.5 -17q0 -1 -3 -16q-15 -43 -35.5 -62t-52.5 -19q-24 0 -71 20t-63 20q-17 0 -27 -8t-19 -27zM99 34v630q0 16 11.5 27.5 t27.5 11.5h11q22 0 40 -23l425 -542v528q0 16 11.5 27.5t27.5 11.5t27 -11.5t11 -27.5v-632q0 -16 -10 -26.5t-26 -10.5h-4q-20 0 -41 24l-434 555v-542q0 -16 -11.5 -27.5t-27.5 -11.5t-27 11.5t-11 27.5z" glyph-name="Ntilde" unicode="Ñ" horiz-adv-x="790"/>
<glyph d="M427 768q-28 0 -47 19l-75 71q-14 14 -14 23q0 10 18 20t36 10q21 0 36 -23l60 -91q5 -7 5 -15q0 -14 -19 -14zM426 61q119 0 196.5 83t77.5 204v2q0 121 -78.5 205t-197.5 84t-196.5 -83t-77.5 -204v-2q0 -121 78.5 -205t197.5 -84zM424 -12q-156 0 -256 105.5 t-100 254.5v2q0 149 101 255.5t257 106.5t256 -105.5t100 -254.5v-2q0 -149 -101 -255.5t-257 -106.5z" glyph-name="Ograve" unicode="Ò" horiz-adv-x="850"/>
<glyph d="M426 61q119 0 196.5 83t77.5 204v2q0 121 -78.5 205t-197.5 84t-196.5 -83t-77.5 -204v-2q0 -121 78.5 -205t197.5 -84zM424 -12q-156 0 -256 105.5t-100 254.5v2q0 149 101 255.5t257 106.5t256 -105.5t100 -254.5v-2q0 -149 -101 -255.5t-257 -106.5zM422 768 q-19 0 -19 14q0 8 5 15l60 91q15 23 36 23q18 0 36 -10t18 -20q0 -9 -14 -23l-75 -71q-19 -19 -47 -19z" glyph-name="Oacute" unicode="Ó" horiz-adv-x="850"/>
<glyph d="M426 61q119 0 196.5 83t77.5 204v2q0 121 -78.5 205t-197.5 84t-196.5 -83t-77.5 -204v-2q0 -121 78.5 -205t197.5 -84zM424 -12q-156 0 -256 105.5t-100 254.5v2q0 149 101 255.5t257 106.5t256 -105.5t100 -254.5v-2q0 -149 -101 -255.5t-257 -106.5zM424 839l-59 -52 q-20 -19 -48 -19q-18 0 -18 14q0 5 7 17l70 86q19 22 40 22h18q21 0 40 -22l70 -86q7 -12 7 -17q0 -14 -19 -14q-29 0 -49 19z" glyph-name="Ocircumflex" unicode="Ô" horiz-adv-x="850"/>
<glyph d="M317 777q-9 -17 -23 -17q-11 0 -18.5 7t-7.5 17q0 4 3 16q15 43 35.5 62t52.5 19q24 0 71 -20t63 -20q17 0 27 8t19 27q9 17 23 17q11 0 18.5 -7t7.5 -17q0 -1 -3 -16q-15 -43 -35.5 -62t-52.5 -19q-24 0 -71 20t-63 20q-17 0 -27 -8t-19 -27zM426 61q119 0 196.5 83 t77.5 204v2q0 121 -78.5 205t-197.5 84t-196.5 -83t-77.5 -204v-2q0 -121 78.5 -205t197.5 -84zM424 -12q-156 0 -256 105.5t-100 254.5v2q0 149 101 255.5t257 106.5t256 -105.5t100 -254.5v-2q0 -149 -101 -255.5t-257 -106.5z" glyph-name="Otilde" unicode="Õ" horiz-adv-x="850"/>
<glyph d="M426 61q119 0 196.5 83t77.5 204v2q0 121 -78.5 205t-197.5 84t-196.5 -83t-77.5 -204v-2q0 -121 78.5 -205t197.5 -84zM424 -12q-156 0 -256 105.5t-100 254.5v2q0 149 101 255.5t257 106.5t256 -105.5t100 -254.5v-2q0 -149 -101 -255.5t-257 -106.5zM336 872 q20 0 33.5 -13t13.5 -32v-15q0 -19 -13.5 -32t-33.5 -13t-33.5 13t-13.5 32v15q0 19 13.5 32t33.5 13zM514 872q20 0 33.5 -13t13.5 -32v-15q0 -19 -13.5 -32t-33.5 -13t-33.5 13t-13.5 32v15q0 19 13.5 32t33.5 13z" glyph-name="Odieresis" unicode="Ö" horiz-adv-x="850"/>
<glyph d="M515 505l-154 -152l154 -151q12 -12 12 -28q0 -15 -10.5 -25.5t-25.5 -10.5q-16 0 -28 12l-151 154l-152 -155q-13 -11 -27 -11t-24.5 10.5t-10.5 24.5t12 26l154 152l-154 151q-12 12 -12 28q0 15 11 25.5t26 10.5t27 -12l152 -154l152 155q11 11 26 11q14 0 24.5 -10.5 t10.5 -24.5t-12 -26z" glyph-name="multiply" unicode="×" horiz-adv-x="625"/>
<glyph d="M426 60q118 0 196 83.5t78 204.5v2q0 106 -61 184l-387 -412q73 -62 174 -62zM150 350q0 -106 61 -184l387 411q-76 63 -174 63q-118 0 -196 -83.5t-78 -204.5v-2zM424 -12q-129 0 -224 76l-60 -62q-12 -12 -25 -12t-21.5 8.5t-8.5 20.5q0 14 10 24l60 64q-87 99 -87 241 v2q0 149 101 255.5t257 106.5q129 0 224 -77l60 63q12 12 25 12t21.5 -8.5t8.5 -20.5q0 -14 -10 -24l-61 -65q88 -101 88 -240v-2q0 -149 -101 -255.5t-257 -106.5z" glyph-name="Oslash" unicode="Ø" horiz-adv-x="850"/>
<glyph d="M381 758q-28 0 -47 19l-75 71q-14 14 -14 23q0 10 18 20t36 10q21 0 36 -23l60 -91q5 -7 5 -15q0 -14 -19 -14zM379 -11q-133 0 -212 79.5t-79 224.5v372q0 16 11.5 28t27.5 12q17 0 28.5 -11.5t11.5 -28.5v-367q0 -112 57 -174t157 -62q99 0 155 59t56 172v372 q0 17 12 28.5t28 11.5t27.5 -12t11.5 -28v-366q0 -150 -79 -230t-213 -80z" glyph-name="Ugrave" unicode="Ù" horiz-adv-x="759"/>
<glyph d="M379 -11q-133 0 -212 79.5t-79 224.5v372q0 16 11.5 28t27.5 12q17 0 28.5 -11.5t11.5 -28.5v-367q0 -112 57 -174t157 -62q99 0 155 59t56 172v372q0 17 12 28.5t28 11.5t27.5 -12t11.5 -28v-366q0 -150 -79 -230t-213 -80zM377 758q-19 0 -19 14q0 8 5 15l60 91 q15 23 36 23q18 0 36 -10t18 -20q0 -9 -14 -23l-75 -71q-19 -19 -47 -19z" glyph-name="Uacute" unicode="Ú" horiz-adv-x="759"/>
<glyph d="M379 -11q-133 0 -212 79.5t-79 224.5v372q0 16 11.5 28t27.5 12q17 0 28.5 -11.5t11.5 -28.5v-367q0 -112 57 -174t157 -62q99 0 155 59t56 172v372q0 17 12 28.5t28 11.5t27.5 -12t11.5 -28v-366q0 -150 -79 -230t-213 -80zM378 829l-59 -52q-20 -19 -48 -19 q-18 0 -18 14q0 5 7 17l70 86q19 22 40 22h18q21 0 40 -22l70 -86q7 -12 7 -17q0 -14 -19 -14q-29 0 -49 19z" glyph-name="Ucircumflex" unicode="Û" horiz-adv-x="759"/>
<glyph d="M379 -11q-133 0 -212 79.5t-79 224.5v372q0 16 11.5 28t27.5 12q17 0 28.5 -11.5t11.5 -28.5v-367q0 -112 57 -174t157 -62q99 0 155 59t56 172v372q0 17 12 28.5t28 11.5t27.5 -12t11.5 -28v-366q0 -150 -79 -230t-213 -80zM290 862q20 0 33.5 -13t13.5 -32v-15 q0 -19 -13.5 -32t-33.5 -13t-33.5 13t-13.5 32v15q0 19 13.5 32t33.5 13zM468 862q20 0 33.5 -13t13.5 -32v-15q0 -19 -13.5 -32t-33.5 -13t-33.5 13t-13.5 32v15q0 19 13.5 32t33.5 13z" glyph-name="Udieresis" unicode="Ü" horiz-adv-x="759"/>
<glyph d="M352 758q-19 0 -19 14q0 8 5 15l60 91q15 23 36 23q18 0 36 -10t18 -20q0 -9 -14 -23l-75 -71q-19 -19 -47 -19zM314 35v240l-260 364q-9 14 -9 27q0 16 12 27.5t29 11.5q21 0 38 -24l231 -333l233 333q17 24 37 24q16 0 27.5 -11.5t11.5 -27.5q0 -11 -11 -29l-259 -360 v-242q0 -17 -12 -28.5t-28 -11.5t-28 11.5t-12 28.5z" glyph-name="Yacute" unicode="Ý" horiz-adv-x="708"/>
<glyph d="M178 198h173q87 0 139.5 43t52.5 112v2q0 73 -50.5 112.5t-137.5 39.5h-177v-309zM99 35v630q0 16 11.5 28t27.5 12t28 -11.5t12 -28.5v-85h183q119 0 190.5 -60t71.5 -162v-2q0 -109 -78.5 -169.5t-196.5 -60.5h-170v-91q0 -17 -12 -28.5t-28 -11.5t-27.5 12t-11.5 28z " glyph-name="Thorn" unicode="Þ" horiz-adv-x="673"/>
<glyph d="M287 30q0 13 8.5 22t21.5 11q76 6 121 38t45 91v2q0 55 -45 88t-119 45q-32 7 -32 35q0 23 23 34q130 53 130 154v2q0 52 -36.5 84.5t-94.5 32.5q-65 0 -105.5 -45.5t-40.5 -121.5v-469q0 -16 -11.5 -27t-27.5 -11t-27 11t-11 27v468q0 106 61.5 171t165.5 65 q93 0 149.5 -51.5t56.5 -128.5v-2q0 -66 -39.5 -111.5t-99.5 -71.5q79 -18 130.5 -62t51.5 -116v-2q0 -91 -68 -141.5t-173 -52.5q-15 0 -24.5 9t-9.5 23z" glyph-name="germandbls" unicode="ß" horiz-adv-x="620"/>
<glyph d="M292 591q-28 0 -47 19l-75 71q-14 14 -14 23q0 10 18 20t36 10q21 0 36 -23l60 -91q5 -7 5 -15q0 -14 -19 -14zM255 50q72 0 122.5 39.5t50.5 100.5v50q-76 22 -152 22q-72 0 -111.5 -29t-39.5 -78v-2q0 -47 37.5 -75t92.5 -28zM240 -11q-78 0 -135.5 43t-57.5 118v2 q0 80 60 123.5t161 43.5q81 0 159 -22v18q0 69 -40 105t-114 36q-69 0 -134 -29q-7 -3 -14 -3q-14 0 -24 10t-10 23q0 24 21 32q81 35 169 35q110 0 167 -57q53 -53 53 -151v-283q0 -16 -10.5 -27t-26.5 -11t-26.5 10.5t-10.5 25.5v47q-68 -89 -187 -89z" glyph-name="agrave" unicode="à" horiz-adv-x="579"/>
<glyph d="M287 591q-19 0 -19 14q0 8 5 15l60 91q15 23 36 23q18 0 36 -10t18 -20q0 -9 -14 -23l-75 -71q-19 -19 -47 -19zM255 50q72 0 122.5 39.5t50.5 100.5v50q-76 22 -152 22q-72 0 -111.5 -29t-39.5 -78v-2q0 -47 37.5 -75t92.5 -28zM240 -11q-78 0 -135.5 43t-57.5 118v2 q0 80 60 123.5t161 43.5q81 0 159 -22v18q0 69 -40 105t-114 36q-69 0 -134 -29q-7 -3 -14 -3q-14 0 -24 10t-10 23q0 24 21 32q81 35 169 35q110 0 167 -57q53 -53 53 -151v-283q0 -16 -10.5 -27t-26.5 -11t-26.5 10.5t-10.5 25.5v47q-68 -89 -187 -89z" glyph-name="aacute" unicode="á" horiz-adv-x="579"/>
<glyph d="M288 662l-59 -52q-20 -19 -48 -19q-18 0 -18 14q0 5 7 17l70 86q19 22 40 22h18q21 0 40 -22l70 -86q7 -12 7 -17q0 -14 -19 -14q-29 0 -49 19zM255 50q72 0 122.5 39.5t50.5 100.5v50q-76 22 -152 22q-72 0 -111.5 -29t-39.5 -78v-2q0 -47 37.5 -75t92.5 -28zM240 -11 q-78 0 -135.5 43t-57.5 118v2q0 80 60 123.5t161 43.5q81 0 159 -22v18q0 69 -40 105t-114 36q-69 0 -134 -29q-7 -3 -14 -3q-14 0 -24 10t-10 23q0 24 21 32q81 35 169 35q110 0 167 -57q53 -53 53 -151v-283q0 -16 -10.5 -27t-26.5 -11t-26.5 10.5t-10.5 25.5v47 q-68 -89 -187 -89z" glyph-name="acircumflex" unicode="â" horiz-adv-x="579"/>
<glyph d="M182 600q-8 -17 -23 -17q-11 0 -18.5 7t-7.5 17q0 4 3 16q15 43 35.5 62t52.5 19q24 0 71 -20t63 -20q17 0 27 8t19 27q8 17 23 17q11 0 18.5 -7t7.5 -17q0 -1 -3 -16q-15 -43 -35.5 -62t-52.5 -19q-24 0 -71 20t-63 20q-17 0 -27 -8t-19 -27zM255 50q72 0 122.5 39.5 t50.5 100.5v50q-76 22 -152 22q-72 0 -111.5 -29t-39.5 -78v-2q0 -47 37.5 -75t92.5 -28zM240 -11q-78 0 -135.5 43t-57.5 118v2q0 80 60 123.5t161 43.5q81 0 159 -22v18q0 69 -40 105t-114 36q-69 0 -134 -29q-7 -3 -14 -3q-14 0 -24 10t-10 23q0 24 21 32q81 35 169 35 q110 0 167 -57q53 -53 53 -151v-283q0 -16 -10.5 -27t-26.5 -11t-26.5 10.5t-10.5 25.5v47q-68 -89 -187 -89z" glyph-name="atilde" unicode="ã" horiz-adv-x="579"/>
<glyph d="M200 695q20 0 33.5 -13t13.5 -32v-15q0 -19 -13.5 -32t-33.5 -13t-33.5 13t-13.5 32v15q0 19 13.5 32t33.5 13zM378 695q20 0 33.5 -13t13.5 -32v-15q0 -19 -13.5 -32t-33.5 -13t-33.5 13t-13.5 32v15q0 19 13.5 32t33.5 13zM255 50q72 0 122.5 39.5t50.5 100.5v50 q-76 22 -152 22q-72 0 -111.5 -29t-39.5 -78v-2q0 -47 37.5 -75t92.5 -28zM240 -11q-78 0 -135.5 43t-57.5 118v2q0 80 60 123.5t161 43.5q81 0 159 -22v18q0 69 -40 105t-114 36q-69 0 -134 -29q-7 -3 -14 -3q-14 0 -24 10t-10 23q0 24 21 32q81 35 169 35q110 0 167 -57 q53 -53 53 -151v-283q0 -16 -10.5 -27t-26.5 -11t-26.5 10.5t-10.5 25.5v47q-68 -89 -187 -89z" glyph-name="adieresis" unicode="ä" horiz-adv-x="579"/>
<glyph d="M289 631q25 0 43.5 18t18.5 43v2q0 25 -18.5 43t-43.5 18t-43.5 -18t-18.5 -43v-2q0 -25 18.5 -43t43.5 -18zM289 593q-42 0 -73 29.5t-31 69.5v2q0 40 31 69.5t73 29.5t73 -29.5t31 -69.5v-2q0 -40 -31 -69.5t-73 -29.5zM255 50q72 0 122.5 39.5t50.5 100.5v50 q-76 22 -152 22q-72 0 -111.5 -29t-39.5 -78v-2q0 -47 37.5 -75t92.5 -28zM240 -11q-78 0 -135.5 43t-57.5 118v2q0 80 60 123.5t161 43.5q81 0 159 -22v18q0 69 -40 105t-114 36q-69 0 -134 -29q-7 -3 -14 -3q-14 0 -24 10t-10 23q0 24 21 32q81 35 169 35q110 0 167 -57 q53 -53 53 -151v-283q0 -16 -10.5 -27t-26.5 -11t-26.5 10.5t-10.5 25.5v47q-68 -89 -187 -89z" glyph-name="aring" unicode="å" horiz-adv-x="579"/>
<glyph d="M869 66q-83 -78 -196 -78q-62 0 -116 27.5t-89 76.5q-99 -103 -226 -103q-80 0 -137.5 42.5t-57.5 118.5v2q0 80 59.5 123.5t157.5 43.5q75 0 153 -22v18q0 69 -38.5 105t-110.5 36q-65 0 -129 -29q-7 -3 -14 -3q-14 0 -24 10t-10 23q0 24 21 32q78 35 164 35 q151 0 190 -111q31 53 83 84t115 31q110 0 175 -77t65 -185q0 -15 -11 -25.5t-26 -10.5h-373q7 -81 58.5 -128t122.5 -47q83 0 150 60q11 9 21 9q14 0 24 -9.5t10 -23.5t-11 -25zM251 51q104 0 186 92q-18 45 -21 98q-80 21 -144 21q-70 0 -108.5 -29t-38.5 -78v-2 q0 -47 36 -74.5t90 -27.5zM493 287h333q-6 76 -48.5 126t-115.5 50q-68 0 -114.5 -49.5t-54.5 -126.5z" glyph-name="ae" unicode="æ" horiz-adv-x="953"/>
<glyph d="M514 71q-78 -78 -180 -82l-53 -115q-11 -23 -31 -23q-15 0 -31.5 10.5t-16.5 21.5q0 7 6 18l63 92q-95 16 -156 91t-61 172v2q0 111 76.5 190.5t188.5 79.5q108 0 190 -75q12 -10 12 -27q0 -16 -11 -26.5t-26 -10.5q-14 0 -25 9q-67 62 -141 62q-78 0 -131.5 -58 t-53.5 -142v-2q0 -84 54.5 -142.5t135.5 -58.5q77 0 144 63q10 10 22 10q14 0 24.5 -10.5t10.5 -24.5t-10 -24z" glyph-name="ccedilla" unicode="ç" horiz-adv-x="571"/>
<glyph d="M303 591q-28 0 -47 19l-75 71q-14 14 -14 23q0 10 18 20t36 10q21 0 36 -23l60 -91q5 -7 5 -15q0 -14 -19 -14zM507 66q-81 -78 -195 -78q-109 0 -183.5 75.5t-74.5 193.5v2q0 113 71 191t177 78q110 0 175 -77t65 -185q0 -15 -10.5 -25.5t-25.5 -10.5h-374 q8 -82 59.5 -128.5t122.5 -46.5q84 0 149 60q11 9 22 9q14 0 24 -9.5t10 -23.5q0 -15 -12 -25zM132 287h333q-6 76 -49 126t-116 50q-67 0 -113.5 -50t-54.5 -126z" glyph-name="egrave" unicode="è" horiz-adv-x="592"/>
<glyph d="M507 66q-81 -78 -195 -78q-109 0 -183.5 75.5t-74.5 193.5v2q0 113 71 191t177 78q110 0 175 -77t65 -185q0 -15 -10.5 -25.5t-25.5 -10.5h-374q8 -82 59.5 -128.5t122.5 -46.5q84 0 149 60q11 9 22 9q14 0 24 -9.5t10 -23.5q0 -15 -12 -25zM132 287h333q-6 76 -49 126 t-116 50q-67 0 -113.5 -50t-54.5 -126zM299 591q-19 0 -19 14q0 8 5 15l60 91q15 23 36 23q18 0 36 -10t18 -20q0 -9 -14 -23l-75 -71q-19 -19 -47 -19z" glyph-name="eacute" unicode="é" horiz-adv-x="592"/>
<glyph d="M507 66q-81 -78 -195 -78q-109 0 -183.5 75.5t-74.5 193.5v2q0 113 71 191t177 78q110 0 175 -77t65 -185q0 -15 -10.5 -25.5t-25.5 -10.5h-374q8 -82 59.5 -128.5t122.5 -46.5q84 0 149 60q11 9 22 9q14 0 24 -9.5t10 -23.5q0 -15 -12 -25zM132 287h333q-6 76 -49 126 t-116 50q-67 0 -113.5 -50t-54.5 -126zM300 662l-59 -52q-20 -19 -48 -19q-18 0 -18 14q0 5 7 17l70 86q19 22 40 22h18q21 0 40 -22l70 -86q7 -12 7 -17q0 -14 -19 -14q-29 0 -49 19z" glyph-name="ecircumflex" unicode="ê" horiz-adv-x="592"/>
<glyph d="M507 66q-81 -78 -195 -78q-109 0 -183.5 75.5t-74.5 193.5v2q0 113 71 191t177 78q110 0 175 -77t65 -185q0 -15 -10.5 -25.5t-25.5 -10.5h-374q8 -82 59.5 -128.5t122.5 -46.5q84 0 149 60q11 9 22 9q14 0 24 -9.5t10 -23.5q0 -15 -12 -25zM132 287h333q-6 76 -49 126 t-116 50q-67 0 -113.5 -50t-54.5 -126zM212 695q20 0 33.5 -13t13.5 -32v-15q0 -19 -13.5 -32t-33.5 -13t-33.5 13t-13.5 32v15q0 19 13.5 32t33.5 13zM390 695q20 0 33.5 -13t13.5 -32v-15q0 -19 -13.5 -32t-33.5 -13t-33.5 13t-13.5 32v15q0 19 13.5 32t33.5 13z" glyph-name="edieresis" unicode="ë" horiz-adv-x="592"/>
<glyph d="M134 591q-28 0 -47 19l-75 71q-14 14 -14 23q0 10 18 20t36 10q21 0 36 -23l60 -91q5 -7 5 -15q0 -14 -19 -14zM93 34v449q0 16 11 27.5t27 11.5q17 0 28 -11t11 -28v-449q0 -17 -11 -28t-27 -11t-27.5 11.5t-11.5 27.5z" glyph-name="igrave" unicode="ì" horiz-adv-x="263"/>
<glyph d="M93 34v449q0 16 11 27.5t27 11.5q17 0 28 -11t11 -28v-449q0 -17 -11 -28t-27 -11t-27.5 11.5t-11.5 27.5zM130 591q-19 0 -19 14q0 8 5 15l60 91q15 23 36 23q18 0 36 -10t18 -20q0 -9 -14 -23l-75 -71q-19 -19 -47 -19z" glyph-name="iacute" unicode="í" horiz-adv-x="263"/>
<glyph d="M93 34v449q0 16 11 27.5t27 11.5q17 0 28 -11t11 -28v-449q0 -17 -11 -28t-27 -11t-27.5 11.5t-11.5 27.5zM131 662l-59 -52q-20 -19 -48 -19q-18 0 -18 14q0 5 7 17l70 86q19 22 40 22h18q21 0 40 -22l70 -86q7 -12 7 -17q0 -14 -19 -14q-29 0 -49 19z" glyph-name="icircumflex" unicode="î" horiz-adv-x="263"/>
<glyph d="M93 34v449q0 16 11 27.5t27 11.5q17 0 28 -11t11 -28v-449q0 -17 -11 -28t-27 -11t-27.5 11.5t-11.5 27.5zM43 695q20 0 33.5 -13t13.5 -32v-15q0 -19 -13.5 -32t-33.5 -13t-33.5 13t-13.5 32v15q0 19 13.5 32t33.5 13zM221 695q20 0 33.5 -13t13.5 -32v-15 q0 -19 -13.5 -32t-33.5 -13t-33.5 13t-13.5 32v15q0 19 13.5 32t33.5 13z" glyph-name="idieresis" unicode="ï" horiz-adv-x="263"/>
<glyph d="M499 244q0 75 -54.5 128t-135.5 53q-80 0 -128.5 -52t-48.5 -130q0 -75 53 -131t132 -56q80 0 131 55t51 133zM453 431l-131 183l-116 -56q-8 -3 -14 -3q-12 0 -20 8.5t-8 20.5q0 17 18 26l107 50l-10 15q-8 11 -8 24q0 15 10.5 25.5t26.5 10.5q19 0 32 -18l17 -25l87 41 q6 3 14 3q11 0 19.5 -8.5t8.5 -20.5q0 -17 -19 -26l-78 -36l101 -149q45 -65 66.5 -121t21.5 -123q0 -109 -73.5 -186.5t-192.5 -77.5q-110 0 -184 75.5t-74 182.5q0 105 69.5 172.5t167.5 67.5q84 0 162 -55z" glyph-name="eth" unicode="ð" horiz-adv-x="633"/>
<glyph d="M204 600q-8 -17 -23 -17q-11 0 -18.5 7t-7.5 17q0 4 3 16q15 43 35.5 62t52.5 19q24 0 71 -20t63 -20q17 0 27 8t19 27q8 17 23 17q11 0 18.5 -7t7.5 -17q0 -1 -3 -16q-15 -43 -35.5 -62t-52.5 -19q-24 0 -71 20t-63 20q-17 0 -27 -8t-19 -27zM86 34v449q0 16 11 27.5 t27 11.5t27.5 -11t11.5 -28v-56q61 101 177 101q92 0 145 -56.5t53 -150.5v-287q0 -16 -11 -27.5t-27 -11.5t-27.5 11.5t-11.5 27.5v268q0 73 -37.5 114.5t-105.5 41.5q-67 0 -111 -45t-44 -117v-262q0 -17 -11 -28t-27 -11q-17 0 -28 11.5t-11 27.5z" glyph-name="ntilde" unicode="ñ" horiz-adv-x="616"/>
<glyph d="M325 591q-28 0 -47 19l-75 71q-14 14 -14 23q0 10 18 20t36 10q21 0 36 -23l60 -91q5 -7 5 -15q0 -14 -19 -14zM324 57q83 0 136.5 58t53.5 141v2q0 84 -55.5 143t-136.5 59q-82 0 -135.5 -58.5t-53.5 -141.5v-2q0 -84 55 -142.5t136 -58.5zM322 -12q-115 0 -191.5 78.5 t-76.5 189.5v2q0 111 77.5 190.5t192.5 79.5t192 -78.5t77 -189.5v-2q0 -111 -78 -190.5t-193 -79.5z" glyph-name="ograve" unicode="ò" horiz-adv-x="646"/>
<glyph d="M324 57q83 0 136.5 58t53.5 141v2q0 84 -55.5 143t-136.5 59q-82 0 -135.5 -58.5t-53.5 -141.5v-2q0 -84 55 -142.5t136 -58.5zM322 -12q-115 0 -191.5 78.5t-76.5 189.5v2q0 111 77.5 190.5t192.5 79.5t192 -78.5t77 -189.5v-2q0 -111 -78 -190.5t-193 -79.5zM321 591 q-19 0 -19 14q0 8 5 15l60 91q15 23 36 23q18 0 36 -10t18 -20q0 -9 -14 -23l-75 -71q-19 -19 -47 -19z" glyph-name="oacute" unicode="ó" horiz-adv-x="646"/>
<glyph d="M324 57q83 0 136.5 58t53.5 141v2q0 84 -55.5 143t-136.5 59q-82 0 -135.5 -58.5t-53.5 -141.5v-2q0 -84 55 -142.5t136 -58.5zM322 -12q-115 0 -191.5 78.5t-76.5 189.5v2q0 111 77.5 190.5t192.5 79.5t192 -78.5t77 -189.5v-2q0 -111 -78 -190.5t-193 -79.5zM322 662 l-59 -52q-20 -19 -48 -19q-18 0 -18 14q0 5 7 17l70 86q19 22 40 22h18q21 0 40 -22l70 -86q7 -12 7 -17q0 -14 -19 -14q-29 0 -49 19z" glyph-name="ocircumflex" unicode="ô" horiz-adv-x="646"/>
<glyph d="M215 600q-9 -17 -23 -17q-11 0 -18.5 7t-7.5 17q0 4 3 16q15 43 35.5 62t52.5 19q24 0 71 -20t63 -20q17 0 27 8t19 27q9 17 23 17q11 0 18.5 -7t7.5 -17q0 -1 -3 -16q-15 -43 -35.5 -62t-52.5 -19q-24 0 -71 20t-63 20q-17 0 -27 -8t-19 -27zM324 57q83 0 136.5 58 t53.5 141v2q0 84 -55.5 143t-136.5 59q-82 0 -135.5 -58.5t-53.5 -141.5v-2q0 -84 55 -142.5t136 -58.5zM322 -12q-115 0 -191.5 78.5t-76.5 189.5v2q0 111 77.5 190.5t192.5 79.5t192 -78.5t77 -189.5v-2q0 -111 -78 -190.5t-193 -79.5z" glyph-name="otilde" unicode="õ" horiz-adv-x="646"/>
<glyph d="M324 57q83 0 136.5 58t53.5 141v2q0 84 -55.5 143t-136.5 59q-82 0 -135.5 -58.5t-53.5 -141.5v-2q0 -84 55 -142.5t136 -58.5zM322 -12q-115 0 -191.5 78.5t-76.5 189.5v2q0 111 77.5 190.5t192.5 79.5t192 -78.5t77 -189.5v-2q0 -111 -78 -190.5t-193 -79.5zM234 695 q20 0 33.5 -13t13.5 -32v-15q0 -19 -13.5 -32t-33.5 -13t-33.5 13t-13.5 32v15q0 19 13.5 32t33.5 13zM412 695q20 0 33.5 -13t13.5 -32v-15q0 -19 -13.5 -32t-33.5 -13t-33.5 13t-13.5 32v15q0 19 13.5 32t33.5 13z" glyph-name="odieresis" unicode="ö" horiz-adv-x="646"/>
<glyph d="M313 210q21 0 36 -15t15 -35v-13q0 -20 -15 -35t-36 -15q-22 0 -37 15t-15 35v13q0 20 15 35t37 15zM313 607q21 0 36 -15t15 -35v-13q0 -20 -15 -35t-36 -15q-22 0 -37 15t-15 35v13q0 20 15 35t37 15zM527 317h-429q-14 0 -24.5 10.5t-10.5 24.5t10.5 24.5t24.5 10.5 h429q14 0 24.5 -10.5t10.5 -24.5t-10.5 -24.5t-24.5 -10.5z" glyph-name="divide" unicode="÷" horiz-adv-x="625"/>
<glyph d="M324 56q83 0 137 58.5t54 141.5v2q0 67 -38 121l-271 -281q52 -42 118 -42zM132 258q0 -69 37 -121l272 282q-52 42 -119 42q-83 0 -136.5 -58.5t-53.5 -142.5v-2zM322 -12q-93 0 -166 55l-40 -41q-12 -12 -25 -12q-11 0 -19.5 7.5t-8.5 18.5q0 14 11 23l42 43 q-62 73 -62 174v2q0 111 77.5 190.5t192.5 79.5q92 0 165 -55l41 43q12 12 26 12q11 0 19 -7.5t8 -18.5q0 -13 -10 -23l-43 -45q63 -74 63 -174v-2q0 -111 -78 -190.5t-193 -79.5z" glyph-name="oslash" unicode="ø" horiz-adv-x="646"/>
<glyph d="M305 591q-28 0 -47 19l-75 71q-14 14 -14 23q0 10 18 20t36 10q21 0 36 -23l60 -91q5 -7 5 -15q0 -14 -19 -14zM529 483v-449q0 -16 -11 -27.5t-27 -11.5t-27 11.5t-11 27.5v56q-63 -101 -177 -101q-92 0 -145 56.5t-53 150.5v287q0 17 11 28t27 11t27.5 -11.5 t11.5 -27.5v-268q0 -73 37.5 -114.5t105.5 -41.5q67 0 111 45t44 117v262q0 17 11 28t27 11t27 -11.5t11 -27.5z" glyph-name="ugrave" unicode="ù" horiz-adv-x="616"/>
<glyph d="M529 483v-449q0 -16 -11 -27.5t-27 -11.5t-27 11.5t-11 27.5v56q-63 -101 -177 -101q-92 0 -145 56.5t-53 150.5v287q0 17 11 28t27 11t27.5 -11.5t11.5 -27.5v-268q0 -73 37.5 -114.5t105.5 -41.5q67 0 111 45t44 117v262q0 17 11 28t27 11t27 -11.5t11 -27.5zM301 591 q-19 0 -19 14q0 8 5 15l60 91q15 23 36 23q18 0 36 -10t18 -20q0 -9 -14 -23l-75 -71q-19 -19 -47 -19z" glyph-name="uacute" unicode="ú" horiz-adv-x="616"/>
<glyph d="M529 483v-449q0 -16 -11 -27.5t-27 -11.5t-27 11.5t-11 27.5v56q-63 -101 -177 -101q-92 0 -145 56.5t-53 150.5v287q0 17 11 28t27 11t27.5 -11.5t11.5 -27.5v-268q0 -73 37.5 -114.5t105.5 -41.5q67 0 111 45t44 117v262q0 17 11 28t27 11t27 -11.5t11 -27.5zM302 662 l-59 -52q-20 -19 -48 -19q-18 0 -18 14q0 5 7 17l70 86q19 22 40 22h18q21 0 40 -22l70 -86q7 -12 7 -17q0 -14 -19 -14q-29 0 -49 19z" glyph-name="ucircumflex" unicode="û" horiz-adv-x="616"/>
<glyph d="M529 483v-449q0 -16 -11 -27.5t-27 -11.5t-27 11.5t-11 27.5v56q-63 -101 -177 -101q-92 0 -145 56.5t-53 150.5v287q0 17 11 28t27 11t27.5 -11.5t11.5 -27.5v-268q0 -73 37.5 -114.5t105.5 -41.5q67 0 111 45t44 117v262q0 17 11 28t27 11t27 -11.5t11 -27.5zM214 695 q20 0 33.5 -13t13.5 -32v-15q0 -19 -13.5 -32t-33.5 -13t-33.5 13t-13.5 32v15q0 19 13.5 32t33.5 13zM392 695q20 0 33.5 -13t13.5 -32v-15q0 -19 -13.5 -32t-33.5 -13t-33.5 13t-13.5 32v15q0 19 13.5 32t33.5 13z" glyph-name="udieresis" unicode="ü" horiz-adv-x="616"/>
<glyph d="M294 591q-19 0 -19 14q0 8 5 15l60 91q15 23 36 23q18 0 36 -10t18 -20q0 -9 -14 -23l-75 -71q-19 -19 -47 -19zM161 -163q-42 0 -85 15q-24 10 -24 33q0 14 10 23.5t23 9.5q7 0 19 -4q27 -9 56 -9q35 0 58.5 21.5t45.5 70.5l4 8l-216 458q-5 12 -5 21q0 16 11.5 27 t27.5 11q27 0 39 -30l180 -406l160 407q11 29 37 29q16 0 27 -11t11 -27q0 -7 -4 -19l-202 -482q-33 -79 -73.5 -112.5t-99.5 -33.5z" glyph-name="yacute" unicode="ý" horiz-adv-x="587"/>
<glyph d="M347 58q78 0 130 54t52 145v2q0 89 -53 144.5t-129 55.5q-75 0 -131 -56.5t-56 -142.5v-2q0 -87 56 -143.5t131 -56.5zM86 -126v822q0 16 11 27.5t27 11.5t27.5 -11.5t11.5 -27.5v-283q78 115 198 115q99 0 173 -73t74 -195v-2q0 -121 -74 -195t-173 -74q-122 0 -198 110 v-225q0 -17 -11 -28t-27 -11q-17 0 -28 11.5t-11 27.5z" glyph-name="thorn" unicode="þ" horiz-adv-x="664"/>
<glyph d="M207 695q20 0 33.5 -13t13.5 -32v-15q0 -19 -13.5 -32t-33.5 -13t-33.5 13t-13.5 32v15q0 19 13.5 32t33.5 13zM385 695q20 0 33.5 -13t13.5 -32v-15q0 -19 -13.5 -32t-33.5 -13t-33.5 13t-13.5 32v15q0 19 13.5 32t33.5 13zM161 -163q-42 0 -85 15q-24 10 -24 33 q0 14 10 23.5t23 9.5q7 0 19 -4q27 -9 56 -9q35 0 58.5 21.5t45.5 70.5l4 8l-216 458q-5 12 -5 21q0 16 11.5 27t27.5 11q27 0 39 -30l180 -406l160 407q11 29 37 29q16 0 27 -11t11 -27q0 -7 -4 -19l-202 -482q-33 -79 -73.5 -112.5t-99.5 -33.5z" glyph-name="ydieresis" unicode="ÿ" horiz-adv-x="587"/>
<glyph d="M523 792h-264q-13 0 -22.5 9.5t-9.5 22.5t9.5 22.5t22.5 9.5h264q13 0 22.5 -9.5t9.5 -22.5t-9.5 -22.5t-22.5 -9.5zM229 257h322l-161 358zM51 31q0 11 5 21l284 621q16 35 50 35h4q35 0 49 -35l284 -620q5 -12 5 -20q0 -16 -11 -27t-27 -11q-26 0 -39 29l-73 161h-384 l-73 -163q-11 -27 -38 -27q-15 0 -25.5 10.5t-10.5 25.5z" glyph-name="Amacron" unicode="Ā" horiz-adv-x="784"/>
<glyph d="M421 615h-264q-13 0 -22.5 9.5t-9.5 22.5t9.5 22.5t22.5 9.5h264q13 0 22.5 -9.5t9.5 -22.5t-9.5 -22.5t-22.5 -9.5zM255 50q72 0 122.5 39.5t50.5 100.5v50q-76 22 -152 22q-72 0 -111.5 -29t-39.5 -78v-2q0 -47 37.5 -75t92.5 -28zM240 -11q-78 0 -135.5 43t-57.5 118 v2q0 80 60 123.5t161 43.5q81 0 159 -22v18q0 69 -40 105t-114 36q-69 0 -134 -29q-7 -3 -14 -3q-14 0 -24 10t-10 23q0 24 21 32q81 35 169 35q110 0 167 -57q53 -53 53 -151v-283q0 -16 -10.5 -27t-26.5 -11t-26.5 10.5t-10.5 25.5v47q-68 -89 -187 -89z" glyph-name="amacron" unicode="ā" horiz-adv-x="579"/>
<glyph d="M391 770q-92 0 -132 73q-10 17 -10 35q0 13 7.5 21.5t20.5 8.5q18 0 28 -19q22 -55 86 -55t86 55q10 19 28 19q13 0 20.5 -8.5t7.5 -21.5q0 -18 -10 -35q-40 -73 -132 -73zM229 257h322l-161 358zM51 31q0 11 5 21l284 621q16 35 50 35h4q35 0 49 -35l284 -620 q5 -12 5 -20q0 -16 -11 -27t-27 -11q-26 0 -39 29l-73 161h-384l-73 -163q-11 -27 -38 -27q-15 0 -25.5 10.5t-10.5 25.5z" glyph-name="Abreve" unicode="Ă" horiz-adv-x="784"/>
<glyph d="M289 593q-92 0 -132 73q-10 17 -10 35q0 13 7.5 21.5t20.5 8.5q18 0 28 -19q22 -55 86 -55t86 55q10 19 28 19q13 0 20.5 -8.5t7.5 -21.5q0 -18 -10 -35q-40 -73 -132 -73zM255 50q72 0 122.5 39.5t50.5 100.5v50q-76 22 -152 22q-72 0 -111.5 -29t-39.5 -78v-2 q0 -47 37.5 -75t92.5 -28zM240 -11q-78 0 -135.5 43t-57.5 118v2q0 80 60 123.5t161 43.5q81 0 159 -22v18q0 69 -40 105t-114 36q-69 0 -134 -29q-7 -3 -14 -3q-14 0 -24 10t-10 23q0 24 21 32q81 35 169 35q110 0 167 -57q53 -53 53 -151v-283q0 -16 -10.5 -27t-26.5 -11 t-26.5 10.5t-10.5 25.5v47q-68 -89 -187 -89z" glyph-name="abreve" unicode="ă" horiz-adv-x="579"/>
<glyph d="M232 257h322l-160 358zM54 31q0 8 5 21l284 621q16 35 50 35h4q34 0 50 -35l285 -624q5 -10 5 -20q0 -16 -16 -32q-44 -38 -44 -70q0 -34 50 -44q29 -6 29 -24q0 -23 -28 -23q-40 0 -78.5 18.5t-38.5 61.5q0 44 55 91l-80 178h-385l-73 -163q-11 -27 -37 -27 q-16 0 -26.5 10.5t-10.5 25.5z" glyph-name="Aogonek" unicode="Ą" horiz-adv-x="790"/>
<glyph d="M255 50q72 0 122.5 39.5t50.5 100.5v50q-76 22 -152 22q-72 0 -111.5 -29t-39.5 -78v-2q0 -47 37.5 -75t92.5 -28zM374 -85q0 45 58 95q-5 4 -5 67v1q-68 -89 -187 -89q-78 0 -135.5 43t-57.5 118v2q0 80 60 123.5t161 43.5q81 0 159 -22v18q0 69 -40 105t-114 36 q-69 0 -134 -29q-7 -3 -14 -3q-14 0 -24 10t-10 23q0 24 21 32q81 35 169 35q110 0 167 -57q53 -53 53 -151v-285q0 -20 -18 -35q-43 -39 -43 -69q0 -35 49 -44q29 -6 29 -24q0 -23 -27 -23q-23 0 -47 5.5t-47 24.5t-23 49z" glyph-name="aogonek" unicode="ą" horiz-adv-x="579"/>
<glyph d="M419 -12q-150 0 -250.5 104t-100.5 256v2q0 151 101 256.5t253 105.5q79 0 137.5 -23t112.5 -68q16 -14 16 -32q0 -16 -12 -27.5t-28 -11.5q-12 0 -26 9q-90 80 -201 80q-116 0 -193.5 -83t-77.5 -204v-2q0 -122 78 -205.5t193 -83.5t208 85q11 11 25 11q15 0 26.5 -11.5 t11.5 -26.5q0 -17 -13 -28q-113 -103 -260 -103zM412 768q-19 0 -19 14q0 8 5 15l60 91q15 23 36 23q18 0 36 -10t18 -20q0 -9 -14 -23l-75 -71q-19 -19 -47 -19z" glyph-name="Cacute" unicode="Ć" horiz-adv-x="738"/>
<glyph d="M319 -12q-112 0 -188.5 79t-76.5 189v2q0 111 76.5 190.5t188.5 79.5q108 0 190 -75q12 -10 12 -27q0 -16 -11 -26.5t-26 -10.5q-14 0 -25 9q-67 62 -141 62q-78 0 -131.5 -58t-53.5 -142v-2q0 -84 54.5 -142.5t135.5 -58.5q77 0 144 63q10 10 22 10q14 0 24.5 -10.5 t10.5 -24.5t-10 -24q-83 -83 -195 -83zM311 591q-19 0 -19 14q0 8 5 15l60 91q15 23 36 23q18 0 36 -10t18 -20q0 -9 -14 -23l-75 -71q-19 -19 -47 -19z" glyph-name="cacute" unicode="ć" horiz-adv-x="571"/>
<glyph d="M462 827v-14q0 -20 -14 -33t-34 -13t-34 13t-14 33v14q0 20 13.5 32.5t34.5 12.5t34.5 -12.5t13.5 -32.5zM419 -12q-150 0 -250.5 104t-100.5 256v2q0 151 101 256.5t253 105.5q79 0 137.5 -23t112.5 -68q16 -14 16 -32q0 -16 -12 -27.5t-28 -11.5q-12 0 -26 9 q-90 80 -201 80q-116 0 -193.5 -83t-77.5 -204v-2q0 -122 78 -205.5t193 -83.5t208 85q11 11 25 11q15 0 26.5 -11.5t11.5 -26.5q0 -17 -13 -28q-113 -103 -260 -103z" glyph-name="Cdotaccent" unicode="Ċ" horiz-adv-x="738"/>
<glyph d="M362 650v-14q0 -20 -14 -33t-34 -13t-34 13t-14 33v14q0 20 13.5 32.5t34.5 12.5t34.5 -12.5t13.5 -32.5zM319 -12q-112 0 -188.5 79t-76.5 189v2q0 111 76.5 190.5t188.5 79.5q108 0 190 -75q12 -10 12 -27q0 -16 -11 -26.5t-26 -10.5q-14 0 -25 9q-67 62 -141 62 q-78 0 -131.5 -58t-53.5 -142v-2q0 -84 54.5 -142.5t135.5 -58.5q77 0 144 63q10 10 22 10q14 0 24.5 -10.5t10.5 -24.5t-10 -24q-83 -83 -195 -83z" glyph-name="cdotaccent" unicode="ċ" horiz-adv-x="571"/>
<glyph d="M419 -12q-150 0 -250.5 104t-100.5 256v2q0 151 101 256.5t253 105.5q79 0 137.5 -23t112.5 -68q16 -14 16 -32q0 -16 -12 -27.5t-28 -11.5q-12 0 -26 9q-90 80 -201 80q-116 0 -193.5 -83t-77.5 -204v-2q0 -122 78 -205.5t193 -83.5t208 85q11 11 25 11q15 0 26.5 -11.5 t11.5 -26.5q0 -17 -13 -28q-113 -103 -260 -103zM415 836l59 53q20 18 48 18q18 0 18 -14q0 -5 -7 -16l-70 -86q-18 -23 -40 -23h-18q-22 0 -40 23l-70 86q-7 11 -7 16q0 14 19 14q29 0 49 -18z" glyph-name="Ccaron" unicode="Č" horiz-adv-x="738"/>
<glyph d="M319 -12q-112 0 -188.5 79t-76.5 189v2q0 111 76.5 190.5t188.5 79.5q108 0 190 -75q12 -10 12 -27q0 -16 -11 -26.5t-26 -10.5q-14 0 -25 9q-67 62 -141 62q-78 0 -131.5 -58t-53.5 -142v-2q0 -84 54.5 -142.5t135.5 -58.5q77 0 144 63q10 10 22 10q14 0 24.5 -10.5 t10.5 -24.5t-10 -24q-83 -83 -195 -83zM315 659l59 53q20 18 48 18q18 0 18 -14q0 -6 -7 -16l-70 -86q-18 -23 -40 -23h-18q-22 0 -40 23l-70 86q-7 10 -7 16q0 14 19 14q29 0 49 -18z" glyph-name="ccaron" unicode="č" horiz-adv-x="571"/>
<glyph d="M178 73h164q130 0 210 78t80 197v2q0 119 -80 198t-210 79h-164v-554zM99 40v620q0 16 11.5 28t27.5 12h204q163 0 267.5 -99.5t104.5 -248.5v-2q0 -150 -104.5 -250t-267.5 -100h-204q-16 0 -27.5 12t-11.5 28zM376 826l59 53q20 18 48 18q18 0 18 -14q0 -5 -7 -16 l-70 -86q-18 -23 -40 -23h-18q-22 0 -40 23l-70 86q-7 11 -7 16q0 14 19 14q29 0 49 -18z" glyph-name="Dcaron" unicode="Ď" horiz-adv-x="782"/>
<glyph d="M317 459q-78 0 -130 -54t-52 -145v-2q0 -89 53.5 -144.5t128.5 -55.5t131 56.5t56 143.5v2q0 86 -56 142.5t-131 56.5zM578 696v-662q0 -16 -11 -27.5t-27 -11.5t-27.5 11.5t-11.5 27.5v70q-78 -115 -198 -115q-99 0 -173 73t-74 195v2q0 121 74 195t173 74 q122 0 198 -110v278q0 17 11 28t27 11q17 0 28 -11.5t11 -27.5zM642 586l9 116q3 32 34 32h15q22 0 22 -21q0 -9 -5 -24l-35 -106q-6 -20 -22 -20q-21 0 -18 23z" glyph-name="dcaron" unicode="ď" horiz-adv-x="664"/>
<glyph d="M208 627v-239h179q14 0 25 -10.5t11 -25.5t-11 -25.5t-25 -10.5h-179v-243h164q130 0 210 78t80 197v2q0 119 -80 198t-210 79h-164zM85 388h44v272q0 16 11.5 28t27.5 12h204q163 0 267.5 -99.5t104.5 -248.5v-2q0 -150 -104.5 -250t-267.5 -100h-204q-16 0 -27.5 12 t-11.5 28v276h-44q-15 0 -25.5 10.5t-10.5 25.5t10.5 25.5t25.5 10.5z" glyph-name="Dcroat" unicode="Đ" horiz-adv-x="812"/>
<glyph d="M317 459q-78 0 -130 -54t-52 -145v-2q0 -89 53.5 -144.5t128.5 -55.5t131 56.5t56 143.5v2q0 86 -56 142.5t-131 56.5zM578 696v-29h46q11 0 19.5 -8t8.5 -19t-8.5 -19.5t-19.5 -8.5h-46v-578q0 -16 -11 -27.5t-27 -11.5t-27.5 11.5t-11.5 27.5v70q-78 -115 -198 -115 q-99 0 -173 73t-74 195v2q0 121 74 195t173 74q122 0 198 -110v194h-154q-11 0 -19 8.5t-8 19.5t8 19t19 8h154v29q0 17 11 28t27 11q17 0 28 -11.5t11 -27.5z" glyph-name="dcroat" unicode="đ" horiz-adv-x="664"/>
<glyph d="M485 782h-264q-13 0 -22.5 9.5t-9.5 22.5t9.5 22.5t22.5 9.5h264q13 0 22.5 -9.5t9.5 -22.5t-9.5 -22.5t-22.5 -9.5zM138 0q-16 0 -27.5 12t-11.5 28v620q0 16 11.5 28t27.5 12h435q15 0 25.5 -10.5t10.5 -25.5t-10.5 -25.5t-25.5 -10.5h-395v-239h350q15 0 25.5 -11 t10.5 -25q0 -15 -10.5 -25.5t-25.5 -10.5h-350v-245h400q15 0 25.5 -10.5t10.5 -25.5t-10.5 -25.5t-25.5 -10.5h-440z" glyph-name="Emacron" unicode="Ē" horiz-adv-x="670"/>
<glyph d="M433 615h-264q-13 0 -22.5 9.5t-9.5 22.5t9.5 22.5t22.5 9.5h264q13 0 22.5 -9.5t9.5 -22.5t-9.5 -22.5t-22.5 -9.5zM507 66q-81 -78 -195 -78q-109 0 -183.5 75.5t-74.5 193.5v2q0 113 71 191t177 78q110 0 175 -77t65 -185q0 -15 -10.5 -25.5t-25.5 -10.5h-374 q8 -82 59.5 -128.5t122.5 -46.5q84 0 149 60q11 9 22 9q14 0 24 -9.5t10 -23.5q0 -15 -12 -25zM132 287h333q-6 76 -49 126t-116 50q-67 0 -113.5 -50t-54.5 -126z" glyph-name="emacron" unicode="ē" horiz-adv-x="592"/>
<glyph d="M353 760q-92 0 -132 73q-10 17 -10 35q0 13 7.5 21.5t20.5 8.5q18 0 28 -19q22 -55 86 -55t86 55q10 19 28 19q13 0 20.5 -8.5t7.5 -21.5q0 -18 -10 -35q-40 -73 -132 -73zM138 0q-16 0 -27.5 12t-11.5 28v620q0 16 11.5 28t27.5 12h435q15 0 25.5 -10.5t10.5 -25.5 t-10.5 -25.5t-25.5 -10.5h-395v-239h350q15 0 25.5 -11t10.5 -25q0 -15 -10.5 -25.5t-25.5 -10.5h-350v-245h400q15 0 25.5 -10.5t10.5 -25.5t-10.5 -25.5t-25.5 -10.5h-440z" glyph-name="Ebreve" unicode="Ĕ" horiz-adv-x="670"/>
<glyph d="M301 593q-92 0 -132 73q-10 17 -10 35q0 13 7.5 21.5t20.5 8.5q18 0 28 -19q22 -55 86 -55t86 55q10 19 28 19q13 0 20.5 -8.5t7.5 -21.5q0 -18 -10 -35q-40 -73 -132 -73zM507 66q-81 -78 -195 -78q-109 0 -183.5 75.5t-74.5 193.5v2q0 113 71 191t177 78q110 0 175 -77 t65 -185q0 -15 -10.5 -25.5t-25.5 -10.5h-374q8 -82 59.5 -128.5t122.5 -46.5q84 0 149 60q11 9 22 9q14 0 24 -9.5t10 -23.5q0 -15 -12 -25zM132 287h333q-6 76 -49 126t-116 50q-67 0 -113.5 -50t-54.5 -126z" glyph-name="ebreve" unicode="ĕ" horiz-adv-x="592"/>
<glyph d="M401 817v-14q0 -20 -14 -33t-34 -13t-34 13t-14 33v14q0 20 13.5 32.5t34.5 12.5t34.5 -12.5t13.5 -32.5zM138 0q-16 0 -27.5 12t-11.5 28v620q0 16 11.5 28t27.5 12h435q15 0 25.5 -10.5t10.5 -25.5t-10.5 -25.5t-25.5 -10.5h-395v-239h350q15 0 25.5 -11t10.5 -25 q0 -15 -10.5 -25.5t-25.5 -10.5h-350v-245h400q15 0 25.5 -10.5t10.5 -25.5t-10.5 -25.5t-25.5 -10.5h-440z" glyph-name="Edotaccent" unicode="Ė" horiz-adv-x="670"/>
<glyph d="M349 650v-14q0 -20 -14 -33t-34 -13t-34 13t-14 33v14q0 20 13.5 32.5t34.5 12.5t34.5 -12.5t13.5 -32.5zM507 66q-81 -78 -195 -78q-109 0 -183.5 75.5t-74.5 193.5v2q0 113 71 191t177 78q110 0 175 -77t65 -185q0 -15 -10.5 -25.5t-25.5 -10.5h-374q8 -82 59.5 -128.5 t122.5 -46.5q84 0 149 60q11 9 22 9q14 0 24 -9.5t10 -23.5q0 -15 -12 -25zM132 287h333q-6 76 -49 126t-116 50q-67 0 -113.5 -50t-54.5 -126z" glyph-name="edotaccent" unicode="ė" horiz-adv-x="592"/>
<glyph d="M138 0q-16 0 -27.5 12t-11.5 28v620q0 16 11.5 28t27.5 12h435q15 0 25.5 -10.5t10.5 -25.5t-10.5 -25.5t-25.5 -10.5h-395v-239h350q15 0 25.5 -11t10.5 -25q0 -15 -10.5 -25.5t-25.5 -10.5h-350v-245h399q16 0 26.5 -9.5t10.5 -23.5q0 -20 -22 -37q-31 -25 -43 -41 t-12 -35q0 -33 48 -43q30 -5 30 -24q0 -23 -28 -23q-23 0 -47 5.5t-47 24.5t-23 50q0 41 51 84h-383z" glyph-name="Eogonek" unicode="Ę" horiz-adv-x="670"/>
<glyph d="M132 287h333q-6 76 -49 126t-116 50q-67 0 -113.5 -50t-54.5 -126zM542 266q0 -15 -10.5 -25.5t-25.5 -10.5h-374q8 -82 59.5 -128.5t122.5 -46.5q84 0 149 60q11 9 22 9q14 0 24 -9.5t10 -23.5q0 -15 -12 -25q-6 -6 -40 -36q-65 -56 -65 -97q0 -40 50 -50q30 -5 30 -24 q0 -23 -28 -23q-47 0 -82 21t-35 63q0 38 36 74q-29 -6 -61 -6q-109 0 -183.5 75.5t-74.5 193.5v2q0 113 71 191t177 78q110 0 175 -77t65 -185z" glyph-name="eogonek" unicode="ę" horiz-adv-x="592"/>
<glyph d="M138 0q-16 0 -27.5 12t-11.5 28v620q0 16 11.5 28t27.5 12h435q15 0 25.5 -10.5t10.5 -25.5t-10.5 -25.5t-25.5 -10.5h-395v-239h350q15 0 25.5 -11t10.5 -25q0 -15 -10.5 -25.5t-25.5 -10.5h-350v-245h400q15 0 25.5 -10.5t10.5 -25.5t-10.5 -25.5t-25.5 -10.5h-440z M354 826l59 53q20 18 48 18q18 0 18 -14q0 -5 -7 -16l-70 -86q-18 -23 -40 -23h-18q-22 0 -40 23l-70 86q-7 11 -7 16q0 14 19 14q29 0 49 -18z" glyph-name="Ecaron" unicode="Ě" horiz-adv-x="670"/>
<glyph d="M507 66q-81 -78 -195 -78q-109 0 -183.5 75.5t-74.5 193.5v2q0 113 71 191t177 78q110 0 175 -77t65 -185q0 -15 -10.5 -25.5t-25.5 -10.5h-374q8 -82 59.5 -128.5t122.5 -46.5q84 0 149 60q11 9 22 9q14 0 24 -9.5t10 -23.5q0 -15 -12 -25zM132 287h333q-6 76 -49 126 t-116 50q-67 0 -113.5 -50t-54.5 -126zM302 659l59 53q20 18 48 18q18 0 18 -14q0 -6 -7 -16l-70 -86q-18 -23 -40 -23h-18q-22 0 -40 23l-70 86q-7 10 -7 16q0 14 19 14q29 0 49 -18z" glyph-name="ecaron" unicode="ě" horiz-adv-x="592"/>
<glyph d="M412 770q-92 0 -132 73q-10 17 -10 35q0 13 7.5 21.5t20.5 8.5q18 0 28 -19q22 -55 86 -55t86 55q10 19 28 19q13 0 20.5 -8.5t7.5 -21.5q0 -18 -10 -35q-40 -73 -132 -73zM424 -12q-161 0 -258.5 103t-97.5 257v2q0 148 99 255t252 107q137 0 239 -75q16 -12 16 -32 q0 -16 -11.5 -28t-27.5 -12q-12 0 -25 10q-84 64 -194 64q-114 0 -190 -84t-76 -203v-2q0 -127 75.5 -209t201.5 -82q116 0 202 70v174h-188q-14 0 -24.5 10.5t-10.5 24.5q0 15 10.5 25.5t24.5 10.5h225q16 0 27.5 -12t11.5 -28v-213q0 -30 -27 -48q-116 -85 -254 -85z" glyph-name="Gbreve" unicode="Ğ" horiz-adv-x="784"/>
<glyph d="M328 593q-92 0 -132 73q-10 17 -10 35q0 13 7.5 21.5t20.5 8.5q18 0 28 -19q22 -55 86 -55t86 55q10 19 28 19q13 0 20.5 -8.5t7.5 -21.5q0 -18 -10 -35q-40 -73 -132 -73zM314 108q76 0 133 49.5t57 125.5v2q0 77 -56.5 126t-133.5 49q-75 0 -127 -48t-52 -126v-2 q0 -76 52.5 -126t126.5 -50zM315 -162q-117 0 -216 61q-20 10 -20 32q0 13 11 23.5t24 10.5q9 0 17 -5q84 -56 183 -56q87 0 137.5 47.5t50.5 136.5v61q-82 -109 -203 -109q-98 0 -170.5 67.5t-72.5 174.5v2q0 109 73 176.5t170 67.5q124 0 202 -104v59q0 16 11 27.5 t27 11.5t27.5 -11.5t11.5 -27.5v-393q0 -117 -66 -183q-69 -69 -197 -69z" glyph-name="gbreve" unicode="ğ" horiz-adv-x="664"/>
<glyph d="M460 827v-14q0 -20 -14 -33t-34 -13t-34 13t-14 33v14q0 20 13.5 32.5t34.5 12.5t34.5 -12.5t13.5 -32.5zM424 -12q-161 0 -258.5 103t-97.5 257v2q0 148 99 255t252 107q137 0 239 -75q16 -12 16 -32q0 -16 -11.5 -28t-27.5 -12q-12 0 -25 10q-84 64 -194 64 q-114 0 -190 -84t-76 -203v-2q0 -127 75.5 -209t201.5 -82q116 0 202 70v174h-188q-14 0 -24.5 10.5t-10.5 24.5q0 15 10.5 25.5t24.5 10.5h225q16 0 27.5 -12t11.5 -28v-213q0 -30 -27 -48q-116 -85 -254 -85z" glyph-name="Gdotaccent" unicode="Ġ" horiz-adv-x="784"/>
<glyph d="M376 650v-14q0 -20 -14 -33t-34 -13t-34 13t-14 33v14q0 20 13.5 32.5t34.5 12.5t34.5 -12.5t13.5 -32.5zM314 108q76 0 133 49.5t57 125.5v2q0 77 -56.5 126t-133.5 49q-75 0 -127 -48t-52 -126v-2q0 -76 52.5 -126t126.5 -50zM315 -162q-117 0 -216 61q-20 10 -20 32 q0 13 11 23.5t24 10.5q9 0 17 -5q84 -56 183 -56q87 0 137.5 47.5t50.5 136.5v61q-82 -109 -203 -109q-98 0 -170.5 67.5t-72.5 174.5v2q0 109 73 176.5t170 67.5q124 0 202 -104v59q0 16 11 27.5t27 11.5t27.5 -11.5t11.5 -27.5v-393q0 -117 -66 -183q-69 -69 -197 -69z " glyph-name="gdotaccent" unicode="ġ" horiz-adv-x="664"/>
<glyph d="M424 -12q-161 0 -258.5 103t-97.5 257v2q0 148 99 255t252 107q137 0 239 -75q16 -12 16 -32q0 -16 -11.5 -28t-27.5 -12q-12 0 -25 10q-84 64 -194 64q-114 0 -190 -84t-76 -203v-2q0 -127 75.5 -209t201.5 -82q116 0 202 70v174h-188q-14 0 -24.5 10.5t-10.5 24.5 q0 15 10.5 25.5t24.5 10.5h225q16 0 27.5 -12t11.5 -28v-213q0 -30 -27 -48q-116 -85 -254 -85zM405 -155q-40 7 -40 41v5q0 18 13 30.5t33 12.5q21 0 34 -14t13 -38v-5q0 -61 -32 -90q-13 -13 -34.5 -21.5t-37.5 -8.5q-19 0 -19 14q0 13 17 17q29 8 41.5 21t11.5 36z" glyph-name="Gcommaaccent" unicode="Ģ" horiz-adv-x="784"/>
<glyph d="M314 108q76 0 133 49.5t57 125.5v2q0 77 -56.5 126t-133.5 49q-75 0 -127 -48t-52 -126v-2q0 -76 52.5 -126t126.5 -50zM315 -162q-117 0 -216 61q-20 10 -20 32q0 13 11 23.5t24 10.5q9 0 17 -5q84 -56 183 -56q87 0 137.5 47.5t50.5 136.5v61q-82 -109 -203 -109 q-98 0 -170.5 67.5t-72.5 174.5v2q0 109 73 176.5t170 67.5q124 0 202 -104v59q0 16 11 27.5t27 11.5t27.5 -11.5t11.5 -27.5v-393q0 -117 -66 -183q-69 -69 -197 -69zM334 679q40 -7 40 -41v-5q0 -18 -13 -30.5t-33 -12.5q-21 0 -34 14t-13 38v5q0 61 32 90 q13 13 34.5 21.5t37.5 8.5q19 0 19 -14q0 -13 -17 -17q-29 -8 -41.5 -21t-11.5 -36z" glyph-name="gcommaaccent" unicode="ģ" horiz-adv-x="664"/>
<glyph d="M199 389h404v122h-404v-122zM120 35v476h-47q-13 0 -22 8.5t-9 21.5q0 12 9 21t22 9h47v94q0 16 11.5 28t27.5 12q17 0 28.5 -11.5t11.5 -28.5v-94h404v94q0 17 11.5 28.5t28.5 11.5q16 0 27.5 -12t11.5 -28v-94h49q12 0 21 -9t9 -21q0 -13 -9 -21.5t-21 -8.5h-49v-476 q0 -16 -11.5 -28t-27.5 -12q-17 0 -28.5 11.5t-11.5 28.5v280h-404v-280q0 -17 -11.5 -28.5t-28.5 -11.5q-16 0 -27.5 12t-11.5 28z" glyph-name="Hbar" unicode="Ħ" horiz-adv-x="804"/>
<glyph d="M86 34v578h-46q-11 0 -19.5 8.5t-8.5 19.5t8.5 19t19.5 8h46v29q0 16 11 27.5t27 11.5t27.5 -11.5t11.5 -27.5v-29h154q11 0 19.5 -8t8.5 -19t-8.5 -19.5t-19.5 -8.5h-154v-185q61 101 177 101q92 0 145 -56.5t53 -150.5v-287q0 -16 -11 -27.5t-27 -11.5t-27.5 11.5 t-11.5 27.5v268q0 73 -37.5 114.5t-105.5 41.5q-67 0 -111 -45t-44 -117v-262q0 -17 -11 -28t-27 -11q-17 0 -28 11.5t-11 27.5z" glyph-name="hbar" unicode="ħ" horiz-adv-x="616"/>
<glyph d="M278 782h-264q-13 0 -22.5 9.5t-9.5 22.5t9.5 22.5t22.5 9.5h264q13 0 22.5 -9.5t9.5 -22.5t-9.5 -22.5t-22.5 -9.5zM106 35v630q0 16 11.5 28t27.5 12q17 0 28.5 -11.5t11.5 -28.5v-630q0 -17 -11.5 -28.5t-28.5 -11.5q-16 0 -27.5 12t-11.5 28z" glyph-name="Imacron" unicode="Ī" horiz-adv-x="291"/>
<glyph d="M264 615h-264q-13 0 -22.5 9.5t-9.5 22.5t9.5 22.5t22.5 9.5h264q13 0 22.5 -9.5t9.5 -22.5t-9.5 -22.5t-22.5 -9.5zM93 34v449q0 16 11 27.5t27 11.5q17 0 28 -11t11 -28v-449q0 -17 -11 -28t-27 -11t-27.5 11.5t-11.5 27.5z" glyph-name="imacron" unicode="ī" horiz-adv-x="263"/>
<glyph d="M146 760q-92 0 -132 73q-10 17 -10 35q0 13 7.5 21.5t20.5 8.5q18 0 28 -19q22 -55 86 -55t86 55q10 19 28 19q13 0 20.5 -8.5t7.5 -21.5q0 -18 -10 -35q-40 -73 -132 -73zM106 35v630q0 16 11.5 28t27.5 12q17 0 28.5 -11.5t11.5 -28.5v-630q0 -17 -11.5 -28.5 t-28.5 -11.5q-16 0 -27.5 12t-11.5 28z" glyph-name="Ibreve" unicode="Ĭ" horiz-adv-x="291"/>
<glyph d="M132 593q-92 0 -132 73q-10 17 -10 35q0 13 7.5 21.5t20.5 8.5q18 0 28 -19q22 -55 86 -55t86 55q10 19 28 19q13 0 20.5 -8.5t7.5 -21.5q0 -18 -10 -35q-40 -73 -132 -73zM93 34v449q0 16 11 27.5t27 11.5q17 0 28 -11t11 -28v-449q0 -17 -11 -28t-27 -11t-27.5 11.5 t-11.5 27.5z" glyph-name="ibreve" unicode="ĭ" horiz-adv-x="263"/>
<glyph d="M58 -84q0 45 55 92q-7 6 -7 16v641q0 16 11.5 28t27.5 12q17 0 28.5 -11.5t11.5 -28.5v-633q0 -19 -17 -35q-44 -40 -44 -70q0 -34 50 -44q29 -6 29 -24q0 -23 -27 -23q-41 0 -79.5 18.5t-38.5 61.5z" glyph-name="Iogonek" unicode="Į" horiz-adv-x="291"/>
<glyph d="M86 666v13q0 18 13 29.5t32 11.5q20 0 33 -11.5t13 -29.5v-13q0 -18 -13 -29.5t-33 -11.5q-19 0 -32 11.5t-13 29.5zM170 483v-452q0 -20 -18 -35q-43 -39 -43 -69q0 -35 49 -44q29 -6 29 -24q0 -23 -27 -23q-23 0 -47 5.5t-47 24.5t-23 49q0 47 58 94q-8 6 -8 16v458 q0 16 11 27.5t27 11.5q17 0 28 -11t11 -28z" glyph-name="iogonek" unicode="į" horiz-adv-x="263"/>
<glyph d="M194 817v-14q0 -20 -14 -33t-34 -13t-34 13t-14 33v14q0 20 13.5 32.5t34.5 12.5t34.5 -12.5t13.5 -32.5zM106 35v630q0 16 11.5 28t27.5 12q17 0 28.5 -11.5t11.5 -28.5v-630q0 -17 -11.5 -28.5t-28.5 -11.5q-16 0 -27.5 12t-11.5 28z" glyph-name="Idotaccent" unicode="İ" horiz-adv-x="291"/>
<glyph d="M93 34v449q0 16 11 27.5t27 11.5q17 0 28 -11t11 -28v-449q0 -17 -11 -28t-27 -11t-27.5 11.5t-11.5 27.5z" glyph-name="dotlessi" unicode="ı" horiz-adv-x="263"/>
<glyph d="M99 35v630q0 16 11.5 28t27.5 12t28 -11.5t12 -28.5v-383l399 409q16 14 31 14t26.5 -12t11.5 -27t-13 -28l-248 -246l266 -328q11 -14 11 -29q0 -16 -12 -28t-28 -12q-19 0 -32 18l-261 325l-151 -151v-152q0 -17 -12 -28.5t-28 -11.5t-27.5 12t-11.5 28zM356 -149 q-40 7 -40 41v5q0 18 13 30.5t33 12.5q21 0 34 -14t13 -38v-5q0 -61 -32 -90q-13 -13 -34.5 -21.5t-37.5 -8.5q-19 0 -19 14q0 13 17 17q29 8 41.5 21t11.5 36z" glyph-name="Kcommaaccent" unicode="Ķ" horiz-adv-x="714"/>
<glyph d="M86 34v662q0 16 11 27.5t27 11.5t27.5 -11.5t11.5 -27.5v-474l280 285q13 15 30 15q15 0 25 -10.5t10 -25.5t-15 -30l-169 -166l185 -233q10 -13 10 -26q0 -16 -10.5 -26t-26.5 -10q-19 0 -33 18l-179 226l-107 -106v-99q0 -17 -11 -28t-27 -11q-17 0 -28 11.5t-11 27.5z M292 -154q-40 7 -40 41v5q0 18 13 30.5t33 12.5q21 0 34 -14t13 -38v-5q0 -61 -32 -90q-13 -13 -34.5 -21.5t-37.5 -8.5q-19 0 -19 14q0 13 17 17q29 8 41.5 21t11.5 36z" glyph-name="kcommaaccent" unicode="ķ" horiz-adv-x="568"/>
<glyph d="M99 40v625q0 16 11.5 28t27.5 12t28 -11.5t12 -28.5v-592h363q15 0 25.5 -11t10.5 -26t-10.5 -25.5t-25.5 -10.5h-403q-16 0 -27.5 12t-11.5 28zM152 758q-19 0 -19 14q0 8 5 15l60 91q15 23 36 23q18 0 36 -10t18 -20q0 -9 -14 -23l-75 -71q-19 -19 -47 -19z" glyph-name="Lacute" unicode="Ĺ" horiz-adv-x="619"/>
<glyph d="M93 34v662q0 16 11 27.5t27 11.5t27.5 -11.5t11.5 -27.5v-662q0 -17 -11 -28t-27 -11t-27.5 11.5t-11.5 27.5zM132 779q-19 0 -19 14q0 8 5 15l60 91q15 23 36 23q18 0 36 -10t18 -20q0 -9 -14 -23l-75 -71q-19 -19 -47 -19z" glyph-name="lacute" unicode="ĺ" horiz-adv-x="263"/>
<glyph d="M99 40v625q0 16 11.5 28t27.5 12t28 -11.5t12 -28.5v-592h363q15 0 25.5 -11t10.5 -26t-10.5 -25.5t-25.5 -10.5h-403q-16 0 -27.5 12t-11.5 28zM325 -154q-40 7 -40 41v5q0 18 13 30.5t33 12.5q21 0 34 -14t13 -38v-5q0 -61 -32 -90q-13 -13 -34.5 -21.5t-37.5 -8.5 q-19 0 -19 14q0 13 17 17q29 8 41.5 21t11.5 36z" glyph-name="Lcommaaccent" unicode="Ļ" horiz-adv-x="619"/>
<glyph d="M93 34v662q0 16 11 27.5t27 11.5t27.5 -11.5t11.5 -27.5v-662q0 -17 -11 -28t-27 -11t-27.5 11.5t-11.5 27.5zM125 -154q-40 7 -40 41v5q0 18 13 30.5t33 12.5q21 0 34 -14t13 -38v-5q0 -61 -32 -90q-13 -13 -34.5 -21.5t-37.5 -8.5q-19 0 -19 14q0 13 17 17 q29 8 41.5 21t11.5 36z" glyph-name="lcommaaccent" unicode="ļ" horiz-adv-x="263"/>
<glyph d="M99 40v625q0 16 11.5 28t27.5 12t28 -11.5t12 -28.5v-592h363q15 0 25.5 -11t10.5 -26t-10.5 -25.5t-25.5 -10.5h-403q-16 0 -27.5 12t-11.5 28zM270 554l9 116q3 32 34 32h15q22 0 22 -21q0 -9 -5 -24l-35 -106q-6 -20 -22 -20q-21 0 -18 23z" glyph-name="Lcaron" unicode="Ľ" horiz-adv-x="619"/>
<glyph d="M93 34v662q0 16 11 27.5t27 11.5t27.5 -11.5t11.5 -27.5v-662q0 -17 -11 -28t-27 -11t-27.5 11.5t-11.5 27.5zM236 585l9 116q3 32 34 32h15q22 0 22 -21q0 -9 -5 -24l-35 -106q-6 -20 -22 -20q-21 0 -18 23z" glyph-name="lcaron" unicode="ľ" horiz-adv-x="263"/>
<glyph d="M512 376v-14q0 -20 -14 -33t-34 -13t-34 13t-14 33v14q0 20 13.5 32.5t34.5 12.5t34.5 -12.5t13.5 -32.5zM99 40v625q0 16 11.5 28t27.5 12t28 -11.5t12 -28.5v-592h363q15 0 25.5 -11t10.5 -26t-10.5 -25.5t-25.5 -10.5h-403q-16 0 -27.5 12t-11.5 28z" glyph-name="Ldot" unicode="Ŀ" horiz-adv-x="619"/>
<glyph d="M93 34v662q0 16 11 27.5t27 11.5t27.5 -11.5t11.5 -27.5v-662q0 -17 -11 -28t-27 -11t-27.5 11.5t-11.5 27.5zM341 376v-14q0 -18 -12.5 -31t-30.5 -13t-30.5 13t-12.5 31v14q0 18 12.5 31t30.5 13t30.5 -13t12.5 -31z" glyph-name="ldot" unicode="ŀ" horiz-adv-x="331"/>
<glyph d="M402 385l-195 -60v-252h364q15 0 25.5 -11t10.5 -26t-10.5 -25.5t-25.5 -10.5h-403q-16 0 -27.5 12t-11.5 28v262l-29 -9q-8 -3 -17 -3q-14 0 -24 10t-10 25q0 25 26 34l54 16v290q0 17 11.5 28.5t27.5 11.5t27.5 -11.5t11.5 -28.5v-266l169 52q15 3 17 3q15 0 25 -10.5 t10 -25.5q0 -26 -26 -33z" glyph-name="Lslash" unicode="Ł" horiz-adv-x="649"/>
<glyph d="M256 361l-56 -17v-310q0 -17 -11 -28t-27 -11t-27 11t-11 28v287l-31 -9q-8 -3 -16 -3q-15 0 -25 10t-10 25q0 25 26 34q25 7 56 17v301q0 16 10.5 27.5t26.5 11.5t27.5 -11.5t11.5 -27.5v-278l30 9q8 3 17 3q14 0 24 -10t10 -25q0 -25 -25 -34z" glyph-name="lslash" unicode="ł" horiz-adv-x="323"/>
<glyph d="M99 34v630q0 16 11.5 27.5t27.5 11.5h11q22 0 40 -23l425 -542v528q0 16 11.5 27.5t27.5 11.5t27 -11.5t11 -27.5v-632q0 -16 -10 -26.5t-26 -10.5h-4q-20 0 -41 24l-434 555v-542q0 -16 -11.5 -27.5t-27.5 -11.5t-27 11.5t-11 27.5zM392 758q-19 0 -19 14q0 8 5 15 l60 91q15 23 36 23q18 0 36 -10t18 -20q0 -9 -14 -23l-75 -71q-19 -19 -47 -19z" glyph-name="Nacute" unicode="Ń" horiz-adv-x="790"/>
<glyph d="M86 34v449q0 16 11 27.5t27 11.5t27.5 -11t11.5 -28v-56q61 101 177 101q92 0 145 -56.5t53 -150.5v-287q0 -16 -11 -27.5t-27 -11.5t-27.5 11.5t-11.5 27.5v268q0 73 -37.5 114.5t-105.5 41.5q-67 0 -111 -45t-44 -117v-262q0 -17 -11 -28t-27 -11q-17 0 -28 11.5 t-11 27.5zM309 591q-19 0 -19 14q0 8 5 15l60 91q15 23 36 23q18 0 36 -10t18 -20q0 -9 -14 -23l-75 -71q-19 -19 -47 -19z" glyph-name="nacute" unicode="ń" horiz-adv-x="616"/>
<glyph d="M99 34v630q0 16 11.5 27.5t27.5 11.5h11q22 0 40 -23l425 -542v528q0 16 11.5 27.5t27.5 11.5t27 -11.5t11 -27.5v-632q0 -16 -10 -26.5t-26 -10.5h-4q-20 0 -41 24l-434 555v-542q0 -16 -11.5 -27.5t-27.5 -11.5t-27 11.5t-11 27.5zM388 -149q-40 7 -40 41v5 q0 18 13 30.5t33 12.5q21 0 34 -14t13 -38v-5q0 -61 -32 -90q-13 -13 -34.5 -21.5t-37.5 -8.5q-19 0 -19 14q0 13 17 17q29 8 41.5 21t11.5 36z" glyph-name="Ncommaaccent" unicode="Ņ" horiz-adv-x="790"/>
<glyph d="M86 34v449q0 16 11 27.5t27 11.5t27.5 -11t11.5 -28v-56q61 101 177 101q92 0 145 -56.5t53 -150.5v-287q0 -16 -11 -27.5t-27 -11.5t-27.5 11.5t-11.5 27.5v268q0 73 -37.5 114.5t-105.5 41.5q-67 0 -111 -45t-44 -117v-262q0 -17 -11 -28t-27 -11q-17 0 -28 11.5 t-11 27.5zM304 -154q-40 7 -40 41v5q0 18 13 30.5t33 12.5q21 0 34 -14t13 -38v-5q0 -61 -32 -90q-13 -13 -34.5 -21.5t-37.5 -8.5q-19 0 -19 14q0 13 17 17q29 8 41.5 21t11.5 36z" glyph-name="ncommaaccent" unicode="ņ" horiz-adv-x="616"/>
<glyph d="M99 34v630q0 16 11.5 27.5t27.5 11.5h11q22 0 40 -23l425 -542v528q0 16 11.5 27.5t27.5 11.5t27 -11.5t11 -27.5v-632q0 -16 -10 -26.5t-26 -10.5h-4q-20 0 -41 24l-434 555v-542q0 -16 -11.5 -27.5t-27.5 -11.5t-27 11.5t-11 27.5zM396 826l59 53q20 18 48 18 q18 0 18 -14q0 -5 -7 -16l-70 -86q-18 -23 -40 -23h-18q-22 0 -40 23l-70 86q-7 11 -7 16q0 14 19 14q29 0 49 -18z" glyph-name="Ncaron" unicode="Ň" horiz-adv-x="790"/>
<glyph d="M86 34v449q0 16 11 27.5t27 11.5t27.5 -11t11.5 -28v-56q61 101 177 101q92 0 145 -56.5t53 -150.5v-287q0 -16 -11 -27.5t-27 -11.5t-27.5 11.5t-11.5 27.5v268q0 73 -37.5 114.5t-105.5 41.5q-67 0 -111 -45t-44 -117v-262q0 -17 -11 -28t-27 -11q-17 0 -28 11.5 t-11 27.5zM312 659l59 53q20 18 48 18q18 0 18 -14q0 -6 -7 -16l-70 -86q-18 -23 -40 -23h-18q-22 0 -40 23l-70 86q-7 10 -7 16q0 14 19 14q29 0 49 -18z" glyph-name="ncaron" unicode="ň" horiz-adv-x="616"/>
<glyph d="M426 61q119 0 196.5 83t77.5 204v2q0 121 -78.5 205t-197.5 84t-196.5 -83t-77.5 -204v-2q0 -121 78.5 -205t197.5 -84zM424 -12q-156 0 -256 105.5t-100 254.5v2q0 149 101 255.5t257 106.5t256 -105.5t100 -254.5v-2q0 -149 -101 -255.5t-257 -106.5zM557 792h-264 q-13 0 -22.5 9.5t-9.5 22.5t9.5 22.5t22.5 9.5h264q13 0 22.5 -9.5t9.5 -22.5t-9.5 -22.5t-22.5 -9.5z" glyph-name="Omacron" unicode="Ō" horiz-adv-x="850"/>
<glyph d="M324 57q83 0 136.5 58t53.5 141v2q0 84 -55.5 143t-136.5 59q-82 0 -135.5 -58.5t-53.5 -141.5v-2q0 -84 55 -142.5t136 -58.5zM322 -12q-115 0 -191.5 78.5t-76.5 189.5v2q0 111 77.5 190.5t192.5 79.5t192 -78.5t77 -189.5v-2q0 -111 -78 -190.5t-193 -79.5zM455 615 h-264q-13 0 -22.5 9.5t-9.5 22.5t9.5 22.5t22.5 9.5h264q13 0 22.5 -9.5t9.5 -22.5t-9.5 -22.5t-22.5 -9.5z" glyph-name="omacron" unicode="ō" horiz-adv-x="646"/>
<glyph d="M425 770q-92 0 -132 73q-10 17 -10 35q0 13 7.5 21.5t20.5 8.5q18 0 28 -19q22 -55 86 -55t86 55q10 19 28 19q13 0 20.5 -8.5t7.5 -21.5q0 -18 -10 -35q-40 -73 -132 -73zM426 61q119 0 196.5 83t77.5 204v2q0 121 -78.5 205t-197.5 84t-196.5 -83t-77.5 -204v-2 q0 -121 78.5 -205t197.5 -84zM424 -12q-156 0 -256 105.5t-100 254.5v2q0 149 101 255.5t257 106.5t256 -105.5t100 -254.5v-2q0 -149 -101 -255.5t-257 -106.5z" glyph-name="Obreve" unicode="Ŏ" horiz-adv-x="850"/>
<glyph d="M323 593q-92 0 -132 73q-10 17 -10 35q0 13 7.5 21.5t20.5 8.5q18 0 28 -19q22 -55 86 -55t86 55q10 19 28 19q13 0 20.5 -8.5t7.5 -21.5q0 -18 -10 -35q-40 -73 -132 -73zM324 57q83 0 136.5 58t53.5 141v2q0 84 -55.5 143t-136.5 59q-82 0 -135.5 -58.5t-53.5 -141.5 v-2q0 -84 55 -142.5t136 -58.5zM322 -12q-115 0 -191.5 78.5t-76.5 189.5v2q0 111 77.5 190.5t192.5 79.5t192 -78.5t77 -189.5v-2q0 -111 -78 -190.5t-193 -79.5z" glyph-name="obreve" unicode="ŏ" horiz-adv-x="646"/>
<glyph d="M426 61q119 0 196.5 83t77.5 204v2q0 121 -78.5 205t-197.5 84t-196.5 -83t-77.5 -204v-2q0 -121 78.5 -205t197.5 -84zM424 -12q-156 0 -256 105.5t-100 254.5v2q0 149 101 255.5t257 106.5t256 -105.5t100 -254.5v-2q0 -149 -101 -255.5t-257 -106.5zM329 768 q-20 0 -20 14q0 7 6 15l61 92q14 22 34 22q18 0 34.5 -9.5t16.5 -19.5t-12 -22l-74 -73q-20 -19 -46 -19zM493 768q-20 0 -20 14q0 7 6 15l61 92q14 22 34 22q18 0 34.5 -9.5t16.5 -19.5t-12 -22l-74 -73q-20 -19 -46 -19z" glyph-name="Ohungarumlaut" unicode="Ő" horiz-adv-x="850"/>
<glyph d="M324 57q83 0 136.5 58t53.5 141v2q0 84 -55.5 143t-136.5 59q-82 0 -135.5 -58.5t-53.5 -141.5v-2q0 -84 55 -142.5t136 -58.5zM322 -12q-115 0 -191.5 78.5t-76.5 189.5v2q0 111 77.5 190.5t192.5 79.5t192 -78.5t77 -189.5v-2q0 -111 -78 -190.5t-193 -79.5zM228 591 q-20 0 -20 14q0 7 6 15l61 92q14 22 34 22q18 0 34.5 -9.5t16.5 -19.5t-12 -22l-74 -73q-20 -19 -46 -19zM392 591q-20 0 -20 14q0 7 6 15l61 92q14 22 34 22q18 0 34.5 -9.5t16.5 -19.5t-12 -22l-74 -73q-20 -19 -46 -19z" glyph-name="ohungarumlaut" unicode="ő" horiz-adv-x="646"/>
<glyph d="M440 73h138v554h-138q-130 0 -210 -78t-80 -197v-2q0 -119 80 -198t210 -79zM440 0q-164 0 -268 99t-104 249v2q0 150 104.5 250t267.5 100h594q15 0 25.5 -10.5t10.5 -25.5t-10.5 -25.5t-25.5 -10.5h-377v-239h332q15 0 25.5 -11t10.5 -25q0 -15 -10.5 -25.5 t-25.5 -10.5h-332v-245h382q15 0 25.5 -10.5t10.5 -25.5t-10.5 -25.5t-25.5 -10.5h-599z" glyph-name="OE" unicode="Œ" horiz-adv-x="1131"/>
<glyph d="M965 66q-83 -78 -195 -78q-72 0 -131.5 37t-91.5 102q-32 -63 -92.5 -101t-135.5 -38q-112 0 -188.5 79t-76.5 189v2q0 111 77.5 190.5t190.5 79.5q74 0 134 -37.5t92 -99.5q30 63 86 100t126 37q110 0 175 -77t65 -185q0 -15 -11 -25.5t-26 -10.5h-373q7 -81 58.5 -128 t122.5 -47q83 0 150 60q11 9 21 9q14 0 24 -9.5t10 -23.5t-11 -25zM323 57q82 0 135 58t53 141v2q0 84 -55 143t-135 59q-82 0 -135 -58.5t-53 -141.5v-2q0 -84 55 -142.5t135 -58.5zM589 287h333q-6 76 -48.5 126t-115.5 50q-68 0 -114.5 -49.5t-54.5 -126.5z" glyph-name="oe" unicode="œ" horiz-adv-x="1049"/>
<glyph d="M355 758q-19 0 -19 14q0 8 5 15l60 91q15 23 36 23q18 0 36 -10t18 -20q0 -9 -14 -23l-75 -71q-19 -19 -47 -19zM178 343h215q80 0 130 39t50 105v2q0 65 -47.5 101.5t-131.5 36.5h-216v-284zM99 35v625q0 16 11.5 28t27.5 12h262q129 0 199 -70q54 -54 54 -138v-2 q0 -83 -50.5 -135t-136.5 -68l174 -224q13 -15 13 -29q0 -16 -12.5 -27.5t-27.5 -11.5q-21 0 -37 21l-197 256h-201v-237q0 -17 -12 -28.5t-28 -11.5t-27.5 12t-11.5 28z" glyph-name="Racute" unicode="Ŕ" horiz-adv-x="723"/>
<glyph d="M86 34v449q0 16 11 27.5t27 11.5t27.5 -11t11.5 -28v-97q28 63 78 100.5t100 37.5q17 0 27.5 -11t10.5 -28q0 -16 -9.5 -26.5t-24.5 -12.5q-80 -10 -131 -70t-51 -166v-176q0 -16 -11 -27.5t-27 -11.5q-17 0 -28 11.5t-11 27.5zM213 591q-19 0 -19 14q0 8 5 15l60 91 q15 23 36 23q18 0 36 -10t18 -20q0 -9 -14 -23l-75 -71q-19 -19 -47 -19z" glyph-name="racute" unicode="ŕ" horiz-adv-x="405"/>
<glyph d="M351 -149q-40 7 -40 41v5q0 18 13 30.5t33 12.5q21 0 34 -14t13 -38v-5q0 -61 -32 -90q-13 -13 -34.5 -21.5t-37.5 -8.5q-19 0 -19 14q0 13 17 17q29 8 41.5 21t11.5 36zM178 343h215q80 0 130 39t50 105v2q0 65 -47.5 101.5t-131.5 36.5h-216v-284zM99 35v625 q0 16 11.5 28t27.5 12h262q129 0 199 -70q54 -54 54 -138v-2q0 -83 -50.5 -135t-136.5 -68l174 -224q13 -15 13 -29q0 -16 -12.5 -27.5t-27.5 -11.5q-21 0 -37 21l-197 256h-201v-237q0 -17 -12 -28.5t-28 -11.5t-27.5 12t-11.5 28z" glyph-name="Rcommaaccent" unicode="Ŗ" horiz-adv-x="723"/>
<glyph d="M86 34v449q0 16 11 27.5t27 11.5t27.5 -11t11.5 -28v-97q28 63 78 100.5t100 37.5q17 0 27.5 -11t10.5 -28q0 -16 -9.5 -26.5t-24.5 -12.5q-80 -10 -131 -70t-51 -166v-176q0 -16 -11 -27.5t-27 -11.5q-17 0 -28 11.5t-11 27.5zM126 -154q-40 7 -40 41v5q0 18 13 30.5 t33 12.5q21 0 34 -14t13 -38v-5q0 -61 -32 -90q-13 -13 -34.5 -21.5t-37.5 -8.5q-19 0 -19 14q0 13 17 17q29 8 41.5 21t11.5 36z" glyph-name="rcommaaccent" unicode="ŗ" horiz-adv-x="405"/>
<glyph d="M358 826l59 53q20 18 48 18q18 0 18 -14q0 -5 -7 -16l-70 -86q-18 -23 -40 -23h-18q-22 0 -40 23l-70 86q-7 11 -7 16q0 14 19 14q29 0 49 -18zM178 343h215q80 0 130 39t50 105v2q0 65 -47.5 101.5t-131.5 36.5h-216v-284zM99 35v625q0 16 11.5 28t27.5 12h262 q129 0 199 -70q54 -54 54 -138v-2q0 -83 -50.5 -135t-136.5 -68l174 -224q13 -15 13 -29q0 -16 -12.5 -27.5t-27.5 -11.5q-21 0 -37 21l-197 256h-201v-237q0 -17 -12 -28.5t-28 -11.5t-27.5 12t-11.5 28z" glyph-name="Rcaron" unicode="Ř" horiz-adv-x="723"/>
<glyph d="M86 34v449q0 16 11 27.5t27 11.5t27.5 -11t11.5 -28v-97q28 63 78 100.5t100 37.5q17 0 27.5 -11t10.5 -28q0 -16 -9.5 -26.5t-24.5 -12.5q-80 -10 -131 -70t-51 -166v-176q0 -16 -11 -27.5t-27 -11.5q-17 0 -28 11.5t-11 27.5zM217 659l59 53q20 18 48 18q18 0 18 -14 q0 -6 -7 -16l-70 -86q-18 -23 -40 -23h-18q-22 0 -40 23l-70 86q-7 10 -7 16q0 14 19 14q29 0 49 -18z" glyph-name="rcaron" unicode="ř" horiz-adv-x="405"/>
<glyph d="M339 -10q-147 0 -265 94q-15 10 -15 30q0 16 11 27.5t27 11.5q15 0 24 -9q98 -83 221 -83q70 0 113 33.5t43 85.5v2q0 51 -38 81t-144 52q-124 27 -179.5 72.5t-55.5 129.5v2q0 83 65 137t165 54q127 0 223 -69q17 -13 17 -32q0 -16 -11 -27t-27 -11q-13 0 -23 7 q-84 61 -181 61q-67 0 -108 -32.5t-41 -80.5v-2q0 -52 39.5 -82t150.5 -54q119 -26 173.5 -72.5t54.5 -125.5v-2q0 -89 -67 -143.5t-172 -54.5zM324 768q-19 0 -19 14q0 8 5 15l60 91q15 23 36 23q18 0 36 -10t18 -20q0 -9 -14 -23l-75 -71q-19 -19 -47 -19z" glyph-name="Sacute" unicode="Ś" horiz-adv-x="640"/>
<glyph d="M257 -10q-108 0 -199 65q-14 10 -14 28q0 14 10 23.5t24 9.5q12 0 19 -6q81 -55 164 -55q47 0 77 22.5t30 59.5v2q0 35 -32.5 54t-96.5 37q-39 11 -62 20t-52 25.5t-43 41.5t-14 59v2q0 66 49.5 107t126.5 41q84 0 165 -44q19 -11 19 -32q0 -14 -10 -23.5t-24 -9.5 q-9 0 -17 4q-70 40 -135 40q-45 0 -72.5 -21t-27.5 -54v-2q0 -14 8 -26t18 -20t31.5 -17t34.5 -13t41 -13q29 -9 48.5 -16t44 -19.5t39 -27t24.5 -36.5t10 -49v-2q0 -72 -52 -113.5t-132 -41.5zM250 591q-19 0 -19 14q0 8 5 15l60 91q15 23 36 23q18 0 36 -10t18 -20 q0 -9 -14 -23l-75 -71q-19 -19 -47 -19z" glyph-name="sacute" unicode="ś" horiz-adv-x="498"/>
<glyph d="M578 188q0 -84 -60 -137.5t-156 -59.5l-54 -117q-12 -23 -31 -23q-15 0 -31.5 10.5t-16.5 21.5q0 7 6 18l62 91q-123 12 -223 92q-15 10 -15 30q0 16 11 27.5t27 11.5q15 0 24 -9q98 -83 221 -83q70 0 113 33.5t43 85.5v2q0 51 -38 81t-144 52q-124 27 -179.5 72.5 t-55.5 129.5v2q0 83 65 137t165 54q127 0 223 -69q17 -13 17 -32q0 -16 -11 -27t-27 -11q-13 0 -23 7q-84 61 -181 61q-67 0 -108 -32.5t-41 -80.5v-2q0 -52 39.5 -82t150.5 -54q119 -26 173.5 -72.5t54.5 -125.5v-2z" glyph-name="Scedilla" unicode="Ş" horiz-adv-x="640"/>
<glyph d="M441 145q0 -67 -46 -108t-118 -46l-54 -117q-11 -23 -31 -23q-15 0 -31.5 10.5t-16.5 21.5q0 7 6 18l63 92q-87 13 -155 62q-14 10 -14 28q0 14 10 23.5t24 9.5q12 0 19 -6q81 -55 164 -55q47 0 77 22.5t30 59.5v2q0 35 -32.5 54t-96.5 37q-39 11 -62 20t-52 25.5 t-43 41.5t-14 59v2q0 66 49.5 107t126.5 41q84 0 165 -44q19 -11 19 -32q0 -14 -10 -23.5t-24 -9.5q-9 0 -17 4q-70 40 -135 40q-45 0 -72.5 -21t-27.5 -54v-2q0 -14 8 -26t18 -20t31.5 -17t34.5 -13t41 -13q29 -9 48.5 -16t44 -19.5t39 -27t24.5 -36.5t10 -49v-2z" glyph-name="scedilla" unicode="ş" horiz-adv-x="498"/>
<glyph d="M339 -10q-147 0 -265 94q-15 10 -15 30q0 16 11 27.5t27 11.5q15 0 24 -9q98 -83 221 -83q70 0 113 33.5t43 85.5v2q0 51 -38 81t-144 52q-124 27 -179.5 72.5t-55.5 129.5v2q0 83 65 137t165 54q127 0 223 -69q17 -13 17 -32q0 -16 -11 -27t-27 -11q-13 0 -23 7 q-84 61 -181 61q-67 0 -108 -32.5t-41 -80.5v-2q0 -52 39.5 -82t150.5 -54q119 -26 173.5 -72.5t54.5 -125.5v-2q0 -89 -67 -143.5t-172 -54.5zM327 836l59 53q20 18 48 18q18 0 18 -14q0 -5 -7 -16l-70 -86q-18 -23 -40 -23h-18q-22 0 -40 23l-70 86q-7 11 -7 16 q0 14 19 14q29 0 49 -18z" glyph-name="Scaron" unicode="Š" horiz-adv-x="640"/>
<glyph d="M257 -10q-108 0 -199 65q-14 10 -14 28q0 14 10 23.5t24 9.5q12 0 19 -6q81 -55 164 -55q47 0 77 22.5t30 59.5v2q0 35 -32.5 54t-96.5 37q-39 11 -62 20t-52 25.5t-43 41.5t-14 59v2q0 66 49.5 107t126.5 41q84 0 165 -44q19 -11 19 -32q0 -14 -10 -23.5t-24 -9.5 q-9 0 -17 4q-70 40 -135 40q-45 0 -72.5 -21t-27.5 -54v-2q0 -14 8 -26t18 -20t31.5 -17t34.5 -13t41 -13q29 -9 48.5 -16t44 -19.5t39 -27t24.5 -36.5t10 -49v-2q0 -72 -52 -113.5t-132 -41.5zM253 659l59 53q20 18 48 18q18 0 18 -14q0 -6 -7 -16l-70 -86q-18 -23 -40 -23 h-18q-22 0 -40 23l-70 86q-7 10 -7 16q0 14 19 14q29 0 49 -18z" glyph-name="scaron" unicode="š" horiz-adv-x="498"/>
<glyph d="M284 35v592h-203q-15 0 -26 10.5t-11 25.5t11 26t26 11h486q15 0 26 -11t11 -26t-11 -25.5t-26 -10.5h-203v-592q0 -17 -12 -28.5t-28 -11.5t-28 11.5t-12 28.5zM317 -154q-40 7 -40 41v5q0 18 13 30.5t33 12.5q21 0 34 -14t13 -38v-5q0 -61 -32 -90q-13 -13 -34.5 -21.5 t-37.5 -8.5q-19 0 -19 14q0 13 17 17q29 8 41.5 21t11.5 36z" glyph-name="Tcommaaccent" unicode="Ţ" horiz-adv-x="648"/>
<glyph d="M259 -9q-67 0 -106.5 35.5t-39.5 110.5v312h-42q-13 0 -23.5 10.5t-10.5 23.5q0 14 10 24t24 10h42v122q0 16 11 27.5t27 11.5t27.5 -11.5t11.5 -27.5v-122h134q14 0 24.5 -10t10.5 -24t-10.5 -24t-24.5 -10h-134v-302q0 -86 87 -86q16 0 31 3l16 4q14 0 23.5 -10 t9.5 -23q0 -22 -22 -30q-34 -14 -76 -14zM219 -154q-40 7 -40 41v5q0 18 13 30.5t33 12.5q21 0 34 -14t13 -38v-5q0 -61 -32 -90q-13 -13 -34.5 -21.5t-37.5 -8.5q-19 0 -19 14q0 13 17 17q29 8 41.5 21t11.5 36z" glyph-name="tcommaaccent" unicode="ţ" horiz-adv-x="404"/>
<glyph d="M284 35v592h-203q-15 0 -26 10.5t-11 25.5t11 26t26 11h486q15 0 26 -11t11 -26t-11 -25.5t-26 -10.5h-203v-592q0 -17 -12 -28.5t-28 -11.5t-28 11.5t-12 28.5zM325 826l59 53q20 18 48 18q18 0 18 -14q0 -5 -7 -16l-70 -86q-18 -23 -40 -23h-18q-22 0 -40 23l-70 86 q-7 11 -7 16q0 14 19 14q29 0 49 -18z" glyph-name="Tcaron" unicode="Ť" horiz-adv-x="648"/>
<glyph d="M259 -9q-67 0 -106.5 35.5t-39.5 110.5v312h-42q-13 0 -23.5 10.5t-10.5 23.5q0 14 10 24t24 10h42v122q0 16 11 27.5t27 11.5t27.5 -11.5t11.5 -27.5v-122h134q14 0 24.5 -10t10.5 -24t-10.5 -24t-24.5 -10h-134v-302q0 -86 87 -86q16 0 31 3l16 4q14 0 23.5 -10 t9.5 -23q0 -22 -22 -30q-34 -14 -76 -14zM295 602l9 116q3 32 34 32h15q22 0 22 -21q0 -9 -5 -24l-35 -106q-6 -20 -22 -20q-21 0 -18 23z" glyph-name="tcaron" unicode="ť" horiz-adv-x="404"/>
<glyph d="M511 782h-264q-13 0 -22.5 9.5t-9.5 22.5t9.5 22.5t22.5 9.5h264q13 0 22.5 -9.5t9.5 -22.5t-9.5 -22.5t-22.5 -9.5zM379 -11q-133 0 -212 79.5t-79 224.5v372q0 16 11.5 28t27.5 12q17 0 28.5 -11.5t11.5 -28.5v-367q0 -112 57 -174t157 -62q99 0 155 59t56 172v372 q0 17 12 28.5t28 11.5t27.5 -12t11.5 -28v-366q0 -150 -79 -230t-213 -80z" glyph-name="Umacron" unicode="Ū" horiz-adv-x="759"/>
<glyph d="M435 615h-264q-13 0 -22.5 9.5t-9.5 22.5t9.5 22.5t22.5 9.5h264q13 0 22.5 -9.5t9.5 -22.5t-9.5 -22.5t-22.5 -9.5zM529 483v-449q0 -16 -11 -27.5t-27 -11.5t-27 11.5t-11 27.5v56q-63 -101 -177 -101q-92 0 -145 56.5t-53 150.5v287q0 17 11 28t27 11t27.5 -11.5 t11.5 -27.5v-268q0 -73 37.5 -114.5t105.5 -41.5q67 0 111 45t44 117v262q0 17 11 28t27 11t27 -11.5t11 -27.5z" glyph-name="umacron" unicode="ū" horiz-adv-x="616"/>
<glyph d="M379 758q-92 0 -132 73q-10 17 -10 35q0 13 7.5 21.5t20.5 8.5q18 0 28 -19q22 -55 86 -55t86 55q10 19 28 19q13 0 20.5 -8.5t7.5 -21.5q0 -18 -10 -35q-40 -73 -132 -73zM379 -11q-133 0 -212 79.5t-79 224.5v372q0 16 11.5 28t27.5 12q17 0 28.5 -11.5t11.5 -28.5 v-367q0 -112 57 -174t157 -62q99 0 155 59t56 172v372q0 17 12 28.5t28 11.5t27.5 -12t11.5 -28v-366q0 -150 -79 -230t-213 -80z" glyph-name="Ubreve" unicode="Ŭ" horiz-adv-x="759"/>
<glyph d="M303 593q-92 0 -132 73q-10 17 -10 35q0 13 7.5 21.5t20.5 8.5q18 0 28 -19q22 -55 86 -55t86 55q10 19 28 19q13 0 20.5 -8.5t7.5 -21.5q0 -18 -10 -35q-40 -73 -132 -73zM529 483v-449q0 -16 -11 -27.5t-27 -11.5t-27 11.5t-11 27.5v56q-63 -101 -177 -101 q-92 0 -145 56.5t-53 150.5v287q0 17 11 28t27 11t27.5 -11.5t11.5 -27.5v-268q0 -73 37.5 -114.5t105.5 -41.5q67 0 111 45t44 117v262q0 17 11 28t27 11t27 -11.5t11 -27.5z" glyph-name="ubreve" unicode="ŭ" horiz-adv-x="616"/>
<glyph d="M379 -11q-133 0 -212 79.5t-79 224.5v372q0 16 11.5 28t27.5 12q17 0 28.5 -11.5t11.5 -28.5v-367q0 -112 57 -174t157 -62q99 0 155 59t56 172v372q0 17 12 28.5t28 11.5t27.5 -12t11.5 -28v-366q0 -150 -79 -230t-213 -80zM379 786q25 0 43.5 18t18.5 43v2 q0 25 -18.5 43t-43.5 18t-43.5 -18t-18.5 -43v-2q0 -25 18.5 -43t43.5 -18zM379 748q-42 0 -73 29.5t-31 69.5v2q0 40 31 69.5t73 29.5t73 -29.5t31 -69.5v-2q0 -40 -31 -69.5t-73 -29.5z" glyph-name="Uring" unicode="Ů" horiz-adv-x="759"/>
<glyph d="M529 483v-449q0 -16 -11 -27.5t-27 -11.5t-27 11.5t-11 27.5v56q-63 -101 -177 -101q-92 0 -145 56.5t-53 150.5v287q0 17 11 28t27 11t27.5 -11.5t11.5 -27.5v-268q0 -73 37.5 -114.5t105.5 -41.5q67 0 111 45t44 117v262q0 17 11 28t27 11t27 -11.5t11 -27.5zM303 628 q25 0 43.5 18t18.5 43v2q0 25 -18.5 43t-43.5 18t-43.5 -18t-18.5 -43v-2q0 -25 18.5 -43t43.5 -18zM303 590q-42 0 -73 29.5t-31 69.5v2q0 40 31 69.5t73 29.5t73 -29.5t31 -69.5v-2q0 -40 -31 -69.5t-73 -29.5z" glyph-name="uring" unicode="ů" horiz-adv-x="616"/>
<glyph d="M284 758q-20 0 -20 14q0 7 6 15l61 92q14 22 34 22q18 0 34.5 -9.5t16.5 -19.5t-12 -22l-74 -73q-20 -19 -46 -19zM448 758q-20 0 -20 14q0 7 6 15l61 92q14 22 34 22q18 0 34.5 -9.5t16.5 -19.5t-12 -22l-74 -73q-20 -19 -46 -19zM379 -11q-133 0 -212 79.5t-79 224.5 v372q0 16 11.5 28t27.5 12q17 0 28.5 -11.5t11.5 -28.5v-367q0 -112 57 -174t157 -62q99 0 155 59t56 172v372q0 17 12 28.5t28 11.5t27.5 -12t11.5 -28v-366q0 -150 -79 -230t-213 -80z" glyph-name="Uhungarumlaut" unicode="Ű" horiz-adv-x="759"/>
<glyph d="M208 591q-20 0 -20 14q0 7 6 15l61 92q14 22 34 22q18 0 34.5 -9.5t16.5 -19.5t-12 -22l-74 -73q-20 -19 -46 -19zM372 591q-20 0 -20 14q0 7 6 15l61 92q14 22 34 22q18 0 34.5 -9.5t16.5 -19.5t-12 -22l-74 -73q-20 -19 -46 -19zM529 483v-449q0 -16 -11 -27.5 t-27 -11.5t-27 11.5t-11 27.5v56q-63 -101 -177 -101q-92 0 -145 56.5t-53 150.5v287q0 17 11 28t27 11t27.5 -11.5t11.5 -27.5v-268q0 -73 37.5 -114.5t105.5 -41.5q67 0 111 45t44 117v262q0 17 11 28t27 11t27 -11.5t11 -27.5z" glyph-name="uhungarumlaut" unicode="ű" horiz-adv-x="616"/>
<glyph d="M304 -84q0 38 37 75q-117 11 -185 89t-68 213v372q0 16 11.5 28t27.5 12q17 0 28.5 -11.5t11.5 -28.5v-367q0 -112 57 -174t157 -62q99 0 155 59t56 172v372q0 17 12 28.5t28 11.5t27.5 -12t11.5 -28v-366q0 -142 -71 -221.5t-193 -87.5q-37 -33 -37 -63q0 -34 50 -44 q29 -6 29 -24q0 -23 -28 -23q-40 0 -78.5 18.5t-38.5 61.5z" glyph-name="Uogonek" unicode="Ų" horiz-adv-x="759"/>
<glyph d="M529 483v-452q0 -19 -17 -35q-44 -38 -44 -69q0 -34 49 -44q29 -5 29 -24q0 -23 -27 -23q-23 0 -47 5.5t-47 24.5t-23 49q0 47 58 94q-7 6 -7 79v2q-63 -101 -177 -101q-92 0 -145 56.5t-53 150.5v287q0 17 11 28t27 11t27.5 -11.5t11.5 -27.5v-268q0 -73 37.5 -114.5 t105.5 -41.5q67 0 111 45t44 117v262q0 17 11 28t27 11t27 -11.5t11 -27.5z" glyph-name="uogonek" unicode="ų" horiz-adv-x="616"/>
<glyph d="M281 25l-224 622q-4 12 -4 18q0 16 12.5 28t28.5 12q30 0 41 -33l193 -556l183 558q10 31 39 31h5q29 0 39 -31l183 -558l194 558q10 31 38 31q16 0 28 -12t12 -27q0 -4 -5 -19l-224 -622q-12 -34 -41 -34h-6q-29 0 -41 34l-182 538l-181 -538q-12 -34 -41 -34h-6 q-30 0 -41 34zM549 829l-59 -52q-20 -19 -48 -19q-18 0 -18 14q0 5 7 17l70 86q19 22 40 22h18q21 0 40 -22l70 -86q7 -12 7 -17q0 -14 -19 -14q-29 0 -49 19z" glyph-name="Wcircumflex" unicode="Ŵ" horiz-adv-x="1101"/>
<glyph d="M255 -8q-31 0 -43 35l-157 437q-5 15 -5 21q0 15 11 26t28 11q29 0 39 -32l130 -388l131 389q10 31 38 31h4q30 0 40 -31l130 -389l132 390q9 30 37 30q16 0 27 -10.5t11 -25.5q0 -6 -5 -21l-158 -438q-12 -35 -42 -35h-3q-31 0 -42 35l-129 377l-130 -377 q-11 -35 -42 -35h-2zM427 662l-59 -52q-20 -19 -48 -19q-18 0 -18 14q0 5 7 17l70 86q19 22 40 22h18q21 0 40 -22l70 -86q7 -12 7 -17q0 -14 -19 -14q-29 0 -49 19z" glyph-name="wcircumflex" unicode="ŵ" horiz-adv-x="858"/>
<glyph d="M353 829l-59 -52q-20 -19 -48 -19q-18 0 -18 14q0 5 7 17l70 86q19 22 40 22h18q21 0 40 -22l70 -86q7 -12 7 -17q0 -14 -19 -14q-29 0 -49 19zM314 35v240l-260 364q-9 14 -9 27q0 16 12 27.5t29 11.5q21 0 38 -24l231 -333l233 333q17 24 37 24q16 0 27.5 -11.5 t11.5 -27.5q0 -11 -11 -29l-259 -360v-242q0 -17 -12 -28.5t-28 -11.5t-28 11.5t-12 28.5z" glyph-name="Ycircumflex" unicode="Ŷ" horiz-adv-x="708"/>
<glyph d="M295 662l-59 -52q-20 -19 -48 -19q-18 0 -18 14q0 5 7 17l70 86q19 22 40 22h18q21 0 40 -22l70 -86q7 -12 7 -17q0 -14 -19 -14q-29 0 -49 19zM161 -163q-42 0 -85 15q-24 10 -24 33q0 14 10 23.5t23 9.5q7 0 19 -4q27 -9 56 -9q35 0 58.5 21.5t45.5 70.5l4 8l-216 458 q-5 12 -5 21q0 16 11.5 27t27.5 11q27 0 39 -30l180 -406l160 407q11 29 37 29q16 0 27 -11t11 -27q0 -7 -4 -19l-202 -482q-33 -79 -73.5 -112.5t-99.5 -33.5z" glyph-name="ycircumflex" unicode="ŷ" horiz-adv-x="587"/>
<glyph d="M265 862q20 0 33.5 -13t13.5 -32v-15q0 -19 -13.5 -32t-33.5 -13t-33.5 13t-13.5 32v15q0 19 13.5 32t33.5 13zM443 862q20 0 33.5 -13t13.5 -32v-15q0 -19 -13.5 -32t-33.5 -13t-33.5 13t-13.5 32v15q0 19 13.5 32t33.5 13zM314 35v240l-260 364q-9 14 -9 27 q0 16 12 27.5t29 11.5q21 0 38 -24l231 -333l233 333q17 24 37 24q16 0 27.5 -11.5t11.5 -27.5q0 -11 -11 -29l-259 -360v-242q0 -17 -12 -28.5t-28 -11.5t-28 11.5t-12 28.5z" glyph-name="Ydieresis" unicode="Ÿ" horiz-adv-x="708"/>
<glyph d="M104 0q-15 0 -26 10t-11 24v2q0 18 14 35l439 558h-406q-15 0 -25.5 10.5t-10.5 24.5q0 15 10.5 25.5t25.5 10.5h477q14 0 25 -10.5t11 -23.5v-2q0 -18 -14 -35l-439 -558h422q15 0 25.5 -10.5t10.5 -24.5q0 -15 -10.5 -25.5t-25.5 -10.5h-492zM352 758q-19 0 -19 14 q0 8 5 15l60 91q15 23 36 23q18 0 36 -10t18 -20q0 -9 -14 -23l-75 -71q-19 -19 -47 -19z" glyph-name="Zacute" unicode="Ź" horiz-adv-x="693"/>
<glyph d="M93 0q-15 0 -26 9t-11 22v2q0 18 16 35l327 384h-302q-14 0 -23.5 9.5t-9.5 22.5q0 14 10 23.5t23 9.5h369q16 0 26.5 -9t10.5 -22v-2q0 -18 -16 -35l-327 -384h315q13 0 23 -9.5t10 -22.5t-10 -23t-23 -10h-382zM280 591q-19 0 -19 14q0 8 5 15l60 91q15 23 36 23 q18 0 36 -10t18 -20q0 -9 -14 -23l-75 -71q-19 -19 -47 -19z" glyph-name="zacute" unicode="ź" horiz-adv-x="556"/>
<glyph d="M402 817v-14q0 -20 -14 -33t-34 -13t-34 13t-14 33v14q0 20 13.5 32.5t34.5 12.5t34.5 -12.5t13.5 -32.5zM104 0q-15 0 -26 10t-11 24v2q0 18 14 35l439 558h-406q-15 0 -25.5 10.5t-10.5 24.5q0 15 10.5 25.5t25.5 10.5h477q14 0 25 -10.5t11 -23.5v-2q0 -18 -14 -35 l-439 -558h422q15 0 25.5 -10.5t10.5 -24.5q0 -15 -10.5 -25.5t-25.5 -10.5h-492z" glyph-name="Zdotaccent" unicode="Ż" horiz-adv-x="693"/>
<glyph d="M330 650v-14q0 -20 -14 -33t-34 -13t-34 13t-14 33v14q0 20 13.5 32.5t34.5 12.5t34.5 -12.5t13.5 -32.5zM93 0q-15 0 -26 9t-11 22v2q0 18 16 35l327 384h-302q-14 0 -23.5 9.5t-9.5 22.5q0 14 10 23.5t23 9.5h369q16 0 26.5 -9t10.5 -22v-2q0 -18 -16 -35l-327 -384 h315q13 0 23 -9.5t10 -22.5t-10 -23t-23 -10h-382z" glyph-name="zdotaccent" unicode="ż" horiz-adv-x="556"/>
<glyph d="M104 0q-15 0 -26 10t-11 24v2q0 18 14 35l439 558h-406q-15 0 -25.5 10.5t-10.5 24.5q0 15 10.5 25.5t25.5 10.5h477q14 0 25 -10.5t11 -23.5v-2q0 -18 -14 -35l-439 -558h422q15 0 25.5 -10.5t10.5 -24.5q0 -15 -10.5 -25.5t-25.5 -10.5h-492zM355 826l59 53 q20 18 48 18q18 0 18 -14q0 -5 -7 -16l-70 -86q-18 -23 -40 -23h-18q-22 0 -40 23l-70 86q-7 11 -7 16q0 14 19 14q29 0 49 -18z" glyph-name="Zcaron" unicode="Ž" horiz-adv-x="693"/>
<glyph d="M93 0q-15 0 -26 9t-11 22v2q0 18 16 35l327 384h-302q-14 0 -23.5 9.5t-9.5 22.5q0 14 10 23.5t23 9.5h369q16 0 26.5 -9t10.5 -22v-2q0 -18 -16 -35l-327 -384h315q13 0 23 -9.5t10 -22.5t-10 -23t-23 -10h-382zM283 659l59 53q20 18 48 18q18 0 18 -14q0 -6 -7 -16 l-70 -86q-18 -23 -40 -23h-18q-22 0 -40 23l-70 86q-7 10 -7 16q0 14 19 14q29 0 49 -18z" glyph-name="zcaron" unicode="ž" horiz-adv-x="556"/>
<glyph d="M99 -6q-23 0 -36 9t-13 24q0 31 39 33q61 2 74 76l44 237h-69q-14 0 -24 10t-10 23q0 14 10 24t24 10h80l23 120q14 75 51.5 110.5t104.5 35.5q32 0 56 -5q13 -2 21.5 -11.5t8.5 -22.5t-9.5 -23t-23.5 -10q-1 0 -15.5 2.5t-25.5 2.5q-39 0 -60 -21t-30 -70l-20 -108h115 q14 0 24 -10t10 -24q0 -13 -10 -23t-24 -10h-127l-45 -245q-26 -134 -143 -134z" glyph-name="florin" unicode="ƒ" horiz-adv-x="514"/>
<glyph d="M232 257h322l-160 358zM395 705q25 0 43.5 18t18.5 43v2q0 25 -18.5 43t-43.5 18t-43.5 -18t-18.5 -43v-2q0 -25 18.5 -43t43.5 -18zM444 680l288 -630q3 -9 3 -16q0 -15 -11.5 -27t-27.5 -12q-24 0 -38 29l-72 161h-385l-73 -163q-11 -27 -37 -27q-15 0 -26 11t-11 26 q0 5 4 17l288 631q-25 12 -40 35.5t-15 50.5v2q0 40 31 69.5t73 29.5t73 -29.5t31 -69.5v-2q0 -27 -15 -50.5t-40 -35.5zM393 897q-19 0 -19 14q0 8 5 15l60 91q15 23 36 23q18 0 36 -10t18 -20q0 -9 -14 -23l-75 -71q-19 -19 -47 -19z" glyph-name="Aringacute" unicode="Ǻ" horiz-adv-x="790"/>
<glyph d="M287 827q-19 0 -19 14q0 8 5 15l60 91q15 23 36 23q18 0 36 -10t18 -20q0 -9 -14 -23l-75 -71q-19 -19 -47 -19zM289 631q25 0 43.5 18t18.5 43v2q0 25 -18.5 43t-43.5 18t-43.5 -18t-18.5 -43v-2q0 -25 18.5 -43t43.5 -18zM289 593q-42 0 -73 29.5t-31 69.5v2 q0 40 31 69.5t73 29.5t73 -29.5t31 -69.5v-2q0 -40 -31 -69.5t-73 -29.5zM255 50q72 0 122.5 39.5t50.5 100.5v50q-76 22 -152 22q-72 0 -111.5 -29t-39.5 -78v-2q0 -47 37.5 -75t92.5 -28zM240 -11q-78 0 -135.5 43t-57.5 118v2q0 80 60 123.5t161 43.5q81 0 159 -22v18 q0 69 -40 105t-114 36q-69 0 -134 -29q-7 -3 -14 -3q-14 0 -24 10t-10 23q0 24 21 32q81 35 169 35q110 0 167 -57q53 -53 53 -151v-283q0 -16 -10.5 -27t-26.5 -11t-26.5 10.5t-10.5 25.5v47q-68 -89 -187 -89z" glyph-name="aringacute" unicode="ǻ" horiz-adv-x="579"/>
<glyph d="M247 257h244v373h-23zM34 29q0 6 7 22l372 623q16 26 44 26h491q15 0 25.5 -10.5t10.5 -25.5t-10.5 -25.5t-25.5 -10.5h-377v-239h332q15 0 25.5 -11t10.5 -25q0 -15 -10.5 -25.5t-25.5 -10.5h-332v-245h382q15 0 25.5 -10.5t10.5 -25.5t-10.5 -25.5t-25.5 -10.5h-422 q-17 0 -28.5 12t-11.5 28v145h-286l-101 -169q-10 -21 -34 -21q-14 0 -25 10t-11 24zM627 758q-19 0 -19 14q0 8 5 15l60 91q15 23 36 23q18 0 36 -10t18 -20q0 -9 -14 -23l-75 -71q-19 -19 -47 -19z" glyph-name="AEacute" unicode="Ǽ" horiz-adv-x="1045"/>
<glyph d="M869 66q-83 -78 -196 -78q-62 0 -116 27.5t-89 76.5q-99 -103 -226 -103q-80 0 -137.5 42.5t-57.5 118.5v2q0 80 59.5 123.5t157.5 43.5q75 0 153 -22v18q0 69 -38.5 105t-110.5 36q-65 0 -129 -29q-7 -3 -14 -3q-14 0 -24 10t-10 23q0 24 21 32q78 35 164 35 q151 0 190 -111q31 53 83 84t115 31q110 0 175 -77t65 -185q0 -15 -11 -25.5t-26 -10.5h-373q7 -81 58.5 -128t122.5 -47q83 0 150 60q11 9 21 9q14 0 24 -9.5t10 -23.5t-11 -25zM251 51q104 0 186 92q-18 45 -21 98q-80 21 -144 21q-70 0 -108.5 -29t-38.5 -78v-2 q0 -47 36 -74.5t90 -27.5zM493 287h333q-6 76 -48.5 126t-115.5 50q-68 0 -114.5 -49.5t-54.5 -126.5zM473 591q-19 0 -19 14q0 8 5 15l60 91q15 23 36 23q18 0 36 -10t18 -20q0 -9 -14 -23l-75 -71q-19 -19 -47 -19z" glyph-name="aeacute" unicode="ǽ" horiz-adv-x="953"/>
<glyph d="M422 768q-19 0 -19 14q0 8 5 15l60 91q15 23 36 23q18 0 36 -10t18 -20q0 -9 -14 -23l-75 -71q-19 -19 -47 -19zM426 60q118 0 196 83.5t78 204.5v2q0 106 -61 184l-387 -412q73 -62 174 -62zM150 350q0 -106 61 -184l387 411q-76 63 -174 63q-118 0 -196 -83.5 t-78 -204.5v-2zM424 -12q-129 0 -224 76l-60 -62q-12 -12 -25 -12t-21.5 8.5t-8.5 20.5q0 14 10 24l60 64q-87 99 -87 241v2q0 149 101 255.5t257 106.5q129 0 224 -77l60 63q12 12 25 12t21.5 -8.5t8.5 -20.5q0 -14 -10 -24l-61 -65q88 -101 88 -240v-2q0 -149 -101 -255.5 t-257 -106.5z" glyph-name="Oslashacute" unicode="Ǿ" horiz-adv-x="850"/>
<glyph d="M321 591q-19 0 -19 14q0 8 5 15l60 91q15 23 36 23q18 0 36 -10t18 -20q0 -9 -14 -23l-75 -71q-19 -19 -47 -19zM324 56q83 0 137 58.5t54 141.5v2q0 67 -38 121l-271 -281q52 -42 118 -42zM132 258q0 -69 37 -121l272 282q-52 42 -119 42q-83 0 -136.5 -58.5 t-53.5 -142.5v-2zM322 -12q-93 0 -166 55l-40 -41q-12 -12 -25 -12q-11 0 -19.5 7.5t-8.5 18.5q0 14 11 23l42 43q-62 73 -62 174v2q0 111 77.5 190.5t192.5 79.5q92 0 165 -55l41 43q12 12 26 12q11 0 19 -7.5t8 -18.5q0 -13 -10 -23l-43 -45q63 -74 63 -174v-2 q0 -111 -78 -190.5t-193 -79.5z" glyph-name="oslashacute" unicode="ǿ" horiz-adv-x="646"/>
<glyph d="M339 -10q-147 0 -265 94q-15 10 -15 30q0 16 11 27.5t27 11.5q15 0 24 -9q98 -83 221 -83q70 0 113 33.5t43 85.5v2q0 51 -38 81t-144 52q-124 27 -179.5 72.5t-55.5 129.5v2q0 83 65 137t165 54q127 0 223 -69q17 -13 17 -32q0 -16 -11 -27t-27 -11q-13 0 -23 7 q-84 61 -181 61q-67 0 -108 -32.5t-41 -80.5v-2q0 -52 39.5 -82t150.5 -54q119 -26 173.5 -72.5t54.5 -125.5v-2q0 -89 -67 -143.5t-172 -54.5zM320 -155q-40 7 -40 41v5q0 18 13 30.5t33 12.5q21 0 34 -14t13 -38v-5q0 -61 -32 -90q-13 -13 -34.5 -21.5t-37.5 -8.5 q-19 0 -19 14q0 13 17 17q29 8 41.5 21t11.5 36z" glyph-name="Scommaaccent" unicode="Ș" horiz-adv-x="640"/>
<glyph d="M257 -10q-108 0 -199 65q-14 10 -14 28q0 14 10 23.5t24 9.5q12 0 19 -6q81 -55 164 -55q47 0 77 22.5t30 59.5v2q0 35 -32.5 54t-96.5 37q-39 11 -62 20t-52 25.5t-43 41.5t-14 59v2q0 66 49.5 107t126.5 41q84 0 165 -44q19 -11 19 -32q0 -14 -10 -23.5t-24 -9.5 q-9 0 -17 4q-70 40 -135 40q-45 0 -72.5 -21t-27.5 -54v-2q0 -14 8 -26t18 -20t31.5 -17t34.5 -13t41 -13q29 -9 48.5 -16t44 -19.5t39 -27t24.5 -36.5t10 -49v-2q0 -72 -52 -113.5t-132 -41.5zM245 -154q-40 7 -40 41v5q0 18 13 30.5t33 12.5q21 0 34 -14t13 -38v-5 q0 -61 -32 -90q-13 -13 -34.5 -21.5t-37.5 -8.5q-19 0 -19 14q0 13 17 17q29 8 41.5 21t11.5 36z" glyph-name="scommaaccent" unicode="ș" horiz-adv-x="498"/>
<glyph d="M84 451q81 78 195 78q109 0 183.5 -75.5t74.5 -193.5v-2q0 -113 -71 -191t-177 -78q-110 0 -175 77t-65 185q0 15 10.5 25.5t25.5 10.5h374q-8 82 -59.5 128.5t-122.5 46.5q-84 0 -149 -60q-11 -9 -22 -9q-14 0 -24 9.5t-10 23.5q0 15 12 25zM459 230h-333q6 -76 49 -126 t116 -50q67 0 113.5 50t54.5 126z" glyph-name="schwa" unicode="ə" horiz-adv-x="592"/>
<glyph d="M249 662l-59 -52q-20 -19 -48 -19q-18 0 -18 14q0 5 7 17l70 86q19 22 40 22h18q21 0 40 -22l70 -86q7 -12 7 -17q0 -14 -19 -14q-29 0 -49 19z" glyph-name="circumflex" unicode="ˆ"/>
<glyph d="M251 659l59 53q20 18 48 18q18 0 18 -14q0 -6 -7 -16l-70 -86q-18 -23 -40 -23h-18q-22 0 -40 23l-70 86q-7 10 -7 16q0 14 19 14q29 0 49 -18z" glyph-name="caron" unicode="ˇ"/>
<glyph d="M250 593q-92 0 -132 73q-10 17 -10 35q0 13 7.5 21.5t20.5 8.5q18 0 28 -19q22 -55 86 -55t86 55q10 19 28 19q13 0 20.5 -8.5t7.5 -21.5q0 -18 -10 -35q-40 -73 -132 -73z" glyph-name="breve" unicode="˘"/>
<glyph d="M298 650v-14q0 -20 -14 -33t-34 -13t-34 13t-14 33v14q0 20 13.5 32.5t34.5 12.5t34.5 -12.5t13.5 -32.5z" glyph-name="dotaccent" unicode="˙"/>
<glyph d="M250 631q25 0 43.5 18t18.5 43v2q0 25 -18.5 43t-43.5 18t-43.5 -18t-18.5 -43v-2q0 -25 18.5 -43t43.5 -18zM250 593q-42 0 -73 29.5t-31 69.5v2q0 40 31 69.5t73 29.5t73 -29.5t31 -69.5v-2q0 -40 -31 -69.5t-73 -29.5z" glyph-name="ring" unicode="˚"/>
<glyph d="M190 -84q0 45 65 100l53 -13q-52 -43 -52 -76q0 -34 50 -44q29 -6 29 -24q0 -23 -28 -23q-40 0 -78.5 18.5t-38.5 61.5z" glyph-name="ogonek" unicode="˛"/>
<glyph d="M139 600q-9 -17 -23 -17q-11 0 -18.5 7t-7.5 17q0 4 3 16q15 43 35.5 62t52.5 19q24 0 71 -20t63 -20q17 0 27 8t19 27q9 17 23 17q11 0 18.5 -7t7.5 -17q0 -1 -3 -16q-15 -43 -35.5 -62t-52.5 -19q-24 0 -71 20t-63 20q-17 0 -27 -8t-19 -27z" glyph-name="tilde" unicode="˜"/>
<glyph d="M114 591q-20 0 -20 14q0 7 6 15l61 92q14 22 34 22q18 0 34.5 -9.5t16.5 -19.5t-12 -22l-74 -73q-20 -19 -46 -19zM278 591q-20 0 -20 14q0 7 6 15l61 92q14 22 34 22q18 0 34.5 -9.5t16.5 -19.5t-12 -22l-74 -73q-20 -19 -46 -19z" glyph-name="hungarumlaut" unicode="˝"/>
<glyph d="M244 -154q-40 7 -40 41v5q0 18 13 30.5t33 12.5q21 0 34 -14t13 -38v-5q0 -61 -32 -90q-13 -13 -34.5 -21.5t-37.5 -8.5q-19 0 -19 14q0 13 17 17q29 8 41.5 21t11.5 36z" glyph-name="commaaccent" unicode="̦"/>
<glyph d="M552 758q-28 0 -47 19l-75 71q-14 14 -14 23q0 10 18 20t36 10q21 0 36 -23l60 -91q5 -7 5 -15q0 -14 -19 -14zM281 25l-224 622q-4 12 -4 18q0 16 12.5 28t28.5 12q30 0 41 -33l193 -556l183 558q10 31 39 31h5q29 0 39 -31l183 -558l194 558q10 31 38 31q16 0 28 -12 t12 -27q0 -4 -5 -19l-224 -622q-12 -34 -41 -34h-6q-29 0 -41 34l-182 538l-181 -538q-12 -34 -41 -34h-6q-30 0 -41 34z" glyph-name="Wgrave" unicode="Ẁ" horiz-adv-x="1101"/>
<glyph d="M430 591q-28 0 -47 19l-75 71q-14 14 -14 23q0 10 18 20t36 10q21 0 36 -23l60 -91q5 -7 5 -15q0 -14 -19 -14zM255 -8q-31 0 -43 35l-157 437q-5 15 -5 21q0 15 11 26t28 11q29 0 39 -32l130 -388l131 389q10 31 38 31h4q30 0 40 -31l130 -389l132 390q9 30 37 30 q16 0 27 -10.5t11 -25.5q0 -6 -5 -21l-158 -438q-12 -35 -42 -35h-3q-31 0 -42 35l-129 377l-130 -377q-11 -35 -42 -35h-2z" glyph-name="wgrave" unicode="ẁ" horiz-adv-x="858"/>
<glyph d="M281 25l-224 622q-4 12 -4 18q0 16 12.5 28t28.5 12q30 0 41 -33l193 -556l183 558q10 31 39 31h5q29 0 39 -31l183 -558l194 558q10 31 38 31q16 0 28 -12t12 -27q0 -4 -5 -19l-224 -622q-12 -34 -41 -34h-6q-29 0 -41 34l-182 538l-181 -538q-12 -34 -41 -34h-6 q-30 0 -41 34zM548 758q-19 0 -19 14q0 8 5 15l60 91q15 23 36 23q18 0 36 -10t18 -20q0 -9 -14 -23l-75 -71q-19 -19 -47 -19z" glyph-name="Wacute" unicode="Ẃ" horiz-adv-x="1101"/>
<glyph d="M255 -8q-31 0 -43 35l-157 437q-5 15 -5 21q0 15 11 26t28 11q29 0 39 -32l130 -388l131 389q10 31 38 31h4q30 0 40 -31l130 -389l132 390q9 30 37 30q16 0 27 -10.5t11 -25.5q0 -6 -5 -21l-158 -438q-12 -35 -42 -35h-3q-31 0 -42 35l-129 377l-130 -377 q-11 -35 -42 -35h-2zM426 591q-19 0 -19 14q0 8 5 15l60 91q15 23 36 23q18 0 36 -10t18 -20q0 -9 -14 -23l-75 -71q-19 -19 -47 -19z" glyph-name="wacute" unicode="ẃ" horiz-adv-x="858"/>
<glyph d="M281 25l-224 622q-4 12 -4 18q0 16 12.5 28t28.5 12q30 0 41 -33l193 -556l183 558q10 31 39 31h5q29 0 39 -31l183 -558l194 558q10 31 38 31q16 0 28 -12t12 -27q0 -4 -5 -19l-224 -622q-12 -34 -41 -34h-6q-29 0 -41 34l-182 538l-181 -538q-12 -34 -41 -34h-6 q-30 0 -41 34zM461 862q20 0 33.5 -13t13.5 -32v-15q0 -19 -13.5 -32t-33.5 -13t-33.5 13t-13.5 32v15q0 19 13.5 32t33.5 13zM639 862q20 0 33.5 -13t13.5 -32v-15q0 -19 -13.5 -32t-33.5 -13t-33.5 13t-13.5 32v15q0 19 13.5 32t33.5 13z" glyph-name="Wdieresis" unicode="Ẅ" horiz-adv-x="1101"/>
<glyph d="M255 -8q-31 0 -43 35l-157 437q-5 15 -5 21q0 15 11 26t28 11q29 0 39 -32l130 -388l131 389q10 31 38 31h4q30 0 40 -31l130 -389l132 390q9 30 37 30q16 0 27 -10.5t11 -25.5q0 -6 -5 -21l-158 -438q-12 -35 -42 -35h-3q-31 0 -42 35l-129 377l-130 -377 q-11 -35 -42 -35h-2zM339 695q20 0 33.5 -13t13.5 -32v-15q0 -19 -13.5 -32t-33.5 -13t-33.5 13t-13.5 32v15q0 19 13.5 32t33.5 13zM517 695q20 0 33.5 -13t13.5 -32v-15q0 -19 -13.5 -32t-33.5 -13t-33.5 13t-13.5 32v15q0 19 13.5 32t33.5 13z" glyph-name="wdieresis" unicode="ẅ" horiz-adv-x="858"/>
<glyph d="M356 758q-28 0 -47 19l-75 71q-14 14 -14 23q0 10 18 20t36 10q21 0 36 -23l60 -91q5 -7 5 -15q0 -14 -19 -14zM314 35v240l-260 364q-9 14 -9 27q0 16 12 27.5t29 11.5q21 0 38 -24l231 -333l233 333q17 24 37 24q16 0 27.5 -11.5t11.5 -27.5q0 -11 -11 -29l-259 -360 v-242q0 -17 -12 -28.5t-28 -11.5t-28 11.5t-12 28.5z" glyph-name="Ygrave" unicode="Ỳ" horiz-adv-x="708"/>
<glyph d="M298 591q-28 0 -47 19l-75 71q-14 14 -14 23q0 10 18 20t36 10q21 0 36 -23l60 -91q5 -7 5 -15q0 -14 -19 -14zM161 -163q-42 0 -85 15q-24 10 -24 33q0 14 10 23.5t23 9.5q7 0 19 -4q27 -9 56 -9q35 0 58.5 21.5t45.5 70.5l4 8l-216 458q-5 12 -5 21q0 16 11.5 27 t27.5 11q27 0 39 -30l180 -406l160 407q11 29 37 29q16 0 27 -11t11 -27q0 -7 -4 -19l-202 -482q-33 -79 -73.5 -112.5t-99.5 -33.5z" glyph-name="ygrave" unicode="ỳ" horiz-adv-x="587"/>
<glyph glyph-name="enspace" unicode=" "/>
<glyph glyph-name="emspace" unicode=" " horiz-adv-x="1000"/>
<glyph glyph-name="threeperemspace" unicode=" " horiz-adv-x="333"/>
<glyph glyph-name="fourperemspace" unicode=" " horiz-adv-x="250"/>
<glyph glyph-name="thinspace" unicode=" " horiz-adv-x="133"/>
<glyph glyph-name="hairspace" unicode=" " horiz-adv-x="75"/>
<glyph d="M98 262q-16 0 -27 11.5t-11 27.5q0 15 11 26.5t27 11.5h332q16 0 27 -11.5t11 -26.5q0 -16 -11 -27.5t-27 -11.5h-332z" glyph-name="endash" unicode="–" horiz-adv-x="528"/>
<glyph d="M98 262q-16 0 -27 11.5t-11 27.5q0 15 11 26.5t27 11.5h702q16 0 27 -11.5t11 -26.5q0 -16 -11 -27.5t-27 -11.5h-702z" glyph-name="emdash" unicode="—" horiz-adv-x="898"/>
<glyph d="M196 683q0 -13 -14 -18q-55 -25 -55 -74v-8q16 -4 27 -16.5t11 -31.5v-15q0 -20 -13.5 -33.5t-32.5 -13.5q-22 0 -35 15.5t-13 39.5v19q0 85 35 120q15 15 35.5 26t32.5 11q22 0 22 -21z" glyph-name="quoteleft" unicode="‘" horiz-adv-x="245"/>
<glyph d="M50 494q0 14 13 19q56 24 56 76v6q-39 9 -39 47v16q0 20 13.5 33.5t32.5 13.5q22 0 35.5 -15.5t13.5 -39.5v-19q0 -84 -36 -120q-15 -16 -35 -26.5t-33 -10.5q-21 0 -21 20z" glyph-name="quoteright" unicode="’" horiz-adv-x="245"/>
<glyph d="M45 -100q0 13 13 18q56 24 56 76v6q-39 9 -39 48v16q0 20 13 33t33 13q22 0 35.5 -15t13.5 -40v-19q0 -84 -36 -120q-15 -15 -35.5 -25.5t-32.5 -10.5q-21 0 -21 20z" glyph-name="quotesinglbase" unicode="‚" horiz-adv-x="245"/>
<glyph d="M196 683q0 -13 -14 -18q-55 -25 -55 -74v-8q16 -4 27 -16.5t11 -31.5v-15q0 -20 -13.5 -33.5t-32.5 -13.5q-22 0 -35 15.5t-13 39.5v19q0 85 35 120q15 15 35.5 26t32.5 11q22 0 22 -21zM396 683q0 -13 -14 -18q-55 -25 -55 -74v-8q16 -4 27 -16.5t11 -31.5v-15 q0 -20 -13.5 -33.5t-32.5 -13.5q-22 0 -35 15.5t-13 39.5v19q0 85 35 120q15 15 35.5 26t32.5 11q22 0 22 -21z" glyph-name="quotedblleft" unicode="“" horiz-adv-x="445"/>
<glyph d="M250 494q0 14 13 19q56 24 56 76v6q-39 9 -39 47v16q0 20 13.5 33.5t32.5 13.5q22 0 35.5 -15.5t13.5 -39.5v-19q0 -84 -36 -120q-15 -16 -35 -26.5t-33 -10.5q-21 0 -21 20zM50 494q0 14 13 19q56 24 56 76v6q-39 9 -39 47v16q0 20 13.5 33.5t32.5 13.5q22 0 35.5 -15.5 t13.5 -39.5v-19q0 -84 -36 -120q-15 -16 -35 -26.5t-33 -10.5q-21 0 -21 20z" glyph-name="quotedblright" unicode="”" horiz-adv-x="445"/>
<glyph d="M245 -100q0 13 13 18q56 24 56 76v6q-39 9 -39 48v16q0 19 13.5 32.5t32.5 13.5q22 0 35.5 -15.5t13.5 -39.5v-19q0 -84 -36 -120q-15 -15 -35.5 -25.5t-32.5 -10.5q-21 0 -21 20zM45 -100q0 13 13 18q56 24 56 76v6q-39 9 -39 48v16q0 20 13 33t33 13q22 0 35.5 -15 t13.5 -40v-19q0 -84 -36 -120q-15 -15 -35.5 -25.5t-32.5 -10.5q-21 0 -21 20z" glyph-name="quotedblbase" unicode="„" horiz-adv-x="445"/>
<glyph d="M178 262l6 258l-100 -7h-2q-10 0 -18 7.5t-8 18.5t8 19t18 8h2l99 -7l-7 114q-1 13 7.5 22.5t21.5 9.5t21.5 -9.5t7.5 -22.5l-7 -114l99 7h2q10 0 18 -8t8 -19t-8 -18.5t-18 -7.5h-2l-100 7l6 -258q0 -13 -8 -21t-19 -8t-19 8t-8 21z" glyph-name="dagger" unicode="†" horiz-adv-x="410"/>
<glyph d="M186 27l7 114l-99 -7h-2q-10 0 -18 8t-8 19t8 18.5t18 7.5h2l100 -7l-6 170l6 170l-100 -7h-2q-10 0 -18 7.5t-8 18.5t8 19t18 8h2l99 -7l-7 114q-1 13 7.5 22.5t21.5 9.5t21.5 -9.5t7.5 -22.5l-7 -114l99 7h2q10 0 18 -8t8 -19t-8 -18.5t-18 -7.5h-2l-100 7l6 -170 l-6 -170l100 7h2q10 0 18 -7.5t8 -18.5t-8 -19t-18 -8h-2l-99 7l7 -114q1 -13 -7.5 -22.5t-21.5 -9.5t-21.5 9.5t-7.5 22.5z" glyph-name="daggerdbl" unicode="‡" horiz-adv-x="430"/>
<glyph d="M239 221q-54 0 -92.5 38t-38.5 92v2q0 54 39 92t92 38q52 0 91.5 -38.5t39.5 -91.5v-2q0 -54 -38.5 -92t-92.5 -38z" glyph-name="bullet" unicode="•" horiz-adv-x="478"/>
<glyph d="M75 63q0 20 13 33.5t33 13.5q21 0 34 -13.5t13 -33.5v-20q0 -21 -13 -34.5t-34 -13.5q-20 0 -33 14t-13 34v20zM315 63q0 20 13 33.5t34 13.5q20 0 33 -13.5t13 -33.5v-20q0 -20 -13 -34t-33 -14q-21 0 -34 13.5t-13 34.5v20zM556 63q0 20 13 33.5t33 13.5t33 -13.5 t13 -33.5v-20q0 -20 -13 -34t-33 -14t-33 14t-13 34v20z" glyph-name="ellipsis" unicode="…" horiz-adv-x="723"/>
<glyph d="M624 48q40 0 65.5 35t25.5 86v2q0 52 -27 87.5t-66 35.5q-40 0 -65.5 -35t-25.5 -86v-2q0 -52 27 -87.5t66 -35.5zM1001 48q40 0 65.5 35t25.5 86v2q0 52 -27 87.5t-66 35.5q-40 0 -65.5 -35t-25.5 -86v-2q0 -52 27 -87.5t66 -35.5zM212 406q40 0 65.5 35t25.5 86v2 q0 52 -27 87.5t-66 35.5q-40 0 -65.5 -35t-25.5 -86v-2q0 -52 27 -87.5t66 -35.5zM622 -8q-69 0 -113 52t-44 125v2q0 73 45 126t114 53t113 -52t44 -125v-2q0 -74 -44.5 -126.5t-114.5 -52.5zM999 -8q-69 0 -113 52t-44 125v2q0 73 45 126t114 53t113.5 -52t44.5 -125v-2 q0 -73 -45 -126t-115 -53zM149 23q0 10 6 19l476 649q11 14 25 14q12 0 20.5 -8.5t8.5 -19.5q0 -10 -6 -19l-476 -649q-11 -14 -25 -14q-12 0 -20.5 8.5t-8.5 19.5zM210 350q-69 0 -113.5 52t-44.5 125v2q0 73 45 126t115 53q69 0 113 -52t44 -125v-2q0 -73 -45 -126 t-114 -53z" glyph-name="perthousand" unicode="‰" horiz-adv-x="1211"/>
<glyph d="M227 42q-16 0 -28 16l-133 173q-12 15 -12 28q0 12 12 27l132 172q11 16 29 16q14 0 23.5 -9.5t9.5 -22.5q0 -11 -9 -24l-118 -158l119 -162q8 -11 8 -23q0 -13 -10 -23t-23 -10z" glyph-name="guilsinglleft" unicode="‹" horiz-adv-x="328"/>
<glyph d="M101 474q17 0 27 -15l134 -174q12 -15 12 -27t-12 -27l-132 -172q-14 -17 -30 -17q-13 0 -22.5 9.5t-9.5 23.5q0 12 9 23l118 159l-119 162q-9 14 -8 23q0 14 9.5 23t23.5 9z" glyph-name="guilsinglright" unicode="›" horiz-adv-x="328"/>
<glyph d="M-48 -71q0 11 5 19l434 795q12 20 31 20q14 0 23.5 -9.5t9.5 -22.5q0 -11 -5 -19l-435 -795q-10 -20 -30 -20q-14 0 -23.5 9.5t-9.5 22.5z" glyph-name="fraction" unicode="⁄" horiz-adv-x="429"/>
<glyph d="M663 137q0 -10 -8 -22q-92 -127 -225 -127q-105 0 -180.5 68t-102.5 181h-64q-13 0 -22 9t-9 22t9 22.5t22 9.5h54q-2 32 -2 49q0 31 3 59h-55q-13 0 -22 9t-9 22t9 22t22 9h67q29 108 102.5 175t172.5 67q136 0 226 -116q10 -12 10 -26q0 -15 -11 -26t-26 -11 q-18 0 -30 14q-36 48 -75.5 71t-96.5 23q-66 0 -117 -46.5t-74 -124.5h230q13 0 22.5 -9t9.5 -22t-9.5 -22t-22.5 -9h-244q-3 -28 -3 -57q0 -35 2 -51h245q13 0 22.5 -9.5t9.5 -22.5t-9.5 -22t-22.5 -9h-233q23 -82 77 -130t128 -48q94 0 166 99q11 14 28 14q15 0 25.5 -10 t10.5 -25z" glyph-name="Euro" unicode="€" horiz-adv-x="720"/>
<glyph d="M348 347h84q43 0 68.5 19.5t25.5 53.5v2q0 71 -93 71h-85v-146zM292 195v320q0 12 8.5 20t19.5 8h118q66 0 105 -32t39 -88v-2q0 -59 -43.5 -91.5t-107.5 -32.5h-83v-102q0 -11 -8.5 -19.5t-19.5 -8.5t-19.5 8.5t-8.5 19.5zM414 19q140 0 235 97t95 234v2 q0 137 -94.5 233t-233.5 96q-140 0 -235 -97t-95 -234v-2q0 -137 94.5 -233t233.5 -96zM414 -12q-151 0 -256 105.5t-105 254.5v2q0 149 106 255.5t257 106.5t256 -105.5t105 -254.5v-2q0 -149 -106 -255.5t-257 -106.5z" glyph-name="published" unicode="℗" horiz-adv-x="830"/>
<glyph d="M35 445q0 20 19 20q8 0 15 -5q46 -35 98 -35q31 0 49.5 13.5t18.5 34.5v1q0 20 -17 32t-63 22q-56 12 -82 31.5t-26 57.5v1q0 38 31 62.5t79 24.5q56 0 100 -29q11 -7 11 -19q0 -8 -5.5 -14t-13.5 -6q-7 0 -15 5q-37 25 -79 25q-29 0 -46.5 -13t-17.5 -33t17 -32.5 t64 -22.5q54 -12 80.5 -32t26.5 -56v-1q0 -40 -32.5 -65t-80.5 -25q-69 0 -120 40q-11 7 -11 18zM353 409v270q0 10 6 16t15 6h6q14 0 20 -11l109 -168l109 168q8 11 20 11h5q9 0 15.5 -6.5t6.5 -15.5v-270q0 -9 -6.5 -15.5t-16.5 -6.5q-9 0 -15 6.5t-6 15.5v208l-93 -139 q-6 -13 -19 -13q-12 0 -20 13l-93 139v-208q0 -9 -6.5 -15.5t-15.5 -6.5q-8 0 -14.5 6.5t-6.5 15.5z" glyph-name="servicemark" unicode="℠" horiz-adv-x="707"/>
<glyph d="M336 409v270q0 22 22 22h6q12 0 20 -11l108 -168l110 168q8 11 19 11h6q8 0 14.5 -6.5t6.5 -15.5v-270q0 -9 -6.5 -15.5t-15.5 -6.5t-15 6.5t-6 15.5v208l-93 -139q-8 -13 -20 -13t-20 13l-92 139v-208q0 -9 -6.5 -15.5t-15.5 -6.5t-15.5 6.5t-6.5 15.5zM125 409v249h-83 q-8 0 -14.5 6.5t-6.5 14.5t6.5 14.5t14.5 6.5h209q9 0 15 -6.5t6 -14.5t-6 -14.5t-15 -6.5h-82v-249q0 -9 -6.5 -15.5t-16.5 -6.5q-9 0 -15 6.5t-6 15.5z" glyph-name="trademark" unicode="™" horiz-adv-x="690"/>
<glyph d="M525 315h-424q-16 0 -27 10.5t-11 26.5q0 15 11 26t27 11h424q15 0 26 -11t11 -26q0 -16 -11 -26.5t-26 -10.5z" glyph-name="minus" unicode="−" horiz-adv-x="625"/>
<glyph glyph-name="Q.alt" d="M700 348v2q0 121 -78.5 205t-197.5 84t-196.5 -83t-77.5 -204v-2q0 -121 78.5 -205t197.5 -84t196.5 83t77.5 204zM782 350q0 -81 -32.5 -154t-91.5 -123l106 -103q17 -17 17 -34q0 -18 -12.5 -30t-30.5 -12q-19 0 -36 17l-118 113q-74 -36 -160 -36q-156 0 -256 105.5 t-100 254.5v2q0 149 101 255.5t257 106.5t256 -105.5t100 -254.5v-2z" horiz-adv-x="850"/>
<glyph glyph-name="aring.alt" d="M290 525q25 0 43.5 18t18.5 43v2q0 25 -18.5 43t-43.5 18t-43.5 -18t-18.5 -43v-2q0 -25 18.5 -43t43.5 -18zM255 50q72 0 122.5 39.5t50.5 100.5v50q-76 22 -152 22q-72 0 -111.5 -29t-39.5 -78v-2q0 -47 37.5 -75t92.5 -28zM240 -11q-78 0 -135.5 43t-57.5 118v2 q0 80 60 123.5t161 43.5q81 0 159 -22v18q0 69 -40 105t-114 36q-69 0 -134 -29q-7 -3 -14 -3q-14 0 -24 10t-10 23q0 24 21 32q54 23 103 31q-29 26 -29 66v2q0 41 31 70.5t73 29.5t73 -29.5t31 -70.5v-2q0 -43 -35 -71q53 -13 89 -48q53 -53 53 -151v-283q0 -16 -10.5 -27 t-26.5 -11t-26.5 10.5t-10.5 25.5v47q-68 -89 -187 -89z" horiz-adv-x="579"/>
<glyph glyph-name="aringacute.alt" d="M287 721q-19 0 -19 14q0 8 5 15l60 91q15 23 36 23q18 0 36 -10t18 -20q0 -9 -14 -23l-75 -71q-19 -19 -47 -19zM290 525q25 0 43.5 18t18.5 43v2q0 25 -18.5 43t-43.5 18t-43.5 -18t-18.5 -43v-2q0 -25 18.5 -43t43.5 -18zM255 50q72 0 122.5 39.5t50.5 100.5v50 q-76 22 -152 22q-72 0 -111.5 -29t-39.5 -78v-2q0 -47 37.5 -75t92.5 -28zM240 -11q-78 0 -135.5 43t-57.5 118v2q0 80 60 123.5t161 43.5q81 0 159 -22v18q0 69 -40 105t-114 36q-69 0 -134 -29q-7 -3 -14 -3q-14 0 -24 10t-10 23q0 24 21 32q54 23 103 31q-29 26 -29 66v2 q0 41 31 70.5t73 29.5t73 -29.5t31 -70.5v-2q0 -43 -35 -71q53 -13 89 -48q53 -53 53 -151v-283q0 -16 -10.5 -27t-26.5 -11t-26.5 10.5t-10.5 25.5v47q-68 -89 -187 -89z" horiz-adv-x="579"/>
<glyph glyph-name="three.alt" d="M306 -12q-145 0 -242 104q-13 13 -13 30q0 16 11 26.5t27 10.5q17 0 28 -12q78 -87 191 -87q70 0 114 35.5t44 94.5v2q0 59 -49.5 93t-137.5 34h-42q-14 0 -24 10t-10 24t10 24t24 10h44q73 0 119.5 35t46.5 94v2q0 53 -41.5 87.5t-108.5 34.5q-98 0 -167 -83 q-12 -14 -28 -14q-15 0 -25.5 10.5t-10.5 25.5q0 14 10 26q87 107 223 107q100 0 164 -53t64 -134v-2q0 -117 -122 -164q141 -46 141 -167v-2q0 -86 -67 -144t-173 -58z" horiz-adv-x="604"/>
<glyph glyph-name="registered.alt" d="M328 364h106q40 0 64 17.5t24 48.5v2q0 29 -22.5 46.5t-62.5 17.5h-109v-132zM273 197v322q0 11 8 19t19 8h139q71 0 110 -39q30 -28 30 -72v-2q0 -42 -25.5 -70t-69.5 -38l88 -109q7 -10 7 -20q0 -11 -8 -18.5t-19 -7.5q-14 0 -23 12l-105 133h-96v-118q0 -11 -8.5 -19 t-19.5 -8t-19 8t-8 19zM414 19q140 0 235 97t95 234v2q0 137 -94.5 233t-233.5 96q-140 0 -235 -97t-95 -234v-2q0 -137 94.5 -233t233.5 -96zM414 -12q-151 0 -256 105.5t-105 254.5v2q0 149 106 255.5t257 106.5t256 -105.5t105 -254.5v-2q0 -149 -106 -255.5t-257 -106.5 z" horiz-adv-x="830"/>
<glyph glyph-name="hfjslug" d="M426 283q-16 0 -16 17q0 6 4.5 11.5t11.5 5.5t11.5 -5.5t4.5 -11.5q0 -17 -16 -17zM487 299h-11v17h11q10 0 10 -8q0 -9 -10 -9zM342 423q-8 -21 -20 -21q-16 0 -16 25q0 19 16 35zM327 479q-12 22 -12 32q0 19 14 19q13 0 13 -19q0 -15 -15 -32zM241 323l14 -47h8l11 34 h1l11 -34h8l14 47h-8l-10 -35h-1l-11 35h-7l-11 -35h-1l-10 35h-8zM132 323v-46h8v32l25 -32h7v46h-8v-32l-25 32h-7zM193 323v-46h34v7h-26v13h23v7h-23v12h26v7h-34zM370 301l-13 22h-9l18 -29v-17h8v17l18 29h-9zM426 276q10 0 17 7t7 17q0 9 -7 16.5t-17 7.5t-17 -7.5 t-7 -16.5q0 -10 7 -17t17 -7zM488 292l10 -15h9l-12 17q10 4 10 14q0 15 -17 15h-20v-46h8v15h12zM523 323v-46h8v12l8 8l15 -20h10l-20 26l18 20h-10l-20 -24h-1v24h-8zM371 465l-13 3q-4 -18 -8 -30h-1l-16 31q23 21 23 42q0 31 -27 31q-12 0 -20 -9t-8 -22t14 -39 q-23 -18 -23 -47q0 -16 8 -26.5t21 -10.5q19 0 29 24h1l12 -24l12 6l-17 32q6 14 13 39zM460 394q10 -4 21 -4q31 0 31 36v137h-16v-137q0 -22 -16 -22q-8 0 -20 5v-15zM184 563v-172h15v79h47v-79h15v172h-15v-79h-47v79h-15zM400 563v-172h15v78h38v14h-38v66h43v14h-58z M644 -200h-208l-8 14h-163l-8 -14h-207v303q14 0 23 9.5t9 22.5t-9.5 22.5t-22.5 9.5v554h100l30 79h334l29 -79h101v-921z" horiz-adv-x="694"/>
<glyph glyph-name="caron.alt" d="M210 584l9 116q3 32 34 32h15q22 0 22 -21q0 -9 -5 -24l-35 -106q-6 -20 -22 -20q-21 0 -18 23z"/>
<glyph glyph-name="NUL" horiz-adv-x="0"/>
</font>
</defs>
</svg>
